G75*
%MOIN*%
%OFA0B0*%
%FSLAX26Y26*%
%IPPOS*%
%LPD*%
%AMOC8*
5,1,8,0,0,1.08239X$1,22.5*
%
%ADD10C,0.010000*%
%ADD11C,0.000000*%
D10*
X00015000Y00015000D02*
X00015000Y01464606D01*
X01852008Y01464606D01*
X01852008Y00015000D01*
X00015000Y00015000D01*
D11*
X00437441Y00237835D02*
X00437449Y00238511D01*
X00437474Y00239187D01*
X00437516Y00239862D01*
X00437574Y00240536D01*
X00437648Y00241209D01*
X00437739Y00241879D01*
X00437847Y00242547D01*
X00437971Y00243211D01*
X00438111Y00243873D01*
X00438267Y00244531D01*
X00438439Y00245185D01*
X00438628Y00245835D01*
X00438832Y00246480D01*
X00439052Y00247119D01*
X00439288Y00247753D01*
X00439539Y00248381D01*
X00439805Y00249003D01*
X00440087Y00249618D01*
X00440384Y00250226D01*
X00440695Y00250826D01*
X00441021Y00251419D01*
X00441362Y00252003D01*
X00441717Y00252579D01*
X00442086Y00253146D01*
X00442468Y00253704D01*
X00442864Y00254252D01*
X00443274Y00254790D01*
X00443697Y00255318D01*
X00444132Y00255836D01*
X00444580Y00256342D01*
X00445040Y00256838D01*
X00445513Y00257322D01*
X00445997Y00257795D01*
X00446493Y00258255D01*
X00446999Y00258703D01*
X00447517Y00259138D01*
X00448045Y00259561D01*
X00448583Y00259971D01*
X00449131Y00260367D01*
X00449689Y00260749D01*
X00450256Y00261118D01*
X00450832Y00261473D01*
X00451416Y00261814D01*
X00452009Y00262140D01*
X00452609Y00262451D01*
X00453217Y00262748D01*
X00453832Y00263030D01*
X00454454Y00263296D01*
X00455082Y00263547D01*
X00455716Y00263783D01*
X00456355Y00264003D01*
X00457000Y00264207D01*
X00457650Y00264396D01*
X00458304Y00264568D01*
X00458962Y00264724D01*
X00459624Y00264864D01*
X00460288Y00264988D01*
X00460956Y00265096D01*
X00461626Y00265187D01*
X00462299Y00265261D01*
X00462973Y00265319D01*
X00463648Y00265361D01*
X00464324Y00265386D01*
X00465000Y00265394D01*
X00465676Y00265386D01*
X00466352Y00265361D01*
X00467027Y00265319D01*
X00467701Y00265261D01*
X00468374Y00265187D01*
X00469044Y00265096D01*
X00469712Y00264988D01*
X00470376Y00264864D01*
X00471038Y00264724D01*
X00471696Y00264568D01*
X00472350Y00264396D01*
X00473000Y00264207D01*
X00473645Y00264003D01*
X00474284Y00263783D01*
X00474918Y00263547D01*
X00475546Y00263296D01*
X00476168Y00263030D01*
X00476783Y00262748D01*
X00477391Y00262451D01*
X00477991Y00262140D01*
X00478584Y00261814D01*
X00479168Y00261473D01*
X00479744Y00261118D01*
X00480311Y00260749D01*
X00480869Y00260367D01*
X00481417Y00259971D01*
X00481955Y00259561D01*
X00482483Y00259138D01*
X00483001Y00258703D01*
X00483507Y00258255D01*
X00484003Y00257795D01*
X00484487Y00257322D01*
X00484960Y00256838D01*
X00485420Y00256342D01*
X00485868Y00255836D01*
X00486303Y00255318D01*
X00486726Y00254790D01*
X00487136Y00254252D01*
X00487532Y00253704D01*
X00487914Y00253146D01*
X00488283Y00252579D01*
X00488638Y00252003D01*
X00488979Y00251419D01*
X00489305Y00250826D01*
X00489616Y00250226D01*
X00489913Y00249618D01*
X00490195Y00249003D01*
X00490461Y00248381D01*
X00490712Y00247753D01*
X00490948Y00247119D01*
X00491168Y00246480D01*
X00491372Y00245835D01*
X00491561Y00245185D01*
X00491733Y00244531D01*
X00491889Y00243873D01*
X00492029Y00243211D01*
X00492153Y00242547D01*
X00492261Y00241879D01*
X00492352Y00241209D01*
X00492426Y00240536D01*
X00492484Y00239862D01*
X00492526Y00239187D01*
X00492551Y00238511D01*
X00492559Y00237835D01*
X00492551Y00237159D01*
X00492526Y00236483D01*
X00492484Y00235808D01*
X00492426Y00235134D01*
X00492352Y00234461D01*
X00492261Y00233791D01*
X00492153Y00233123D01*
X00492029Y00232459D01*
X00491889Y00231797D01*
X00491733Y00231139D01*
X00491561Y00230485D01*
X00491372Y00229835D01*
X00491168Y00229190D01*
X00490948Y00228551D01*
X00490712Y00227917D01*
X00490461Y00227289D01*
X00490195Y00226667D01*
X00489913Y00226052D01*
X00489616Y00225444D01*
X00489305Y00224844D01*
X00488979Y00224251D01*
X00488638Y00223667D01*
X00488283Y00223091D01*
X00487914Y00222524D01*
X00487532Y00221966D01*
X00487136Y00221418D01*
X00486726Y00220880D01*
X00486303Y00220352D01*
X00485868Y00219834D01*
X00485420Y00219328D01*
X00484960Y00218832D01*
X00484487Y00218348D01*
X00484003Y00217875D01*
X00483507Y00217415D01*
X00483001Y00216967D01*
X00482483Y00216532D01*
X00481955Y00216109D01*
X00481417Y00215699D01*
X00480869Y00215303D01*
X00480311Y00214921D01*
X00479744Y00214552D01*
X00479168Y00214197D01*
X00478584Y00213856D01*
X00477991Y00213530D01*
X00477391Y00213219D01*
X00476783Y00212922D01*
X00476168Y00212640D01*
X00475546Y00212374D01*
X00474918Y00212123D01*
X00474284Y00211887D01*
X00473645Y00211667D01*
X00473000Y00211463D01*
X00472350Y00211274D01*
X00471696Y00211102D01*
X00471038Y00210946D01*
X00470376Y00210806D01*
X00469712Y00210682D01*
X00469044Y00210574D01*
X00468374Y00210483D01*
X00467701Y00210409D01*
X00467027Y00210351D01*
X00466352Y00210309D01*
X00465676Y00210284D01*
X00465000Y00210276D01*
X00464324Y00210284D01*
X00463648Y00210309D01*
X00462973Y00210351D01*
X00462299Y00210409D01*
X00461626Y00210483D01*
X00460956Y00210574D01*
X00460288Y00210682D01*
X00459624Y00210806D01*
X00458962Y00210946D01*
X00458304Y00211102D01*
X00457650Y00211274D01*
X00457000Y00211463D01*
X00456355Y00211667D01*
X00455716Y00211887D01*
X00455082Y00212123D01*
X00454454Y00212374D01*
X00453832Y00212640D01*
X00453217Y00212922D01*
X00452609Y00213219D01*
X00452009Y00213530D01*
X00451416Y00213856D01*
X00450832Y00214197D01*
X00450256Y00214552D01*
X00449689Y00214921D01*
X00449131Y00215303D01*
X00448583Y00215699D01*
X00448045Y00216109D01*
X00447517Y00216532D01*
X00446999Y00216967D01*
X00446493Y00217415D01*
X00445997Y00217875D01*
X00445513Y00218348D01*
X00445040Y00218832D01*
X00444580Y00219328D01*
X00444132Y00219834D01*
X00443697Y00220352D01*
X00443274Y00220880D01*
X00442864Y00221418D01*
X00442468Y00221966D01*
X00442086Y00222524D01*
X00441717Y00223091D01*
X00441362Y00223667D01*
X00441021Y00224251D01*
X00440695Y00224844D01*
X00440384Y00225444D01*
X00440087Y00226052D01*
X00439805Y00226667D01*
X00439539Y00227289D01*
X00439288Y00227917D01*
X00439052Y00228551D01*
X00438832Y00229190D01*
X00438628Y00229835D01*
X00438439Y00230485D01*
X00438267Y00231139D01*
X00438111Y00231797D01*
X00437971Y00232459D01*
X00437847Y00233123D01*
X00437739Y00233791D01*
X00437648Y00234461D01*
X00437574Y00235134D01*
X00437516Y00235808D01*
X00437474Y00236483D01*
X00437449Y00237159D01*
X00437441Y00237835D01*
X00437441Y00592165D02*
X00437449Y00592841D01*
X00437474Y00593517D01*
X00437516Y00594192D01*
X00437574Y00594866D01*
X00437648Y00595539D01*
X00437739Y00596209D01*
X00437847Y00596877D01*
X00437971Y00597541D01*
X00438111Y00598203D01*
X00438267Y00598861D01*
X00438439Y00599515D01*
X00438628Y00600165D01*
X00438832Y00600810D01*
X00439052Y00601449D01*
X00439288Y00602083D01*
X00439539Y00602711D01*
X00439805Y00603333D01*
X00440087Y00603948D01*
X00440384Y00604556D01*
X00440695Y00605156D01*
X00441021Y00605749D01*
X00441362Y00606333D01*
X00441717Y00606909D01*
X00442086Y00607476D01*
X00442468Y00608034D01*
X00442864Y00608582D01*
X00443274Y00609120D01*
X00443697Y00609648D01*
X00444132Y00610166D01*
X00444580Y00610672D01*
X00445040Y00611168D01*
X00445513Y00611652D01*
X00445997Y00612125D01*
X00446493Y00612585D01*
X00446999Y00613033D01*
X00447517Y00613468D01*
X00448045Y00613891D01*
X00448583Y00614301D01*
X00449131Y00614697D01*
X00449689Y00615079D01*
X00450256Y00615448D01*
X00450832Y00615803D01*
X00451416Y00616144D01*
X00452009Y00616470D01*
X00452609Y00616781D01*
X00453217Y00617078D01*
X00453832Y00617360D01*
X00454454Y00617626D01*
X00455082Y00617877D01*
X00455716Y00618113D01*
X00456355Y00618333D01*
X00457000Y00618537D01*
X00457650Y00618726D01*
X00458304Y00618898D01*
X00458962Y00619054D01*
X00459624Y00619194D01*
X00460288Y00619318D01*
X00460956Y00619426D01*
X00461626Y00619517D01*
X00462299Y00619591D01*
X00462973Y00619649D01*
X00463648Y00619691D01*
X00464324Y00619716D01*
X00465000Y00619724D01*
X00465676Y00619716D01*
X00466352Y00619691D01*
X00467027Y00619649D01*
X00467701Y00619591D01*
X00468374Y00619517D01*
X00469044Y00619426D01*
X00469712Y00619318D01*
X00470376Y00619194D01*
X00471038Y00619054D01*
X00471696Y00618898D01*
X00472350Y00618726D01*
X00473000Y00618537D01*
X00473645Y00618333D01*
X00474284Y00618113D01*
X00474918Y00617877D01*
X00475546Y00617626D01*
X00476168Y00617360D01*
X00476783Y00617078D01*
X00477391Y00616781D01*
X00477991Y00616470D01*
X00478584Y00616144D01*
X00479168Y00615803D01*
X00479744Y00615448D01*
X00480311Y00615079D01*
X00480869Y00614697D01*
X00481417Y00614301D01*
X00481955Y00613891D01*
X00482483Y00613468D01*
X00483001Y00613033D01*
X00483507Y00612585D01*
X00484003Y00612125D01*
X00484487Y00611652D01*
X00484960Y00611168D01*
X00485420Y00610672D01*
X00485868Y00610166D01*
X00486303Y00609648D01*
X00486726Y00609120D01*
X00487136Y00608582D01*
X00487532Y00608034D01*
X00487914Y00607476D01*
X00488283Y00606909D01*
X00488638Y00606333D01*
X00488979Y00605749D01*
X00489305Y00605156D01*
X00489616Y00604556D01*
X00489913Y00603948D01*
X00490195Y00603333D01*
X00490461Y00602711D01*
X00490712Y00602083D01*
X00490948Y00601449D01*
X00491168Y00600810D01*
X00491372Y00600165D01*
X00491561Y00599515D01*
X00491733Y00598861D01*
X00491889Y00598203D01*
X00492029Y00597541D01*
X00492153Y00596877D01*
X00492261Y00596209D01*
X00492352Y00595539D01*
X00492426Y00594866D01*
X00492484Y00594192D01*
X00492526Y00593517D01*
X00492551Y00592841D01*
X00492559Y00592165D01*
X00492551Y00591489D01*
X00492526Y00590813D01*
X00492484Y00590138D01*
X00492426Y00589464D01*
X00492352Y00588791D01*
X00492261Y00588121D01*
X00492153Y00587453D01*
X00492029Y00586789D01*
X00491889Y00586127D01*
X00491733Y00585469D01*
X00491561Y00584815D01*
X00491372Y00584165D01*
X00491168Y00583520D01*
X00490948Y00582881D01*
X00490712Y00582247D01*
X00490461Y00581619D01*
X00490195Y00580997D01*
X00489913Y00580382D01*
X00489616Y00579774D01*
X00489305Y00579174D01*
X00488979Y00578581D01*
X00488638Y00577997D01*
X00488283Y00577421D01*
X00487914Y00576854D01*
X00487532Y00576296D01*
X00487136Y00575748D01*
X00486726Y00575210D01*
X00486303Y00574682D01*
X00485868Y00574164D01*
X00485420Y00573658D01*
X00484960Y00573162D01*
X00484487Y00572678D01*
X00484003Y00572205D01*
X00483507Y00571745D01*
X00483001Y00571297D01*
X00482483Y00570862D01*
X00481955Y00570439D01*
X00481417Y00570029D01*
X00480869Y00569633D01*
X00480311Y00569251D01*
X00479744Y00568882D01*
X00479168Y00568527D01*
X00478584Y00568186D01*
X00477991Y00567860D01*
X00477391Y00567549D01*
X00476783Y00567252D01*
X00476168Y00566970D01*
X00475546Y00566704D01*
X00474918Y00566453D01*
X00474284Y00566217D01*
X00473645Y00565997D01*
X00473000Y00565793D01*
X00472350Y00565604D01*
X00471696Y00565432D01*
X00471038Y00565276D01*
X00470376Y00565136D01*
X00469712Y00565012D01*
X00469044Y00564904D01*
X00468374Y00564813D01*
X00467701Y00564739D01*
X00467027Y00564681D01*
X00466352Y00564639D01*
X00465676Y00564614D01*
X00465000Y00564606D01*
X00464324Y00564614D01*
X00463648Y00564639D01*
X00462973Y00564681D01*
X00462299Y00564739D01*
X00461626Y00564813D01*
X00460956Y00564904D01*
X00460288Y00565012D01*
X00459624Y00565136D01*
X00458962Y00565276D01*
X00458304Y00565432D01*
X00457650Y00565604D01*
X00457000Y00565793D01*
X00456355Y00565997D01*
X00455716Y00566217D01*
X00455082Y00566453D01*
X00454454Y00566704D01*
X00453832Y00566970D01*
X00453217Y00567252D01*
X00452609Y00567549D01*
X00452009Y00567860D01*
X00451416Y00568186D01*
X00450832Y00568527D01*
X00450256Y00568882D01*
X00449689Y00569251D01*
X00449131Y00569633D01*
X00448583Y00570029D01*
X00448045Y00570439D01*
X00447517Y00570862D01*
X00446999Y00571297D01*
X00446493Y00571745D01*
X00445997Y00572205D01*
X00445513Y00572678D01*
X00445040Y00573162D01*
X00444580Y00573658D01*
X00444132Y00574164D01*
X00443697Y00574682D01*
X00443274Y00575210D01*
X00442864Y00575748D01*
X00442468Y00576296D01*
X00442086Y00576854D01*
X00441717Y00577421D01*
X00441362Y00577997D01*
X00441021Y00578581D01*
X00440695Y00579174D01*
X00440384Y00579774D01*
X00440087Y00580382D01*
X00439805Y00580997D01*
X00439539Y00581619D01*
X00439288Y00582247D01*
X00439052Y00582881D01*
X00438832Y00583520D01*
X00438628Y00584165D01*
X00438439Y00584815D01*
X00438267Y00585469D01*
X00438111Y00586127D01*
X00437971Y00586789D01*
X00437847Y00587453D01*
X00437739Y00588121D01*
X00437648Y00588791D01*
X00437574Y00589464D01*
X00437516Y00590138D01*
X00437474Y00590813D01*
X00437449Y00591489D01*
X00437441Y00592165D01*
M02*
