G75*
%MOIN*%
%OFA0B0*%
%FSLAX25Y25*%
%IPPOS*%
%LPD*%
%AMOC8*
5,1,8,0,0,1.08239X$1,22.5*
%
%ADD10R,0.02178X0.03950*%
%ADD11R,0.05918X0.06706*%
%ADD12R,0.06706X0.05918*%
%ADD13R,0.01587X0.04146*%
%ADD14R,0.04146X0.01587*%
%ADD15R,0.08200X0.08200*%
%ADD16C,0.01640*%
%ADD17C,0.08200*%
%ADD18R,0.05524X0.05524*%
%ADD19R,0.03800X0.06800*%
%ADD20R,0.04800X0.10800*%
%ADD21R,0.03162X0.04737*%
%ADD22R,0.05524X0.02965*%
%ADD23R,0.04737X0.06706*%
%ADD24R,0.12217X0.08871*%
%ADD25R,0.04737X0.03162*%
%ADD26R,0.06950X0.01902*%
%ADD27R,0.01902X0.06950*%
%ADD28R,0.26200X0.26200*%
%ADD29R,0.08280X0.05131*%
%ADD30C,0.03900*%
%ADD31C,0.03975*%
D10*
X0323662Y0194661D03*
X0326221Y0194661D03*
X0328780Y0194661D03*
X0328780Y0200961D03*
X0326221Y0200961D03*
X0323662Y0200961D03*
D11*
X0296536Y0241354D03*
X0289843Y0241354D03*
X0278819Y0241354D03*
X0272126Y0241354D03*
X0261103Y0241551D03*
X0254410Y0241551D03*
X0243780Y0241551D03*
X0237087Y0241551D03*
X0220000Y0237929D03*
X0212520Y0237929D03*
X0212520Y0248953D03*
X0220000Y0248953D03*
X0217796Y0174622D03*
X0225276Y0174622D03*
X0236496Y0174622D03*
X0243977Y0174622D03*
X0247244Y0153638D03*
X0253937Y0153638D03*
X0234331Y0153835D03*
X0226851Y0153835D03*
X0226654Y0143638D03*
X0234134Y0143638D03*
X0208465Y0159583D03*
X0200985Y0159583D03*
X0276851Y0145685D03*
X0284331Y0145685D03*
X0294567Y0145685D03*
X0302048Y0145685D03*
X0326890Y0154819D03*
X0333583Y0154819D03*
D12*
X0305906Y0155961D03*
X0305906Y0163441D03*
X0265118Y0127457D03*
X0265118Y0119976D03*
X0247441Y0192339D03*
X0247441Y0199031D03*
X0247520Y0210449D03*
X0247520Y0217142D03*
X0199370Y0214740D03*
X0199370Y0222220D03*
X0199174Y0203008D03*
X0199174Y0195528D03*
X0313347Y0235685D03*
X0313347Y0243165D03*
X0323426Y0242496D03*
X0323426Y0235803D03*
X0320748Y0216354D03*
X0320748Y0208874D03*
X0330197Y0208874D03*
X0330197Y0216354D03*
D13*
X0225433Y0212398D03*
X0223465Y0212398D03*
X0221496Y0212398D03*
X0219528Y0212398D03*
X0217559Y0212398D03*
X0215591Y0212398D03*
X0215591Y0196846D03*
X0217559Y0196846D03*
X0219528Y0196846D03*
X0221496Y0196846D03*
X0223465Y0196846D03*
X0225433Y0196846D03*
D14*
X0228288Y0199701D03*
X0228288Y0201669D03*
X0228288Y0203638D03*
X0228288Y0205606D03*
X0228288Y0207575D03*
X0228288Y0209543D03*
X0212737Y0209543D03*
X0212737Y0207575D03*
X0212737Y0205606D03*
X0212737Y0203638D03*
X0212737Y0201669D03*
X0212737Y0199701D03*
D15*
G36*
X0210332Y0266535D02*
X0203363Y0262214D01*
X0199042Y0269183D01*
X0206011Y0273504D01*
X0210332Y0266535D01*
G37*
D16*
X0215869Y0272882D02*
X0216689Y0273702D01*
X0216068Y0271056D01*
X0213760Y0269625D01*
X0211114Y0270246D01*
X0209683Y0272554D01*
X0210304Y0275200D01*
X0212612Y0276631D01*
X0215258Y0276010D01*
X0216689Y0273702D01*
X0215375Y0273486D01*
X0214987Y0271834D01*
X0213544Y0270939D01*
X0211892Y0271327D01*
X0210997Y0272770D01*
X0211385Y0274422D01*
X0212828Y0275317D01*
X0214480Y0274929D01*
X0215375Y0273486D01*
X0214061Y0273271D01*
X0213906Y0272610D01*
X0213329Y0272253D01*
X0212668Y0272408D01*
X0212311Y0272985D01*
X0212466Y0273646D01*
X0213043Y0274003D01*
X0213704Y0273848D01*
X0214061Y0273271D01*
X0224368Y0278152D02*
X0225188Y0278972D01*
X0224567Y0276326D01*
X0222259Y0274895D01*
X0219613Y0275516D01*
X0218182Y0277824D01*
X0218803Y0280470D01*
X0221111Y0281901D01*
X0223757Y0281280D01*
X0225188Y0278972D01*
X0223874Y0278756D01*
X0223486Y0277104D01*
X0222043Y0276209D01*
X0220391Y0276597D01*
X0219496Y0278040D01*
X0219884Y0279692D01*
X0221327Y0280587D01*
X0222979Y0280199D01*
X0223874Y0278756D01*
X0222560Y0278541D01*
X0222405Y0277880D01*
X0221828Y0277523D01*
X0221167Y0277678D01*
X0220810Y0278255D01*
X0220965Y0278916D01*
X0221542Y0279273D01*
X0222203Y0279118D01*
X0222560Y0278541D01*
X0219099Y0286651D02*
X0219919Y0287471D01*
X0219298Y0284825D01*
X0216990Y0283394D01*
X0214344Y0284015D01*
X0212913Y0286323D01*
X0213534Y0288969D01*
X0215842Y0290400D01*
X0218488Y0289779D01*
X0219919Y0287471D01*
X0218605Y0287255D01*
X0218217Y0285603D01*
X0216774Y0284708D01*
X0215122Y0285096D01*
X0214227Y0286539D01*
X0214615Y0288191D01*
X0216058Y0289086D01*
X0217710Y0288698D01*
X0218605Y0287255D01*
X0217291Y0287040D01*
X0217136Y0286379D01*
X0216559Y0286022D01*
X0215898Y0286177D01*
X0215541Y0286754D01*
X0215696Y0287415D01*
X0216273Y0287772D01*
X0216934Y0287617D01*
X0217291Y0287040D01*
X0210600Y0281381D02*
X0211420Y0282201D01*
X0210799Y0279555D01*
X0208491Y0278124D01*
X0205845Y0278745D01*
X0204414Y0281053D01*
X0205035Y0283699D01*
X0207343Y0285130D01*
X0209989Y0284509D01*
X0211420Y0282201D01*
X0210106Y0281985D01*
X0209718Y0280333D01*
X0208275Y0279438D01*
X0206623Y0279826D01*
X0205728Y0281269D01*
X0206116Y0282921D01*
X0207559Y0283816D01*
X0209211Y0283428D01*
X0210106Y0281985D01*
X0208792Y0281770D01*
X0208637Y0281109D01*
X0208060Y0280752D01*
X0207399Y0280907D01*
X0207042Y0281484D01*
X0207197Y0282145D01*
X0207774Y0282502D01*
X0208435Y0282347D01*
X0208792Y0281770D01*
X0202101Y0276112D02*
X0202921Y0276932D01*
X0202300Y0274286D01*
X0199992Y0272855D01*
X0197346Y0273476D01*
X0195915Y0275784D01*
X0196536Y0278430D01*
X0198844Y0279861D01*
X0201490Y0279240D01*
X0202921Y0276932D01*
X0201607Y0276716D01*
X0201219Y0275064D01*
X0199776Y0274169D01*
X0198124Y0274557D01*
X0197229Y0276000D01*
X0197617Y0277652D01*
X0199060Y0278547D01*
X0200712Y0278159D01*
X0201607Y0276716D01*
X0200293Y0276501D01*
X0200138Y0275840D01*
X0199561Y0275483D01*
X0198900Y0275638D01*
X0198543Y0276215D01*
X0198698Y0276876D01*
X0199275Y0277233D01*
X0199936Y0277078D01*
X0200293Y0276501D01*
D17*
X0169370Y0157535D03*
X0165255Y0166649D03*
X0186496Y0137457D03*
X0193530Y0130349D03*
X0239725Y0102417D03*
X0249708Y0102993D03*
X0259692Y0103569D03*
X0269675Y0104144D03*
X0279658Y0104720D03*
X0289642Y0105296D03*
X0318189Y0121118D03*
X0325395Y0128052D03*
X0329961Y0265173D03*
X0323736Y0272999D03*
X0284646Y0293402D03*
X0274646Y0293402D03*
X0264646Y0293402D03*
X0254646Y0293402D03*
X0244646Y0293402D03*
X0234646Y0293402D03*
X0183398Y0261318D03*
X0177835Y0253008D03*
X0169475Y0223927D03*
X0168032Y0214031D03*
X0166588Y0204136D03*
D18*
X0246496Y0143441D03*
X0254764Y0143441D03*
X0326024Y0145449D03*
X0334292Y0145449D03*
D19*
G36*
X0229849Y0119091D02*
X0226437Y0120763D01*
X0229429Y0126869D01*
X0232841Y0125197D01*
X0229849Y0119091D01*
G37*
G36*
X0221050Y0101130D02*
X0217638Y0102802D01*
X0220630Y0108908D01*
X0224042Y0107236D01*
X0221050Y0101130D01*
G37*
G36*
X0207580Y0107729D02*
X0204168Y0109401D01*
X0207160Y0115507D01*
X0210572Y0113835D01*
X0207580Y0107729D01*
G37*
G36*
X0216378Y0125690D02*
X0212966Y0127362D01*
X0215958Y0133468D01*
X0219370Y0131796D01*
X0216378Y0125690D01*
G37*
D20*
X0334796Y0198283D03*
X0360796Y0198283D03*
D21*
X0292363Y0270567D03*
X0292363Y0280803D03*
X0259489Y0280567D03*
X0259489Y0270331D03*
X0243740Y0270213D03*
X0243740Y0280449D03*
D22*
X0210552Y0148953D03*
X0210552Y0141472D03*
X0200315Y0141472D03*
X0200315Y0145213D03*
X0200315Y0148953D03*
D23*
X0239449Y0252516D03*
X0246929Y0252516D03*
X0256339Y0252516D03*
X0263819Y0252516D03*
X0272048Y0252319D03*
X0279528Y0252319D03*
X0288544Y0252122D03*
X0296024Y0252122D03*
D24*
X0292284Y0260094D03*
X0275788Y0260291D03*
X0260079Y0260488D03*
X0243189Y0260488D03*
D25*
G36*
X0274036Y0268281D02*
X0274045Y0273016D01*
X0277206Y0273011D01*
X0277197Y0268276D01*
X0274036Y0268281D01*
G37*
G36*
X0274054Y0278517D02*
X0274063Y0283252D01*
X0277224Y0283247D01*
X0277215Y0278512D01*
X0274054Y0278517D01*
G37*
D26*
X0271099Y0213402D03*
X0271099Y0211433D03*
X0271099Y0209465D03*
X0271099Y0207496D03*
X0271099Y0205528D03*
X0271099Y0203559D03*
X0271099Y0201591D03*
X0271099Y0199622D03*
X0271099Y0197654D03*
X0271099Y0195685D03*
X0271099Y0193717D03*
X0271099Y0191748D03*
X0271099Y0189780D03*
X0271099Y0187811D03*
X0271099Y0185843D03*
X0271099Y0183874D03*
X0309532Y0183874D03*
X0309532Y0185843D03*
X0309532Y0187811D03*
X0309532Y0189780D03*
X0309532Y0191748D03*
X0309532Y0193717D03*
X0309532Y0195685D03*
X0309532Y0197654D03*
X0309532Y0199622D03*
X0309532Y0201591D03*
X0309532Y0203559D03*
X0309532Y0205528D03*
X0309532Y0207496D03*
X0309532Y0209465D03*
X0309532Y0211433D03*
X0309532Y0213402D03*
D27*
X0305079Y0217854D03*
X0303111Y0217854D03*
X0301142Y0217854D03*
X0299174Y0217854D03*
X0297205Y0217854D03*
X0295237Y0217854D03*
X0293268Y0217854D03*
X0291300Y0217854D03*
X0289331Y0217854D03*
X0287363Y0217854D03*
X0285394Y0217854D03*
X0283426Y0217854D03*
X0281457Y0217854D03*
X0279489Y0217854D03*
X0277520Y0217854D03*
X0275552Y0217854D03*
X0275552Y0179421D03*
X0277520Y0179421D03*
X0279489Y0179421D03*
X0281457Y0179421D03*
X0283426Y0179421D03*
X0285394Y0179421D03*
X0287363Y0179421D03*
X0289331Y0179421D03*
X0291300Y0179421D03*
X0293268Y0179421D03*
X0295237Y0179421D03*
X0297205Y0179421D03*
X0299174Y0179421D03*
X0301142Y0179421D03*
X0303111Y0179421D03*
X0305079Y0179421D03*
D28*
X0290315Y0198638D03*
D29*
X0294213Y0163323D03*
X0294213Y0154268D03*
X0279646Y0154268D03*
X0279646Y0163323D03*
D30*
X0282619Y0169638D03*
X0282267Y0173859D03*
X0275584Y0172804D03*
X0269603Y0166823D03*
X0259754Y0166823D03*
X0262568Y0181950D03*
X0265382Y0190744D03*
X0260457Y0195669D03*
X0257643Y0207629D03*
X0252015Y0225921D03*
X0254829Y0232956D03*
X0241814Y0236122D03*
X0227039Y0245269D03*
X0231964Y0254415D03*
X0249059Y0269989D03*
X0251663Y0260395D03*
X0267845Y0245972D03*
X0277342Y0246676D03*
X0282619Y0233308D03*
X0291765Y0235771D03*
X0295986Y0235771D03*
X0304429Y0235771D03*
X0295635Y0223459D03*
X0320259Y0230846D03*
X0297239Y0266727D03*
X0286334Y0266769D03*
X0280508Y0280446D03*
X0303374Y0281501D03*
X0241814Y0285019D03*
X0221763Y0228735D03*
X0225632Y0225921D03*
X0224928Y0216775D03*
X0232667Y0207277D03*
X0214375Y0222755D03*
X0295283Y0173859D03*
X0300559Y0168582D03*
X0300559Y0155567D03*
X0307243Y0148883D03*
X0310057Y0146069D03*
X0322369Y0164009D03*
X0272066Y0131294D03*
X0265382Y0137978D03*
X0233723Y0137978D03*
D31*
X0319174Y0181315D03*
X0319370Y0187024D03*
X0325276Y0186827D03*
X0325079Y0181118D03*
X0330985Y0181118D03*
X0331181Y0186630D03*
X0319174Y0198638D03*
X0322520Y0223047D03*
X0330197Y0223047D03*
M02*
