G75*
%MOIN*%
%OFA0B0*%
%FSLAX25Y25*%
%IPPOS*%
%LPD*%
%AMOC8*
5,1,8,0,0,1.08239X$1,22.5*
%
%ADD10C,0.00787*%
%ADD11C,0.00512*%
%ADD12C,0.00600*%
%ADD13C,0.00500*%
%ADD14C,0.00200*%
%ADD15C,0.00300*%
%ADD16C,0.00400*%
%ADD17C,0.00118*%
%ADD18C,0.00394*%
%ADD19C,0.00800*%
%ADD20R,0.01181X0.01181*%
%ADD21R,0.01181X0.00591*%
%ADD22C,0.00100*%
%ADD23C,0.00236*%
%ADD24R,0.00080X0.00080*%
%ADD25R,0.00320X0.00080*%
%ADD26R,0.00160X0.00080*%
%ADD27R,0.00480X0.00080*%
%ADD28R,0.00240X0.00080*%
%ADD29R,0.00720X0.00080*%
%ADD30R,0.00320X0.00080*%
%ADD31R,0.00880X0.00080*%
%ADD32R,0.01120X0.00080*%
%ADD33R,0.00400X0.00080*%
%ADD34R,0.01280X0.00080*%
%ADD35R,0.01520X0.00080*%
%ADD36R,0.00560X0.00080*%
%ADD37R,0.01680X0.00080*%
%ADD38R,0.00640X0.00080*%
%ADD39R,0.01920X0.00080*%
%ADD40R,0.00720X0.00080*%
%ADD41R,0.02080X0.00080*%
%ADD42R,0.00880X0.00080*%
%ADD43R,0.02320X0.00080*%
%ADD44R,0.00960X0.00080*%
%ADD45R,0.02480X0.00080*%
%ADD46R,0.01040X0.00080*%
%ADD47R,0.02640X0.00080*%
%ADD48R,0.01120X0.00080*%
%ADD49R,0.02800X0.00080*%
%ADD50R,0.01120X0.00080*%
%ADD51R,0.03040X0.00080*%
%ADD52R,0.01200X0.00080*%
%ADD53R,0.03200X0.00080*%
%ADD54R,0.01280X0.00080*%
%ADD55R,0.03360X0.00080*%
%ADD56R,0.01360X0.00080*%
%ADD57R,0.03600X0.00080*%
%ADD58R,0.01440X0.00080*%
%ADD59R,0.03760X0.00080*%
%ADD60R,0.01520X0.00080*%
%ADD61R,0.04000X0.00080*%
%ADD62R,0.01600X0.00080*%
%ADD63R,0.04160X0.00080*%
%ADD64R,0.01680X0.00080*%
%ADD65R,0.04400X0.00080*%
%ADD66R,0.01760X0.00080*%
%ADD67R,0.04560X0.00080*%
%ADD68R,0.01840X0.00080*%
%ADD69R,0.04800X0.00080*%
%ADD70R,0.01840X0.00080*%
%ADD71R,0.04960X0.00080*%
%ADD72R,0.01920X0.00080*%
%ADD73R,0.05200X0.00080*%
%ADD74R,0.02000X0.00080*%
%ADD75R,0.05360X0.00080*%
%ADD76R,0.02080X0.00080*%
%ADD77R,0.05600X0.00080*%
%ADD78R,0.02160X0.00080*%
%ADD79R,0.05760X0.00080*%
%ADD80R,0.06000X0.00080*%
%ADD81R,0.02400X0.00080*%
%ADD82R,0.06160X0.00080*%
%ADD83R,0.02480X0.00080*%
%ADD84R,0.06320X0.00080*%
%ADD85R,0.02560X0.00080*%
%ADD86R,0.06480X0.00080*%
%ADD87R,0.06720X0.00080*%
%ADD88R,0.02640X0.00080*%
%ADD89R,0.06640X0.00080*%
%ADD90R,0.02720X0.00080*%
%ADD91R,0.06240X0.00080*%
%ADD92R,0.05920X0.00080*%
%ADD93R,0.02880X0.00080*%
%ADD94R,0.02960X0.00080*%
%ADD95R,0.05280X0.00080*%
%ADD96R,0.03040X0.00080*%
%ADD97R,0.04960X0.00080*%
%ADD98R,0.03120X0.00080*%
%ADD99R,0.04640X0.00080*%
%ADD100R,0.04320X0.00080*%
%ADD101R,0.03280X0.00080*%
%ADD102R,0.03920X0.00080*%
%ADD103R,0.03280X0.00080*%
%ADD104R,0.03600X0.00080*%
%ADD105R,0.03440X0.00080*%
%ADD106R,0.02960X0.00080*%
%ADD107R,0.03520X0.00080*%
%ADD108R,0.02640X0.00080*%
%ADD109R,0.02320X0.00080*%
%ADD110R,0.03760X0.00080*%
%ADD111R,0.03840X0.00080*%
%ADD112R,0.01200X0.00080*%
%ADD113R,0.04000X0.00080*%
%ADD114R,0.04080X0.00080*%
%ADD115R,0.00560X0.00080*%
%ADD116R,0.04080X0.00080*%
%ADD117R,0.04240X0.00080*%
%ADD118R,0.04480X0.00080*%
%ADD119R,0.04560X0.00080*%
%ADD120R,0.04640X0.00080*%
%ADD121R,0.04720X0.00080*%
%ADD122R,0.04880X0.00080*%
%ADD123R,0.05040X0.00080*%
%ADD124R,0.05200X0.00080*%
%ADD125R,0.05440X0.00080*%
%ADD126R,0.05760X0.00080*%
%ADD127R,0.05920X0.00080*%
%ADD128R,0.06160X0.00080*%
%ADD129R,0.06400X0.00080*%
%ADD130R,0.06560X0.00080*%
%ADD131R,0.06800X0.00080*%
%ADD132R,0.07040X0.00080*%
%ADD133R,0.07200X0.00080*%
%ADD134R,0.07440X0.00080*%
%ADD135R,0.07680X0.00080*%
%ADD136R,0.07840X0.00080*%
%ADD137R,0.08080X0.00080*%
%ADD138R,0.08320X0.00080*%
%ADD139R,0.08480X0.00080*%
%ADD140R,0.08720X0.00080*%
%ADD141R,0.08960X0.00080*%
%ADD142R,0.09120X0.00080*%
%ADD143R,0.09360X0.00080*%
%ADD144R,0.09520X0.00080*%
%ADD145R,0.09840X0.00080*%
%ADD146R,0.10080X0.00080*%
%ADD147R,0.10240X0.00080*%
%ADD148R,0.10480X0.00080*%
%ADD149R,0.10720X0.00080*%
%ADD150R,0.10960X0.00080*%
%ADD151R,0.10880X0.00080*%
%ADD152R,0.10400X0.00080*%
%ADD153R,0.09920X0.00080*%
%ADD154R,0.09440X0.00080*%
%ADD155R,0.00240X0.00080*%
%ADD156R,0.08560X0.00080*%
%ADD157R,0.00720X0.00080*%
%ADD158R,0.08080X0.00080*%
%ADD159R,0.07600X0.00080*%
%ADD160R,0.07120X0.00080*%
%ADD161R,0.02160X0.00080*%
%ADD162R,0.06640X0.00080*%
%ADD163R,0.03040X0.00080*%
%ADD164R,0.05760X0.00080*%
%ADD165R,0.03520X0.00080*%
%ADD166R,0.05280X0.00080*%
%ADD167R,0.04880X0.00080*%
%ADD168R,0.04960X0.00080*%
%ADD169R,0.03920X0.00080*%
%ADD170R,0.06400X0.00080*%
%ADD171R,0.02560X0.00080*%
%ADD172R,0.06880X0.00080*%
%ADD173R,0.07360X0.00080*%
%ADD174R,0.01600X0.00080*%
%ADD175R,0.07760X0.00080*%
%ADD176R,0.08240X0.00080*%
%ADD177R,0.08720X0.00080*%
%ADD178R,0.00240X0.00080*%
%ADD179R,0.09200X0.00080*%
%ADD180R,0.09680X0.00080*%
%ADD181R,0.10160X0.00080*%
%ADD182R,0.10560X0.00080*%
%ADD183R,0.11120X0.00080*%
%ADD184R,0.11200X0.00080*%
%ADD185R,0.10880X0.00080*%
%ADD186R,0.10720X0.00080*%
%ADD187R,0.00320X0.00080*%
%ADD188R,0.10640X0.00080*%
%ADD189R,0.00400X0.00080*%
%ADD190R,0.00640X0.00080*%
%ADD191R,0.10400X0.00080*%
%ADD192R,0.00800X0.00080*%
%ADD193R,0.00240X0.00080*%
%ADD194R,0.10080X0.00080*%
%ADD195R,0.10000X0.00080*%
%ADD196R,0.00080X0.00080*%
%ADD197R,0.01680X0.00080*%
%ADD198R,0.09760X0.00080*%
%ADD199R,0.01840X0.00080*%
%ADD200R,0.00720X0.00080*%
%ADD201R,0.02080X0.00080*%
%ADD202R,0.00800X0.00080*%
%ADD203R,0.02240X0.00080*%
%ADD204R,0.09440X0.00080*%
%ADD205R,0.00480X0.00080*%
%ADD206R,0.02400X0.00080*%
%ADD207R,0.09280X0.00080*%
%ADD208R,0.01040X0.00080*%
%ADD209R,0.02720X0.00080*%
%ADD210R,0.09040X0.00080*%
%ADD211R,0.01280X0.00080*%
%ADD212R,0.02880X0.00080*%
%ADD213R,0.08960X0.00080*%
%ADD214R,0.08880X0.00080*%
%ADD215R,0.01440X0.00080*%
%ADD216R,0.03280X0.00080*%
%ADD217R,0.08800X0.00080*%
%ADD218R,0.00960X0.00080*%
%ADD219R,0.01520X0.00080*%
%ADD220R,0.08640X0.00080*%
%ADD221R,0.01760X0.00080*%
%ADD222R,0.08400X0.00080*%
%ADD223R,0.04080X0.00080*%
%ADD224R,0.08160X0.00080*%
%ADD225R,0.04320X0.00080*%
%ADD226R,0.02160X0.00080*%
%ADD227R,0.04480X0.00080*%
%ADD228R,0.08000X0.00080*%
%ADD229R,0.02240X0.00080*%
%ADD230R,0.04720X0.00080*%
%ADD231R,0.07840X0.00080*%
%ADD232R,0.00480X0.00080*%
%ADD233R,0.07760X0.00080*%
%ADD234R,0.05040X0.00080*%
%ADD235R,0.07680X0.00080*%
%ADD236R,0.07600X0.00080*%
%ADD237R,0.00160X0.00080*%
%ADD238R,0.07440X0.00080*%
%ADD239R,0.02800X0.00080*%
%ADD240R,0.05520X0.00080*%
%ADD241R,0.07360X0.00080*%
%ADD242R,0.02960X0.00080*%
%ADD243R,0.07120X0.00080*%
%ADD244R,0.03120X0.00080*%
%ADD245R,0.02880X0.00080*%
%ADD246R,0.06960X0.00080*%
%ADD247R,0.01120X0.00080*%
%ADD248R,0.03280X0.00080*%
%ADD249R,0.03440X0.00080*%
%ADD250R,0.03520X0.00080*%
%ADD251R,0.03360X0.00080*%
%ADD252R,0.03680X0.00080*%
%ADD253R,0.00880X0.00080*%
%ADD254R,0.03840X0.00080*%
%ADD255R,0.00960X0.00080*%
%ADD256R,0.03200X0.00080*%
%ADD257R,0.04160X0.00080*%
%ADD258R,0.05360X0.00080*%
%ADD259R,0.04240X0.00080*%
%ADD260R,0.01280X0.00080*%
%ADD261R,0.04560X0.00080*%
%ADD262R,0.03760X0.00080*%
%ADD263R,0.04640X0.00080*%
%ADD264R,0.01360X0.00080*%
%ADD265R,0.02720X0.00080*%
%ADD266R,0.02720X0.00080*%
%ADD267R,0.02480X0.00080*%
%ADD268R,0.05120X0.00080*%
%ADD269R,0.02560X0.00080*%
%ADD270R,0.05440X0.00080*%
%ADD271R,0.00480X0.00080*%
%ADD272R,0.05520X0.00080*%
%ADD273R,0.00080X0.00080*%
%ADD274R,0.05680X0.00080*%
%ADD275R,0.05840X0.00080*%
%ADD276R,0.06000X0.00080*%
%ADD277R,0.00880X0.00080*%
%ADD278R,0.02480X0.00080*%
%ADD279R,0.06160X0.00080*%
%ADD280R,0.06320X0.00080*%
%ADD281R,0.06320X0.00080*%
%ADD282R,0.00320X0.00080*%
%ADD283R,0.06480X0.00080*%
%ADD284R,0.04880X0.00080*%
%ADD285R,0.06480X0.00080*%
%ADD286R,0.06560X0.00080*%
%ADD287R,0.06640X0.00080*%
%ADD288R,0.04720X0.00080*%
%ADD289R,0.06720X0.00080*%
%ADD290R,0.04640X0.00080*%
%ADD291R,0.04480X0.00080*%
%ADD292R,0.04480X0.00080*%
%ADD293R,0.00080X0.00080*%
%ADD294R,0.04320X0.00080*%
%ADD295R,0.04320X0.00080*%
%ADD296R,0.04240X0.00080*%
%ADD297R,0.00560X0.00080*%
%ADD298R,0.03920X0.00080*%
%ADD299R,0.05680X0.00080*%
%ADD300R,0.03920X0.00080*%
%ADD301R,0.05680X0.00080*%
%ADD302R,0.03680X0.00080*%
%ADD303R,0.05600X0.00080*%
%ADD304R,0.05440X0.00080*%
%ADD305R,0.03440X0.00080*%
%ADD306R,0.03440X0.00080*%
%ADD307R,0.02240X0.00080*%
%ADD308R,0.02320X0.00080*%
%ADD309R,0.01360X0.00080*%
%ADD310R,0.01360X0.00080*%
%ADD311R,0.01840X0.00080*%
%ADD312R,0.03120X0.00080*%
%ADD313R,0.04800X0.00080*%
%ADD314R,0.02640X0.00080*%
%ADD315R,0.01040X0.00080*%
%ADD316R,0.01440X0.00080*%
%ADD317R,0.02000X0.00080*%
%ADD318R,0.05040X0.00080*%
%ADD319R,0.05120X0.00080*%
%ADD320R,0.05280X0.00080*%
%ADD321R,0.02320X0.00080*%
%ADD322R,0.02240X0.00080*%
%ADD323R,0.03760X0.00080*%
%ADD324R,0.02080X0.00080*%
%ADD325R,0.03680X0.00080*%
%ADD326R,0.04080X0.00080*%
%ADD327R,0.01440X0.00080*%
%ADD328R,0.01920X0.00080*%
%ADD329R,0.01920X0.00080*%
%ADD330R,0.00960X0.00080*%
%ADD331R,0.05680X0.00080*%
%ADD332R,0.00640X0.00080*%
%ADD333R,0.05840X0.00080*%
%ADD334R,0.00640X0.00080*%
%ADD335R,0.05920X0.00080*%
%ADD336R,0.06080X0.00080*%
%ADD337R,0.06080X0.00080*%
%ADD338R,0.06160X0.00080*%
%ADD339R,0.06240X0.00080*%
%ADD340R,0.06240X0.00080*%
%ADD341R,0.00560X0.00080*%
%ADD342R,0.02880X0.00080*%
%ADD343R,0.04720X0.00080*%
%ADD344R,0.05520X0.00080*%
%ADD345R,0.07280X0.00080*%
%ADD346R,0.07200X0.00080*%
%ADD347R,0.07040X0.00080*%
%ADD348R,0.06960X0.00080*%
%ADD349R,0.06720X0.00080*%
%ADD350R,0.06240X0.00080*%
%ADD351R,0.06080X0.00080*%
%ADD352R,0.05840X0.00080*%
%ADD353R,0.01040X0.00080*%
%ADD354R,0.05120X0.00080*%
%ADD355R,0.04400X0.00080*%
%ADD356R,0.01520X0.00080*%
%ADD357R,0.01680X0.00080*%
%ADD358R,0.07040X0.00080*%
%ADD359R,0.06800X0.00080*%
%ADD360R,0.04240X0.00080*%
%ADD361R,0.03840X0.00080*%
%ADD362R,0.03120X0.00080*%
%ADD363R,0.02160X0.00080*%
%ADD364R,0.03680X0.00080*%
%ADD365R,0.03040X0.00080*%
%ADD366R,0.03520X0.00080*%
%ADD367R,0.03840X0.00080*%
D10*
X0061496Y0018323D02*
X0073898Y0022850D01*
X0082953Y0013795D02*
X0078426Y0001394D01*
X0108740Y0014976D01*
X0112677Y0041748D01*
X0189055Y0118126D01*
X0177835Y0129543D02*
X0100866Y0052575D01*
X0075079Y0048638D01*
X0061496Y0018323D01*
X0073898Y0022851D02*
X0073749Y0023228D01*
X0073610Y0023608D01*
X0073480Y0023992D01*
X0073360Y0024378D01*
X0073249Y0024768D01*
X0073148Y0025160D01*
X0073056Y0025554D01*
X0072974Y0025951D01*
X0072902Y0026350D01*
X0072839Y0026750D01*
X0072786Y0027151D01*
X0072744Y0027554D01*
X0072711Y0027958D01*
X0072688Y0028362D01*
X0072674Y0028767D01*
X0072671Y0029172D01*
X0072678Y0029577D01*
X0072694Y0029981D01*
X0072721Y0030386D01*
X0072757Y0030789D01*
X0072804Y0031191D01*
X0072860Y0031592D01*
X0072926Y0031992D01*
X0073001Y0032390D01*
X0073087Y0032786D01*
X0073182Y0033179D01*
X0073287Y0033571D01*
X0073401Y0033959D01*
X0073525Y0034345D01*
X0073658Y0034727D01*
X0073800Y0035107D01*
X0073952Y0035482D01*
X0074113Y0035854D01*
X0074283Y0036221D01*
X0074462Y0036585D01*
X0074650Y0036944D01*
X0074846Y0037298D01*
X0075051Y0037647D01*
X0075265Y0037991D01*
X0075487Y0038330D01*
X0075717Y0038663D01*
X0075955Y0038991D01*
X0076201Y0039312D01*
X0076455Y0039628D01*
X0076717Y0039937D01*
X0076986Y0040239D01*
X0077263Y0040535D01*
X0077547Y0040824D01*
X0077837Y0041106D01*
X0078135Y0041381D01*
X0078439Y0041649D01*
X0078749Y0041908D01*
X0079066Y0042161D01*
X0079389Y0042405D01*
X0079718Y0042641D01*
X0080053Y0042870D01*
X0080393Y0043090D01*
X0080738Y0043301D01*
X0081088Y0043505D01*
X0081444Y0043699D01*
X0081804Y0043885D01*
X0082168Y0044061D01*
X0082537Y0044229D01*
X0082909Y0044388D01*
X0083286Y0044538D01*
X0083666Y0044678D01*
X0084049Y0044809D01*
X0084435Y0044931D01*
X0084824Y0045043D01*
X0085216Y0045145D01*
X0085610Y0045238D01*
X0086007Y0045321D01*
X0086405Y0045395D01*
X0086805Y0045458D01*
X0087206Y0045512D01*
X0087609Y0045556D01*
X0088013Y0045590D01*
X0088417Y0045614D01*
X0088822Y0045629D01*
X0089227Y0045633D01*
X0089632Y0045627D01*
X0090036Y0045612D01*
X0090441Y0045587D01*
X0090844Y0045551D01*
X0091246Y0045506D01*
X0091648Y0045451D01*
X0092048Y0045386D01*
X0092446Y0045312D01*
X0092842Y0045228D01*
X0093236Y0045134D01*
X0093627Y0045030D01*
X0094016Y0044917D01*
X0094402Y0044794D01*
X0094785Y0044662D01*
X0095164Y0044521D01*
X0095540Y0044370D01*
X0095913Y0044210D01*
X0096281Y0044041D01*
X0096645Y0043863D01*
X0097004Y0043677D01*
X0097359Y0043481D01*
X0097708Y0043277D01*
X0098053Y0043065D01*
X0098393Y0042844D01*
X0098726Y0042614D01*
X0099055Y0042377D01*
X0099377Y0042132D01*
X0099693Y0041879D01*
X0100003Y0041618D01*
X0100306Y0041349D01*
X0100603Y0041074D01*
X0100893Y0040791D01*
X0101176Y0040501D01*
X0101451Y0040204D01*
X0101720Y0039901D01*
X0101981Y0039591D01*
X0102234Y0039275D01*
X0102479Y0038953D01*
X0102716Y0038624D01*
X0102946Y0038291D01*
X0103167Y0037951D01*
X0103379Y0037606D01*
X0103583Y0037257D01*
X0103779Y0036902D01*
X0103965Y0036543D01*
X0104143Y0036179D01*
X0104312Y0035811D01*
X0104472Y0035438D01*
X0104623Y0035062D01*
X0104764Y0034683D01*
X0104896Y0034300D01*
X0105019Y0033914D01*
X0105132Y0033525D01*
X0105236Y0033134D01*
X0105330Y0032740D01*
X0105414Y0032344D01*
X0105488Y0031946D01*
X0105553Y0031546D01*
X0105608Y0031144D01*
X0105653Y0030742D01*
X0105689Y0030339D01*
X0105714Y0029934D01*
X0105729Y0029530D01*
X0105735Y0029125D01*
X0105731Y0028720D01*
X0105716Y0028315D01*
X0105692Y0027911D01*
X0105658Y0027507D01*
X0105614Y0027104D01*
X0105560Y0026703D01*
X0105497Y0026303D01*
X0105423Y0025905D01*
X0105340Y0025508D01*
X0105247Y0025114D01*
X0105145Y0024722D01*
X0105033Y0024333D01*
X0104911Y0023947D01*
X0104780Y0023564D01*
X0104640Y0023184D01*
X0104490Y0022807D01*
X0104331Y0022435D01*
X0104163Y0022066D01*
X0103987Y0021702D01*
X0103801Y0021342D01*
X0103607Y0020986D01*
X0103403Y0020636D01*
X0103192Y0020291D01*
X0102972Y0019951D01*
X0102743Y0019616D01*
X0102507Y0019287D01*
X0102263Y0018964D01*
X0102010Y0018647D01*
X0101751Y0018337D01*
X0101483Y0018033D01*
X0101208Y0017735D01*
X0100926Y0017445D01*
X0100637Y0017161D01*
X0100341Y0016884D01*
X0100039Y0016615D01*
X0099730Y0016353D01*
X0099414Y0016099D01*
X0099093Y0015853D01*
X0098765Y0015615D01*
X0098432Y0015385D01*
X0098093Y0015163D01*
X0097749Y0014949D01*
X0097400Y0014744D01*
X0097046Y0014548D01*
X0096687Y0014360D01*
X0096323Y0014181D01*
X0095956Y0014011D01*
X0095584Y0013850D01*
X0095209Y0013698D01*
X0094829Y0013556D01*
X0094447Y0013423D01*
X0094061Y0013299D01*
X0093673Y0013185D01*
X0093281Y0013080D01*
X0092888Y0012985D01*
X0092492Y0012899D01*
X0092094Y0012824D01*
X0091694Y0012758D01*
X0091293Y0012702D01*
X0090891Y0012655D01*
X0090488Y0012619D01*
X0090083Y0012592D01*
X0089679Y0012576D01*
X0089274Y0012569D01*
X0088869Y0012572D01*
X0088464Y0012586D01*
X0088060Y0012609D01*
X0087656Y0012642D01*
X0087253Y0012684D01*
X0086852Y0012737D01*
X0086452Y0012800D01*
X0086053Y0012872D01*
X0085656Y0012954D01*
X0085262Y0013046D01*
X0084870Y0013147D01*
X0084480Y0013258D01*
X0084094Y0013378D01*
X0083710Y0013508D01*
X0083330Y0013647D01*
X0082953Y0013796D01*
X0189055Y0279346D02*
X0191053Y0281021D01*
X0193092Y0282647D01*
X0195169Y0284221D01*
X0197285Y0285745D01*
X0199437Y0287216D01*
X0201625Y0288634D01*
X0203847Y0289997D01*
X0206102Y0291306D01*
X0208388Y0292559D01*
X0210704Y0293756D01*
X0213049Y0294896D01*
X0215421Y0295977D01*
X0217819Y0297001D01*
X0220241Y0297965D01*
X0222686Y0298869D01*
X0225153Y0299713D01*
X0227640Y0300496D01*
X0230145Y0301219D01*
X0232667Y0301879D01*
X0235204Y0302477D01*
X0237755Y0303013D01*
X0240319Y0303487D01*
X0242894Y0303897D01*
X0245478Y0304244D01*
X0248069Y0304527D01*
X0250667Y0304747D01*
X0253269Y0304903D01*
X0255875Y0304996D01*
X0258482Y0305024D01*
X0261089Y0304988D01*
X0263694Y0304889D01*
X0266296Y0304725D01*
X0268893Y0304498D01*
X0271484Y0304207D01*
X0274066Y0303853D01*
X0276640Y0303435D01*
X0279202Y0302955D01*
X0281752Y0302411D01*
X0284288Y0301806D01*
X0286808Y0301138D01*
X0289311Y0300409D01*
X0291795Y0299619D01*
X0294260Y0298767D01*
X0296702Y0297856D01*
X0299122Y0296885D01*
X0301517Y0295855D01*
X0303886Y0294767D01*
X0306227Y0293621D01*
X0308540Y0292417D01*
X0310823Y0291158D01*
X0313074Y0289843D01*
X0315292Y0288472D01*
X0317475Y0287048D01*
X0319624Y0285571D01*
X0321735Y0284042D01*
X0323808Y0282461D01*
X0325842Y0280830D01*
X0327835Y0279150D01*
X0404803Y0356118D01*
X0407953Y0382693D01*
X0438268Y0396276D01*
X0433740Y0383874D01*
X0442796Y0374819D02*
X0455197Y0379346D01*
X0441615Y0349031D01*
X0416221Y0345685D01*
X0338859Y0268126D01*
X0177835Y0268126D02*
X0176165Y0266131D01*
X0174543Y0264096D01*
X0172972Y0262022D01*
X0171453Y0259909D01*
X0169985Y0257761D01*
X0168570Y0255577D01*
X0167210Y0253359D01*
X0165903Y0251109D01*
X0164653Y0248827D01*
X0163458Y0246515D01*
X0162320Y0244175D01*
X0161240Y0241808D01*
X0160218Y0239415D01*
X0159255Y0236997D01*
X0158352Y0234557D01*
X0157508Y0232096D01*
X0156725Y0229614D01*
X0156002Y0227114D01*
X0155342Y0224598D01*
X0154742Y0222066D01*
X0154205Y0219520D01*
X0153731Y0216961D01*
X0153319Y0214392D01*
X0152970Y0211813D01*
X0152684Y0209227D01*
X0152461Y0206634D01*
X0152302Y0204037D01*
X0152207Y0201437D01*
X0152175Y0198835D01*
X0152207Y0196233D01*
X0152302Y0193633D01*
X0152461Y0191036D01*
X0152684Y0188443D01*
X0152970Y0185857D01*
X0153319Y0183278D01*
X0153731Y0180709D01*
X0154205Y0178150D01*
X0154742Y0175604D01*
X0155342Y0173072D01*
X0156002Y0170556D01*
X0156725Y0168056D01*
X0157508Y0165574D01*
X0158352Y0163113D01*
X0159255Y0160673D01*
X0160218Y0158255D01*
X0161240Y0155862D01*
X0162320Y0153495D01*
X0163458Y0151155D01*
X0164653Y0148843D01*
X0165903Y0146561D01*
X0167210Y0144311D01*
X0168570Y0142093D01*
X0169985Y0139909D01*
X0171453Y0137761D01*
X0172972Y0135648D01*
X0174543Y0133574D01*
X0176165Y0131539D01*
X0177835Y0129544D01*
X0189055Y0118126D02*
X0191048Y0116459D01*
X0193081Y0114842D01*
X0195153Y0113275D01*
X0197262Y0111758D01*
X0199408Y0110294D01*
X0201590Y0108883D01*
X0203805Y0107525D01*
X0206052Y0106222D01*
X0208331Y0104974D01*
X0210640Y0103782D01*
X0212976Y0102647D01*
X0215340Y0101570D01*
X0217730Y0100550D01*
X0220144Y0099589D01*
X0222581Y0098688D01*
X0225038Y0097846D01*
X0227516Y0097065D01*
X0230012Y0096344D01*
X0232525Y0095685D01*
X0235053Y0095087D01*
X0237596Y0094551D01*
X0240150Y0094078D01*
X0242715Y0093667D01*
X0245290Y0093319D01*
X0247872Y0093034D01*
X0250461Y0092812D01*
X0253054Y0092653D01*
X0255650Y0092558D01*
X0258248Y0092526D01*
X0260846Y0092558D01*
X0263442Y0092653D01*
X0266035Y0092812D01*
X0268624Y0093034D01*
X0271206Y0093319D01*
X0273781Y0093667D01*
X0276346Y0094078D01*
X0278900Y0094551D01*
X0281443Y0095087D01*
X0283971Y0095685D01*
X0286484Y0096344D01*
X0288980Y0097065D01*
X0291458Y0097846D01*
X0293915Y0098688D01*
X0296352Y0099589D01*
X0298766Y0100550D01*
X0301156Y0101570D01*
X0303520Y0102647D01*
X0305856Y0103782D01*
X0308165Y0104974D01*
X0310444Y0106222D01*
X0312691Y0107525D01*
X0314906Y0108883D01*
X0317088Y0110294D01*
X0319234Y0111758D01*
X0321343Y0113275D01*
X0323415Y0114842D01*
X0325448Y0116459D01*
X0327441Y0118126D01*
X0404607Y0041354D01*
X0408740Y0015173D01*
X0439055Y0001591D01*
X0434528Y0013992D01*
X0443583Y0023047D02*
X0455985Y0018520D01*
X0442402Y0048835D01*
X0416024Y0052181D01*
X0338859Y0129150D01*
X0340515Y0131112D01*
X0342124Y0133113D01*
X0343684Y0135153D01*
X0345193Y0137230D01*
X0346653Y0139343D01*
X0348060Y0141490D01*
X0349416Y0143671D01*
X0350718Y0145884D01*
X0351967Y0148128D01*
X0353160Y0150401D01*
X0354299Y0152702D01*
X0355381Y0155031D01*
X0356407Y0157385D01*
X0357376Y0159763D01*
X0358287Y0162163D01*
X0359140Y0164585D01*
X0359934Y0167027D01*
X0360668Y0169488D01*
X0361343Y0171965D01*
X0361958Y0174458D01*
X0362512Y0176965D01*
X0363006Y0179485D01*
X0363438Y0182016D01*
X0363809Y0184557D01*
X0364119Y0187106D01*
X0364367Y0189662D01*
X0364553Y0192222D01*
X0364677Y0194787D01*
X0364739Y0197354D01*
X0364739Y0199922D01*
X0364677Y0202489D01*
X0364553Y0205054D01*
X0364367Y0207614D01*
X0364119Y0210170D01*
X0363809Y0212719D01*
X0363438Y0215260D01*
X0363006Y0217791D01*
X0362512Y0220311D01*
X0361958Y0222818D01*
X0361343Y0225311D01*
X0360668Y0227788D01*
X0359934Y0230249D01*
X0359140Y0232691D01*
X0358287Y0235113D01*
X0357376Y0237513D01*
X0356407Y0239891D01*
X0355381Y0242245D01*
X0354299Y0244574D01*
X0353160Y0246875D01*
X0351967Y0249148D01*
X0350718Y0251392D01*
X0349416Y0253605D01*
X0348060Y0255786D01*
X0346653Y0257933D01*
X0345193Y0260046D01*
X0343684Y0262123D01*
X0342124Y0264163D01*
X0340515Y0266164D01*
X0338859Y0268126D01*
X0442795Y0374819D02*
X0442944Y0374442D01*
X0443083Y0374062D01*
X0443213Y0373678D01*
X0443333Y0373292D01*
X0443444Y0372902D01*
X0443545Y0372510D01*
X0443637Y0372116D01*
X0443719Y0371719D01*
X0443791Y0371320D01*
X0443854Y0370920D01*
X0443907Y0370519D01*
X0443949Y0370116D01*
X0443982Y0369712D01*
X0444005Y0369308D01*
X0444019Y0368903D01*
X0444022Y0368498D01*
X0444015Y0368093D01*
X0443999Y0367689D01*
X0443972Y0367284D01*
X0443936Y0366881D01*
X0443889Y0366479D01*
X0443833Y0366078D01*
X0443767Y0365678D01*
X0443692Y0365280D01*
X0443606Y0364884D01*
X0443511Y0364491D01*
X0443406Y0364099D01*
X0443292Y0363711D01*
X0443168Y0363325D01*
X0443035Y0362943D01*
X0442893Y0362563D01*
X0442741Y0362188D01*
X0442580Y0361816D01*
X0442410Y0361449D01*
X0442231Y0361085D01*
X0442043Y0360726D01*
X0441847Y0360372D01*
X0441642Y0360023D01*
X0441428Y0359679D01*
X0441206Y0359340D01*
X0440976Y0359007D01*
X0440738Y0358679D01*
X0440492Y0358358D01*
X0440238Y0358042D01*
X0439976Y0357733D01*
X0439707Y0357431D01*
X0439430Y0357135D01*
X0439146Y0356846D01*
X0438856Y0356564D01*
X0438558Y0356289D01*
X0438254Y0356021D01*
X0437944Y0355762D01*
X0437627Y0355509D01*
X0437304Y0355265D01*
X0436975Y0355029D01*
X0436640Y0354800D01*
X0436300Y0354580D01*
X0435955Y0354369D01*
X0435605Y0354165D01*
X0435249Y0353971D01*
X0434889Y0353785D01*
X0434525Y0353609D01*
X0434156Y0353441D01*
X0433784Y0353282D01*
X0433407Y0353132D01*
X0433027Y0352992D01*
X0432644Y0352861D01*
X0432258Y0352739D01*
X0431869Y0352627D01*
X0431477Y0352525D01*
X0431083Y0352432D01*
X0430686Y0352349D01*
X0430288Y0352275D01*
X0429888Y0352212D01*
X0429487Y0352158D01*
X0429084Y0352114D01*
X0428680Y0352080D01*
X0428276Y0352056D01*
X0427871Y0352041D01*
X0427466Y0352037D01*
X0427061Y0352043D01*
X0426657Y0352058D01*
X0426252Y0352083D01*
X0425849Y0352119D01*
X0425447Y0352164D01*
X0425045Y0352219D01*
X0424645Y0352284D01*
X0424247Y0352358D01*
X0423851Y0352442D01*
X0423457Y0352536D01*
X0423066Y0352640D01*
X0422677Y0352753D01*
X0422291Y0352876D01*
X0421908Y0353008D01*
X0421529Y0353149D01*
X0421153Y0353300D01*
X0420780Y0353460D01*
X0420412Y0353629D01*
X0420048Y0353807D01*
X0419689Y0353993D01*
X0419334Y0354189D01*
X0418985Y0354393D01*
X0418640Y0354605D01*
X0418300Y0354826D01*
X0417967Y0355056D01*
X0417638Y0355293D01*
X0417316Y0355538D01*
X0417000Y0355791D01*
X0416690Y0356052D01*
X0416387Y0356321D01*
X0416090Y0356596D01*
X0415800Y0356879D01*
X0415517Y0357169D01*
X0415242Y0357466D01*
X0414973Y0357769D01*
X0414712Y0358079D01*
X0414459Y0358395D01*
X0414214Y0358717D01*
X0413977Y0359046D01*
X0413747Y0359379D01*
X0413526Y0359719D01*
X0413314Y0360064D01*
X0413110Y0360413D01*
X0412914Y0360768D01*
X0412728Y0361127D01*
X0412550Y0361491D01*
X0412381Y0361859D01*
X0412221Y0362232D01*
X0412070Y0362608D01*
X0411929Y0362987D01*
X0411797Y0363370D01*
X0411674Y0363756D01*
X0411561Y0364145D01*
X0411457Y0364536D01*
X0411363Y0364930D01*
X0411279Y0365326D01*
X0411205Y0365724D01*
X0411140Y0366124D01*
X0411085Y0366526D01*
X0411040Y0366928D01*
X0411004Y0367331D01*
X0410979Y0367736D01*
X0410964Y0368140D01*
X0410958Y0368545D01*
X0410962Y0368950D01*
X0410977Y0369355D01*
X0411001Y0369759D01*
X0411035Y0370163D01*
X0411079Y0370566D01*
X0411133Y0370967D01*
X0411196Y0371367D01*
X0411270Y0371765D01*
X0411353Y0372162D01*
X0411446Y0372556D01*
X0411548Y0372948D01*
X0411660Y0373337D01*
X0411782Y0373723D01*
X0411913Y0374106D01*
X0412053Y0374486D01*
X0412203Y0374863D01*
X0412362Y0375235D01*
X0412530Y0375604D01*
X0412706Y0375968D01*
X0412892Y0376328D01*
X0413086Y0376684D01*
X0413290Y0377034D01*
X0413501Y0377379D01*
X0413721Y0377719D01*
X0413950Y0378054D01*
X0414186Y0378383D01*
X0414430Y0378706D01*
X0414683Y0379023D01*
X0414942Y0379333D01*
X0415210Y0379637D01*
X0415485Y0379935D01*
X0415767Y0380225D01*
X0416056Y0380509D01*
X0416352Y0380786D01*
X0416654Y0381055D01*
X0416963Y0381317D01*
X0417279Y0381571D01*
X0417600Y0381817D01*
X0417928Y0382055D01*
X0418261Y0382285D01*
X0418600Y0382507D01*
X0418944Y0382721D01*
X0419293Y0382926D01*
X0419647Y0383122D01*
X0420006Y0383310D01*
X0420370Y0383489D01*
X0420737Y0383659D01*
X0421109Y0383820D01*
X0421484Y0383972D01*
X0421864Y0384114D01*
X0422246Y0384247D01*
X0422632Y0384371D01*
X0423020Y0384485D01*
X0423412Y0384590D01*
X0423805Y0384685D01*
X0424201Y0384771D01*
X0424599Y0384846D01*
X0424999Y0384912D01*
X0425400Y0384968D01*
X0425802Y0385015D01*
X0426205Y0385051D01*
X0426610Y0385078D01*
X0427014Y0385094D01*
X0427419Y0385101D01*
X0427824Y0385098D01*
X0428229Y0385084D01*
X0428633Y0385061D01*
X0429037Y0385028D01*
X0429440Y0384986D01*
X0429841Y0384933D01*
X0430241Y0384870D01*
X0430640Y0384798D01*
X0431037Y0384716D01*
X0431431Y0384624D01*
X0431823Y0384523D01*
X0432213Y0384412D01*
X0432599Y0384292D01*
X0432983Y0384162D01*
X0433363Y0384023D01*
X0433740Y0383874D01*
X0188859Y0279740D02*
X0111890Y0356709D01*
X0108150Y0382102D01*
X0077835Y0395685D01*
X0082363Y0383283D01*
X0073307Y0374228D02*
X0060906Y0378756D01*
X0074489Y0348441D01*
X0100670Y0345488D01*
X0177835Y0268126D01*
X0073308Y0374228D02*
X0073159Y0373851D01*
X0073020Y0373471D01*
X0072890Y0373087D01*
X0072770Y0372701D01*
X0072659Y0372311D01*
X0072558Y0371919D01*
X0072466Y0371525D01*
X0072384Y0371128D01*
X0072312Y0370729D01*
X0072249Y0370329D01*
X0072196Y0369928D01*
X0072154Y0369525D01*
X0072121Y0369121D01*
X0072098Y0368717D01*
X0072084Y0368312D01*
X0072081Y0367907D01*
X0072088Y0367502D01*
X0072104Y0367098D01*
X0072131Y0366693D01*
X0072167Y0366290D01*
X0072214Y0365888D01*
X0072270Y0365487D01*
X0072336Y0365087D01*
X0072411Y0364689D01*
X0072497Y0364293D01*
X0072592Y0363900D01*
X0072697Y0363508D01*
X0072811Y0363120D01*
X0072935Y0362734D01*
X0073068Y0362352D01*
X0073210Y0361972D01*
X0073362Y0361597D01*
X0073523Y0361225D01*
X0073693Y0360858D01*
X0073872Y0360494D01*
X0074060Y0360135D01*
X0074256Y0359781D01*
X0074461Y0359432D01*
X0074675Y0359088D01*
X0074897Y0358749D01*
X0075127Y0358416D01*
X0075365Y0358088D01*
X0075611Y0357767D01*
X0075865Y0357451D01*
X0076127Y0357142D01*
X0076396Y0356840D01*
X0076673Y0356544D01*
X0076957Y0356255D01*
X0077247Y0355973D01*
X0077545Y0355698D01*
X0077849Y0355430D01*
X0078159Y0355171D01*
X0078476Y0354918D01*
X0078799Y0354674D01*
X0079128Y0354438D01*
X0079463Y0354209D01*
X0079803Y0353989D01*
X0080148Y0353778D01*
X0080498Y0353574D01*
X0080854Y0353380D01*
X0081214Y0353194D01*
X0081578Y0353018D01*
X0081947Y0352850D01*
X0082319Y0352691D01*
X0082696Y0352541D01*
X0083076Y0352401D01*
X0083459Y0352270D01*
X0083845Y0352148D01*
X0084234Y0352036D01*
X0084626Y0351934D01*
X0085020Y0351841D01*
X0085417Y0351758D01*
X0085815Y0351684D01*
X0086215Y0351621D01*
X0086616Y0351567D01*
X0087019Y0351523D01*
X0087423Y0351489D01*
X0087827Y0351465D01*
X0088232Y0351450D01*
X0088637Y0351446D01*
X0089042Y0351452D01*
X0089446Y0351467D01*
X0089851Y0351492D01*
X0090254Y0351528D01*
X0090656Y0351573D01*
X0091058Y0351628D01*
X0091458Y0351693D01*
X0091856Y0351767D01*
X0092252Y0351851D01*
X0092646Y0351945D01*
X0093037Y0352049D01*
X0093426Y0352162D01*
X0093812Y0352285D01*
X0094195Y0352417D01*
X0094574Y0352558D01*
X0094950Y0352709D01*
X0095323Y0352869D01*
X0095691Y0353038D01*
X0096055Y0353216D01*
X0096414Y0353402D01*
X0096769Y0353598D01*
X0097118Y0353802D01*
X0097463Y0354014D01*
X0097803Y0354235D01*
X0098136Y0354465D01*
X0098465Y0354702D01*
X0098787Y0354947D01*
X0099103Y0355200D01*
X0099413Y0355461D01*
X0099716Y0355730D01*
X0100013Y0356005D01*
X0100303Y0356288D01*
X0100586Y0356578D01*
X0100861Y0356875D01*
X0101130Y0357178D01*
X0101391Y0357488D01*
X0101644Y0357804D01*
X0101889Y0358126D01*
X0102126Y0358455D01*
X0102356Y0358788D01*
X0102577Y0359128D01*
X0102789Y0359473D01*
X0102993Y0359822D01*
X0103189Y0360177D01*
X0103375Y0360536D01*
X0103553Y0360900D01*
X0103722Y0361268D01*
X0103882Y0361641D01*
X0104033Y0362017D01*
X0104174Y0362396D01*
X0104306Y0362779D01*
X0104429Y0363165D01*
X0104542Y0363554D01*
X0104646Y0363945D01*
X0104740Y0364339D01*
X0104824Y0364735D01*
X0104898Y0365133D01*
X0104963Y0365533D01*
X0105018Y0365935D01*
X0105063Y0366337D01*
X0105099Y0366740D01*
X0105124Y0367145D01*
X0105139Y0367549D01*
X0105145Y0367954D01*
X0105141Y0368359D01*
X0105126Y0368764D01*
X0105102Y0369168D01*
X0105068Y0369572D01*
X0105024Y0369975D01*
X0104970Y0370376D01*
X0104907Y0370776D01*
X0104833Y0371174D01*
X0104750Y0371571D01*
X0104657Y0371965D01*
X0104555Y0372357D01*
X0104443Y0372746D01*
X0104321Y0373132D01*
X0104190Y0373515D01*
X0104050Y0373895D01*
X0103900Y0374272D01*
X0103741Y0374644D01*
X0103573Y0375013D01*
X0103397Y0375377D01*
X0103211Y0375737D01*
X0103017Y0376093D01*
X0102813Y0376443D01*
X0102602Y0376788D01*
X0102382Y0377128D01*
X0102153Y0377463D01*
X0101917Y0377792D01*
X0101673Y0378115D01*
X0101420Y0378432D01*
X0101161Y0378742D01*
X0100893Y0379046D01*
X0100618Y0379344D01*
X0100336Y0379634D01*
X0100047Y0379918D01*
X0099751Y0380195D01*
X0099449Y0380464D01*
X0099140Y0380726D01*
X0098824Y0380980D01*
X0098503Y0381226D01*
X0098175Y0381464D01*
X0097842Y0381694D01*
X0097503Y0381916D01*
X0097159Y0382130D01*
X0096810Y0382335D01*
X0096456Y0382531D01*
X0096097Y0382719D01*
X0095733Y0382898D01*
X0095366Y0383068D01*
X0094994Y0383229D01*
X0094619Y0383381D01*
X0094239Y0383523D01*
X0093857Y0383656D01*
X0093471Y0383780D01*
X0093083Y0383894D01*
X0092691Y0383999D01*
X0092298Y0384094D01*
X0091902Y0384180D01*
X0091504Y0384255D01*
X0091104Y0384321D01*
X0090703Y0384377D01*
X0090301Y0384424D01*
X0089898Y0384460D01*
X0089493Y0384487D01*
X0089089Y0384503D01*
X0088684Y0384510D01*
X0088279Y0384507D01*
X0087874Y0384493D01*
X0087470Y0384470D01*
X0087066Y0384437D01*
X0086663Y0384395D01*
X0086262Y0384342D01*
X0085862Y0384279D01*
X0085463Y0384207D01*
X0085066Y0384125D01*
X0084672Y0384033D01*
X0084280Y0383932D01*
X0083890Y0383821D01*
X0083504Y0383701D01*
X0083120Y0383571D01*
X0082740Y0383432D01*
X0082363Y0383283D01*
X0443583Y0023047D02*
X0443732Y0023424D01*
X0443871Y0023804D01*
X0444001Y0024188D01*
X0444121Y0024574D01*
X0444232Y0024964D01*
X0444333Y0025356D01*
X0444425Y0025750D01*
X0444507Y0026147D01*
X0444579Y0026546D01*
X0444642Y0026946D01*
X0444695Y0027347D01*
X0444737Y0027750D01*
X0444770Y0028154D01*
X0444793Y0028558D01*
X0444807Y0028963D01*
X0444810Y0029368D01*
X0444803Y0029773D01*
X0444787Y0030177D01*
X0444760Y0030582D01*
X0444724Y0030985D01*
X0444677Y0031387D01*
X0444621Y0031788D01*
X0444555Y0032188D01*
X0444480Y0032586D01*
X0444394Y0032982D01*
X0444299Y0033375D01*
X0444194Y0033767D01*
X0444080Y0034155D01*
X0443956Y0034541D01*
X0443823Y0034923D01*
X0443681Y0035303D01*
X0443529Y0035678D01*
X0443368Y0036050D01*
X0443198Y0036417D01*
X0443019Y0036781D01*
X0442831Y0037140D01*
X0442635Y0037494D01*
X0442430Y0037843D01*
X0442216Y0038187D01*
X0441994Y0038526D01*
X0441764Y0038859D01*
X0441526Y0039187D01*
X0441280Y0039508D01*
X0441026Y0039824D01*
X0440764Y0040133D01*
X0440495Y0040435D01*
X0440218Y0040731D01*
X0439934Y0041020D01*
X0439644Y0041302D01*
X0439346Y0041577D01*
X0439042Y0041845D01*
X0438732Y0042104D01*
X0438415Y0042357D01*
X0438092Y0042601D01*
X0437763Y0042837D01*
X0437428Y0043066D01*
X0437088Y0043286D01*
X0436743Y0043497D01*
X0436393Y0043701D01*
X0436037Y0043895D01*
X0435677Y0044081D01*
X0435313Y0044257D01*
X0434944Y0044425D01*
X0434572Y0044584D01*
X0434195Y0044734D01*
X0433815Y0044874D01*
X0433432Y0045005D01*
X0433046Y0045127D01*
X0432657Y0045239D01*
X0432265Y0045341D01*
X0431871Y0045434D01*
X0431474Y0045517D01*
X0431076Y0045591D01*
X0430676Y0045654D01*
X0430275Y0045708D01*
X0429872Y0045752D01*
X0429468Y0045786D01*
X0429064Y0045810D01*
X0428659Y0045825D01*
X0428254Y0045829D01*
X0427849Y0045823D01*
X0427445Y0045808D01*
X0427040Y0045783D01*
X0426637Y0045747D01*
X0426235Y0045702D01*
X0425833Y0045647D01*
X0425433Y0045582D01*
X0425035Y0045508D01*
X0424639Y0045424D01*
X0424245Y0045330D01*
X0423854Y0045226D01*
X0423465Y0045113D01*
X0423079Y0044990D01*
X0422696Y0044858D01*
X0422317Y0044717D01*
X0421941Y0044566D01*
X0421568Y0044406D01*
X0421200Y0044237D01*
X0420836Y0044059D01*
X0420477Y0043873D01*
X0420122Y0043677D01*
X0419773Y0043473D01*
X0419428Y0043261D01*
X0419088Y0043040D01*
X0418755Y0042810D01*
X0418426Y0042573D01*
X0418104Y0042328D01*
X0417788Y0042075D01*
X0417478Y0041814D01*
X0417175Y0041545D01*
X0416878Y0041270D01*
X0416588Y0040987D01*
X0416305Y0040697D01*
X0416030Y0040400D01*
X0415761Y0040097D01*
X0415500Y0039787D01*
X0415247Y0039471D01*
X0415002Y0039149D01*
X0414765Y0038820D01*
X0414535Y0038487D01*
X0414314Y0038147D01*
X0414102Y0037802D01*
X0413898Y0037453D01*
X0413702Y0037098D01*
X0413516Y0036739D01*
X0413338Y0036375D01*
X0413169Y0036007D01*
X0413009Y0035634D01*
X0412858Y0035258D01*
X0412717Y0034879D01*
X0412585Y0034496D01*
X0412462Y0034110D01*
X0412349Y0033721D01*
X0412245Y0033330D01*
X0412151Y0032936D01*
X0412067Y0032540D01*
X0411993Y0032142D01*
X0411928Y0031742D01*
X0411873Y0031340D01*
X0411828Y0030938D01*
X0411792Y0030535D01*
X0411767Y0030130D01*
X0411752Y0029726D01*
X0411746Y0029321D01*
X0411750Y0028916D01*
X0411765Y0028511D01*
X0411789Y0028107D01*
X0411823Y0027703D01*
X0411867Y0027300D01*
X0411921Y0026899D01*
X0411984Y0026499D01*
X0412058Y0026101D01*
X0412141Y0025704D01*
X0412234Y0025310D01*
X0412336Y0024918D01*
X0412448Y0024529D01*
X0412570Y0024143D01*
X0412701Y0023760D01*
X0412841Y0023380D01*
X0412991Y0023003D01*
X0413150Y0022631D01*
X0413318Y0022262D01*
X0413494Y0021898D01*
X0413680Y0021538D01*
X0413874Y0021182D01*
X0414078Y0020832D01*
X0414289Y0020487D01*
X0414509Y0020147D01*
X0414738Y0019812D01*
X0414974Y0019483D01*
X0415218Y0019160D01*
X0415471Y0018843D01*
X0415730Y0018533D01*
X0415998Y0018229D01*
X0416273Y0017931D01*
X0416555Y0017641D01*
X0416844Y0017357D01*
X0417140Y0017080D01*
X0417442Y0016811D01*
X0417751Y0016549D01*
X0418067Y0016295D01*
X0418388Y0016049D01*
X0418716Y0015811D01*
X0419049Y0015581D01*
X0419388Y0015359D01*
X0419732Y0015145D01*
X0420081Y0014940D01*
X0420435Y0014744D01*
X0420794Y0014556D01*
X0421158Y0014377D01*
X0421525Y0014207D01*
X0421897Y0014046D01*
X0422272Y0013894D01*
X0422652Y0013752D01*
X0423034Y0013619D01*
X0423420Y0013495D01*
X0423808Y0013381D01*
X0424200Y0013276D01*
X0424593Y0013181D01*
X0424989Y0013095D01*
X0425387Y0013020D01*
X0425787Y0012954D01*
X0426188Y0012898D01*
X0426590Y0012851D01*
X0426993Y0012815D01*
X0427398Y0012788D01*
X0427802Y0012772D01*
X0428207Y0012765D01*
X0428612Y0012768D01*
X0429017Y0012782D01*
X0429421Y0012805D01*
X0429825Y0012838D01*
X0430228Y0012880D01*
X0430629Y0012933D01*
X0431029Y0012996D01*
X0431428Y0013068D01*
X0431825Y0013150D01*
X0432219Y0013242D01*
X0432611Y0013343D01*
X0433001Y0013454D01*
X0433387Y0013574D01*
X0433771Y0013704D01*
X0434151Y0013843D01*
X0434528Y0013992D01*
D11*
X0404607Y0041354D02*
X0388587Y0025252D01*
X0393820Y0030875D02*
X0386023Y0037189D01*
X0385858Y0037023D02*
X0393820Y0030875D01*
X0387467Y0038640D01*
X0387631Y0038805D02*
X0385858Y0037023D01*
X0386384Y0037552D02*
X0393820Y0030875D01*
X0387106Y0038277D01*
X0387631Y0038805D02*
X0393820Y0030875D01*
X0317018Y0107286D01*
X0323371Y0099521D01*
X0323206Y0099356D02*
X0317018Y0107286D01*
X0324815Y0100973D01*
X0324979Y0101138D02*
X0323206Y0099356D01*
X0323732Y0099884D02*
X0317018Y0107286D01*
X0324454Y0100610D01*
X0324979Y0101138D02*
X0317018Y0107286D01*
X0311421Y0102024D02*
X0327441Y0118126D01*
X0177835Y0129543D02*
X0164139Y0143240D01*
X0169386Y0137630D02*
X0161605Y0131297D01*
X0161440Y0131462D02*
X0163218Y0129684D01*
X0169386Y0137630D01*
X0163053Y0129849D01*
X0162691Y0130211D02*
X0169386Y0137630D01*
X0161967Y0130935D01*
X0161440Y0131462D02*
X0169386Y0137630D01*
X0092780Y0061023D01*
X0100561Y0067357D01*
X0100726Y0067192D02*
X0098948Y0068969D01*
X0092780Y0061023D01*
X0099113Y0068804D01*
X0099475Y0068443D02*
X0092780Y0061023D01*
X0100199Y0067719D01*
X0100726Y0067192D02*
X0092780Y0061023D01*
X0087170Y0066271D02*
X0100866Y0052575D01*
X0327835Y0279150D02*
X0316698Y0290287D01*
X0322307Y0285039D02*
X0330088Y0291373D01*
X0330253Y0291208D02*
X0322307Y0285039D01*
X0328641Y0292820D01*
X0328476Y0292985D02*
X0330253Y0291208D01*
X0329726Y0291734D02*
X0322307Y0285039D01*
X0329003Y0292458D01*
X0328476Y0292985D02*
X0322307Y0285039D01*
X0398914Y0361646D01*
X0392581Y0353865D01*
X0392745Y0353700D02*
X0398914Y0361646D01*
X0391133Y0355312D01*
X0390968Y0355477D02*
X0392745Y0353700D01*
X0392219Y0354227D02*
X0398914Y0361646D01*
X0391495Y0354951D01*
X0390968Y0355477D02*
X0398914Y0361646D01*
X0393666Y0367255D02*
X0404803Y0356118D01*
X0203145Y0294027D02*
X0188859Y0279740D01*
X0197536Y0288779D02*
X0189755Y0295113D01*
X0189590Y0294948D02*
X0197536Y0288779D01*
X0191203Y0296560D01*
X0191367Y0296725D02*
X0189590Y0294948D01*
X0190117Y0295475D02*
X0197536Y0288779D01*
X0190841Y0296198D01*
X0191367Y0296725D02*
X0197536Y0288779D01*
X0120929Y0365386D01*
X0127263Y0357605D01*
X0127098Y0357440D02*
X0120929Y0365386D01*
X0128710Y0359053D01*
X0128875Y0359218D02*
X0127098Y0357440D01*
X0127625Y0357967D02*
X0120929Y0365386D01*
X0128348Y0358691D01*
X0128875Y0359218D02*
X0120929Y0365386D01*
X0126177Y0370995D02*
X0111890Y0356709D01*
D12*
X0152373Y0337565D02*
X0155392Y0334546D01*
X0156930Y0333008D02*
X0157685Y0333763D01*
X0163725Y0333763D01*
X0164479Y0334517D01*
X0161460Y0337537D01*
X0159167Y0338320D02*
X0159167Y0339830D01*
X0157657Y0341340D01*
X0156147Y0341340D01*
X0159167Y0338320D02*
X0158412Y0337565D01*
X0152373Y0337565D01*
X0161488Y0328450D02*
X0162243Y0327695D01*
X0162998Y0328450D01*
X0162243Y0329205D01*
X0161488Y0328450D01*
X0164522Y0326926D02*
X0164522Y0325416D01*
X0166032Y0323907D01*
X0167541Y0323907D01*
X0168296Y0324661D01*
X0168296Y0326171D01*
X0166032Y0328436D01*
X0164522Y0326926D01*
X0166032Y0328436D02*
X0169051Y0328436D01*
X0171316Y0327681D01*
X0172854Y0326143D02*
X0170589Y0323878D01*
X0172854Y0323123D01*
X0173609Y0322368D01*
X0173609Y0320859D01*
X0172099Y0319349D01*
X0170589Y0319349D01*
X0169080Y0320859D01*
X0169080Y0322368D01*
X0172854Y0326143D02*
X0175874Y0323123D01*
X0346353Y0321767D02*
X0346353Y0320257D01*
X0346353Y0321767D02*
X0347863Y0323277D01*
X0349373Y0323277D01*
X0350128Y0322522D01*
X0350128Y0316483D01*
X0353147Y0319502D01*
X0354686Y0321040D02*
X0353931Y0321795D01*
X0353931Y0327834D01*
X0353176Y0328589D01*
X0350156Y0325570D01*
X0358488Y0326353D02*
X0359243Y0327108D01*
X0359998Y0326353D01*
X0359243Y0325598D01*
X0358488Y0326353D01*
X0360767Y0328632D02*
X0362277Y0328632D01*
X0363787Y0330142D01*
X0363787Y0331651D01*
X0363032Y0332406D01*
X0361522Y0332406D01*
X0359257Y0330142D01*
X0360767Y0328632D01*
X0359257Y0330142D02*
X0359257Y0333161D01*
X0360012Y0335426D01*
X0361550Y0336964D02*
X0363815Y0334699D01*
X0364570Y0336964D01*
X0365325Y0337719D01*
X0366835Y0337719D01*
X0368344Y0336209D01*
X0368344Y0334699D01*
X0366835Y0333189D01*
X0365325Y0333189D01*
X0361550Y0336964D02*
X0364570Y0339983D01*
X0208622Y0150811D02*
X0202244Y0150811D01*
X0202244Y0150441D01*
X0202244Y0147268D02*
X0202244Y0146898D01*
X0202244Y0143528D02*
X0202244Y0143157D01*
X0202244Y0139984D02*
X0202244Y0139614D01*
X0208622Y0139614D01*
X0208622Y0139984D01*
X0208622Y0143157D02*
X0208622Y0147268D01*
X0208622Y0150441D02*
X0208622Y0150811D01*
X0138817Y0112193D02*
X0138817Y0110683D01*
X0137307Y0109174D01*
X0135797Y0109174D01*
X0134287Y0110683D02*
X0135042Y0112948D01*
X0135797Y0113703D01*
X0137307Y0113703D01*
X0138817Y0112193D01*
X0134287Y0110683D02*
X0132023Y0112948D01*
X0135042Y0115968D01*
X0130485Y0111410D02*
X0129730Y0109145D01*
X0129730Y0106126D01*
X0131994Y0108390D01*
X0133504Y0108390D01*
X0134259Y0107636D01*
X0134259Y0106126D01*
X0132749Y0104616D01*
X0131240Y0104616D01*
X0129730Y0106126D01*
X0129716Y0103092D02*
X0130470Y0102337D01*
X0129716Y0101582D01*
X0128961Y0102337D01*
X0129716Y0103092D01*
X0124403Y0103819D02*
X0124403Y0097780D01*
X0125158Y0097025D01*
X0123620Y0095487D02*
X0120600Y0092467D01*
X0120600Y0098506D01*
X0119845Y0099261D01*
X0118336Y0099261D01*
X0116826Y0097751D01*
X0116826Y0096241D01*
X0120629Y0101554D02*
X0123648Y0104574D01*
X0124403Y0103819D01*
X0348532Y0079546D02*
X0351562Y0076537D01*
X0353106Y0075004D02*
X0353858Y0075762D01*
X0359897Y0075783D01*
X0360649Y0076541D01*
X0357619Y0079550D01*
X0355324Y0080325D02*
X0355318Y0081835D01*
X0353803Y0083339D01*
X0352293Y0083334D01*
X0355324Y0080325D02*
X0354571Y0079567D01*
X0348532Y0079546D01*
X0357679Y0070463D02*
X0358437Y0069710D01*
X0359189Y0070468D01*
X0358432Y0071220D01*
X0357679Y0070463D01*
X0360718Y0068949D02*
X0360724Y0067440D01*
X0362239Y0065935D01*
X0363748Y0065940D01*
X0364501Y0066698D01*
X0364495Y0068208D01*
X0362223Y0070464D01*
X0360718Y0068949D01*
X0362223Y0070464D02*
X0365242Y0070475D01*
X0367510Y0069728D01*
X0369053Y0068195D02*
X0366796Y0065923D01*
X0369064Y0065176D01*
X0369821Y0064423D01*
X0369826Y0062914D01*
X0368322Y0061399D01*
X0366812Y0061393D01*
X0365297Y0062898D01*
X0365292Y0064408D01*
X0369053Y0068195D02*
X0372083Y0065186D01*
D13*
X0310537Y0124799D02*
X0307414Y0128044D01*
X0309036Y0129606D01*
X0310098Y0129585D01*
X0311139Y0128504D01*
X0311118Y0127442D01*
X0309496Y0125881D01*
X0308321Y0123709D02*
X0305719Y0126413D01*
X0305178Y0125893D02*
X0306260Y0126934D01*
X0308321Y0123709D02*
X0308301Y0122648D01*
X0307760Y0122127D01*
X0306699Y0122147D01*
X0313334Y0128532D02*
X0314395Y0128512D01*
X0315477Y0129553D01*
X0315497Y0130614D01*
X0314977Y0131155D01*
X0313915Y0131175D01*
X0312293Y0129614D01*
X0313334Y0128532D01*
X0312293Y0129614D02*
X0312333Y0131737D01*
X0312895Y0133319D01*
X0256428Y0110843D02*
X0253430Y0110670D01*
X0254929Y0110756D02*
X0254670Y0115253D01*
X0253257Y0113667D01*
X0251702Y0112826D02*
X0251615Y0114325D01*
X0250823Y0115031D01*
X0248575Y0114901D01*
X0248834Y0110405D01*
X0248748Y0111904D02*
X0250996Y0112033D01*
X0251702Y0112826D01*
X0246976Y0114809D02*
X0245477Y0114723D01*
X0246227Y0114766D02*
X0246443Y0111019D01*
X0245736Y0110226D01*
X0244987Y0110183D01*
X0244194Y0110889D01*
X0183778Y0145244D02*
X0183250Y0145777D01*
X0183273Y0150023D01*
X0182745Y0150557D01*
X0180610Y0148445D01*
X0180000Y0146785D02*
X0181056Y0145718D01*
X0181051Y0144656D01*
X0179450Y0143072D01*
X0180506Y0142005D02*
X0177338Y0145207D01*
X0178939Y0146791D01*
X0180000Y0146785D01*
X0176200Y0144080D02*
X0175133Y0143024D01*
X0175666Y0143552D02*
X0178306Y0140884D01*
X0178301Y0139823D01*
X0177767Y0139295D01*
X0176705Y0139300D01*
X0161072Y0173249D02*
X0159219Y0177354D01*
X0161271Y0178281D01*
X0162264Y0177905D01*
X0162882Y0176537D01*
X0162507Y0175544D01*
X0160454Y0174617D01*
X0158620Y0172965D02*
X0157075Y0176386D01*
X0156391Y0176077D02*
X0157759Y0176695D01*
X0158620Y0172965D02*
X0158245Y0171972D01*
X0157560Y0171663D01*
X0156567Y0172039D01*
X0163724Y0178564D02*
X0164099Y0179557D01*
X0165467Y0180175D01*
X0166460Y0179800D01*
X0166769Y0179116D01*
X0166394Y0178123D01*
X0167387Y0177748D01*
X0167696Y0177063D01*
X0167321Y0176070D01*
X0165952Y0175453D01*
X0164959Y0175828D01*
X0165710Y0177814D02*
X0166394Y0178123D01*
X0187502Y0245302D02*
X0188544Y0245509D01*
X0188961Y0246132D01*
X0188755Y0247174D01*
X0185636Y0249262D01*
X0185219Y0248638D02*
X0186054Y0249885D01*
X0186945Y0251216D02*
X0188197Y0253087D01*
X0189239Y0253294D01*
X0190486Y0252459D01*
X0190693Y0251417D01*
X0189440Y0249546D01*
X0190687Y0248711D02*
X0186945Y0251216D01*
X0189506Y0255042D02*
X0191377Y0253789D01*
X0191589Y0255454D01*
X0192006Y0256078D01*
X0193047Y0256284D01*
X0194295Y0255449D01*
X0194501Y0254408D01*
X0193666Y0253160D01*
X0192625Y0252954D01*
X0189506Y0255042D02*
X0191176Y0257537D01*
X0242559Y0276906D02*
X0245315Y0276906D01*
X0258307Y0277024D02*
X0261063Y0277024D01*
X0274452Y0277341D02*
X0277208Y0277336D01*
X0291181Y0277260D02*
X0293937Y0277260D01*
X0295004Y0286570D02*
X0295004Y0291074D01*
X0297256Y0291074D01*
X0298006Y0290323D01*
X0298006Y0288822D01*
X0297256Y0288071D01*
X0295004Y0288071D01*
X0292652Y0287320D02*
X0292652Y0291074D01*
X0291901Y0291074D02*
X0293403Y0291074D01*
X0292652Y0287320D02*
X0291901Y0286570D01*
X0291151Y0286570D01*
X0290400Y0287320D01*
X0299608Y0286570D02*
X0302610Y0289572D01*
X0302610Y0290323D01*
X0301860Y0291074D01*
X0300358Y0291074D01*
X0299608Y0290323D01*
X0299608Y0286570D02*
X0302610Y0286570D01*
X0312116Y0267226D02*
X0311996Y0266171D01*
X0312463Y0265584D01*
X0313518Y0265464D01*
X0316455Y0267800D01*
X0315988Y0268388D02*
X0316923Y0267213D01*
X0317919Y0265960D02*
X0314395Y0263156D01*
X0315570Y0264090D02*
X0316971Y0262328D01*
X0318026Y0262208D01*
X0319201Y0263142D01*
X0319321Y0264197D01*
X0317919Y0265960D01*
X0319023Y0260955D02*
X0320892Y0258605D01*
X0318663Y0257790D02*
X0322187Y0260594D01*
X0319023Y0260955D01*
X0322284Y0200272D02*
X0322284Y0195350D01*
X0329037Y0198323D02*
X0329039Y0198349D01*
X0329045Y0198375D01*
X0329054Y0198399D01*
X0329068Y0198422D01*
X0329084Y0198443D01*
X0329103Y0198461D01*
X0329125Y0198475D01*
X0329149Y0198487D01*
X0329174Y0198495D01*
X0329200Y0198499D01*
X0329226Y0198499D01*
X0329252Y0198495D01*
X0329277Y0198487D01*
X0329301Y0198475D01*
X0329323Y0198461D01*
X0329342Y0198443D01*
X0329358Y0198422D01*
X0329372Y0198399D01*
X0329381Y0198375D01*
X0329387Y0198349D01*
X0329389Y0198323D01*
X0329387Y0198297D01*
X0329381Y0198271D01*
X0329372Y0198247D01*
X0329358Y0198224D01*
X0329342Y0198203D01*
X0329323Y0198185D01*
X0329301Y0198171D01*
X0329277Y0198159D01*
X0329252Y0198151D01*
X0329226Y0198147D01*
X0329200Y0198147D01*
X0329174Y0198151D01*
X0329149Y0198159D01*
X0329125Y0198171D01*
X0329103Y0198185D01*
X0329084Y0198203D01*
X0329068Y0198224D01*
X0329054Y0198247D01*
X0329045Y0198271D01*
X0329039Y0198297D01*
X0329037Y0198323D01*
X0330158Y0200272D02*
X0330158Y0195350D01*
D14*
X0330220Y0191445D02*
X0330220Y0189643D01*
X0330820Y0189643D02*
X0329619Y0189643D01*
X0328979Y0189944D02*
X0328678Y0189643D01*
X0327777Y0189643D01*
X0327777Y0191445D01*
X0328678Y0191445D01*
X0328979Y0191145D01*
X0328979Y0190844D01*
X0328678Y0190544D01*
X0327777Y0190544D01*
X0328678Y0190544D02*
X0328979Y0190244D01*
X0328979Y0189944D01*
X0329619Y0190844D02*
X0330220Y0191445D01*
X0222499Y0190726D02*
X0222499Y0192201D01*
X0221319Y0192201D02*
X0221319Y0190726D01*
X0221614Y0190431D01*
X0222204Y0190431D01*
X0222499Y0190726D01*
X0220687Y0190431D02*
X0220687Y0192201D01*
X0220097Y0191611D01*
X0219507Y0192201D01*
X0219507Y0190431D01*
X0218888Y0190431D02*
X0218298Y0190431D01*
X0218593Y0190431D02*
X0218593Y0192201D01*
X0218298Y0192201D02*
X0218888Y0192201D01*
D15*
X0223001Y0136483D02*
X0222394Y0135876D01*
X0222394Y0133450D01*
X0223001Y0132843D01*
X0224214Y0132843D01*
X0224821Y0133450D01*
X0226020Y0132843D02*
X0228446Y0132843D01*
X0227233Y0132843D02*
X0227233Y0136483D01*
X0226020Y0135270D01*
X0224821Y0135876D02*
X0224214Y0136483D01*
X0223001Y0136483D01*
X0290664Y0227465D02*
X0290664Y0231105D01*
X0292484Y0231105D01*
X0293091Y0230498D01*
X0293091Y0229285D01*
X0292484Y0228678D01*
X0290664Y0228678D01*
X0291877Y0228678D02*
X0293091Y0227465D01*
X0294289Y0228072D02*
X0294896Y0227465D01*
X0296109Y0227465D01*
X0296716Y0228072D01*
X0296716Y0229285D01*
X0296109Y0229892D01*
X0295502Y0229892D01*
X0294289Y0229285D01*
X0294289Y0231105D01*
X0296716Y0231105D01*
D16*
X0304113Y0240531D02*
X0307183Y0240531D01*
X0307950Y0241298D01*
X0307950Y0242833D01*
X0307183Y0243600D01*
X0307183Y0245135D02*
X0305648Y0245135D01*
X0305648Y0247437D01*
X0306415Y0248204D01*
X0307183Y0248204D01*
X0307950Y0247437D01*
X0307950Y0245902D01*
X0307183Y0245135D01*
X0305648Y0245135D02*
X0304113Y0246669D01*
X0303346Y0248204D01*
X0304113Y0243600D02*
X0303346Y0242833D01*
X0303346Y0241298D01*
X0304113Y0240531D01*
X0310000Y0223977D02*
X0312302Y0221675D01*
X0312302Y0224744D01*
X0314603Y0223977D02*
X0310000Y0223977D01*
X0310767Y0220140D02*
X0310000Y0219373D01*
X0310000Y0217838D01*
X0310767Y0217071D01*
X0313836Y0217071D01*
X0314603Y0217838D01*
X0314603Y0219373D01*
X0313836Y0220140D01*
X0329787Y0234126D02*
X0329787Y0236428D01*
X0330554Y0237195D01*
X0332089Y0237195D01*
X0332856Y0236428D01*
X0332856Y0234126D01*
X0332856Y0235661D02*
X0334391Y0237195D01*
X0334391Y0238730D02*
X0334391Y0241799D01*
X0334391Y0240265D02*
X0329787Y0240265D01*
X0331322Y0238730D01*
X0329787Y0234126D02*
X0334391Y0234126D01*
X0338680Y0218046D02*
X0337913Y0217279D01*
X0337913Y0215744D01*
X0338680Y0214977D01*
X0338680Y0213443D02*
X0337913Y0212675D01*
X0337913Y0211141D01*
X0338680Y0210373D01*
X0341750Y0210373D01*
X0342517Y0211141D01*
X0342517Y0212675D01*
X0341750Y0213443D01*
X0341750Y0214977D02*
X0342517Y0215744D01*
X0342517Y0217279D01*
X0341750Y0218046D01*
X0340982Y0218046D01*
X0340215Y0217279D01*
X0340215Y0216512D01*
X0340215Y0217279D02*
X0339448Y0218046D01*
X0338680Y0218046D01*
X0335445Y0165387D02*
X0332376Y0165387D01*
X0330841Y0164619D02*
X0330841Y0163085D01*
X0330074Y0162317D01*
X0327772Y0162317D01*
X0327772Y0160783D02*
X0327772Y0165387D01*
X0330074Y0165387D01*
X0330841Y0164619D01*
X0329307Y0162317D02*
X0330841Y0160783D01*
X0332376Y0160783D02*
X0332376Y0161550D01*
X0335445Y0164619D01*
X0335445Y0165387D01*
X0317477Y0161418D02*
X0317477Y0159883D01*
X0316710Y0159116D01*
X0315176Y0159116D02*
X0314408Y0160650D01*
X0314408Y0161418D01*
X0315176Y0162185D01*
X0316710Y0162185D01*
X0317477Y0161418D01*
X0315176Y0159116D02*
X0312874Y0159116D01*
X0312874Y0162185D01*
X0313641Y0157581D02*
X0312874Y0156814D01*
X0312874Y0155279D01*
X0313641Y0154512D01*
X0316710Y0154512D01*
X0317477Y0155279D01*
X0317477Y0156814D01*
X0316710Y0157581D01*
X0320485Y0140450D02*
X0320485Y0135846D01*
X0323555Y0135846D01*
X0325089Y0135846D02*
X0325089Y0140450D01*
X0328159Y0140450D01*
X0329693Y0140450D02*
X0329693Y0135846D01*
X0331995Y0135846D01*
X0332763Y0136613D01*
X0332763Y0139682D01*
X0331995Y0140450D01*
X0329693Y0140450D01*
X0326624Y0138148D02*
X0325089Y0138148D01*
X0325089Y0135846D02*
X0328159Y0135846D01*
X0334297Y0135846D02*
X0337366Y0138915D01*
X0337366Y0139682D01*
X0336599Y0140450D01*
X0335064Y0140450D01*
X0334297Y0139682D01*
X0334297Y0135846D02*
X0337366Y0135846D01*
X0302755Y0136101D02*
X0301988Y0135334D01*
X0300453Y0135334D01*
X0299686Y0136101D01*
X0299686Y0136868D01*
X0300453Y0137636D01*
X0301988Y0137636D01*
X0302755Y0136868D01*
X0302755Y0136101D01*
X0301988Y0137636D02*
X0302755Y0138403D01*
X0302755Y0139170D01*
X0301988Y0139938D01*
X0300453Y0139938D01*
X0299686Y0139170D01*
X0299686Y0138403D01*
X0300453Y0137636D01*
X0298152Y0139170D02*
X0297384Y0139938D01*
X0295850Y0139938D01*
X0295082Y0139170D01*
X0295082Y0136101D01*
X0295850Y0135334D01*
X0297384Y0135334D01*
X0298152Y0136101D01*
X0284055Y0138580D02*
X0280985Y0135511D01*
X0280985Y0134743D01*
X0279451Y0135511D02*
X0278683Y0134743D01*
X0277149Y0134743D01*
X0276381Y0135511D01*
X0276381Y0138580D01*
X0277149Y0139347D01*
X0278683Y0139347D01*
X0279451Y0138580D01*
X0280985Y0139347D02*
X0284055Y0139347D01*
X0284055Y0138580D01*
X0281178Y0128635D02*
X0281178Y0125565D01*
X0281178Y0124031D02*
X0281178Y0120961D01*
X0281178Y0122496D02*
X0276574Y0122496D01*
X0278109Y0120961D01*
X0277342Y0119427D02*
X0276574Y0118659D01*
X0276574Y0117125D01*
X0277342Y0116357D01*
X0280411Y0116357D01*
X0281178Y0117125D01*
X0281178Y0118659D01*
X0280411Y0119427D01*
X0278109Y0125565D02*
X0276574Y0127100D01*
X0281178Y0127100D01*
X0258626Y0133838D02*
X0255557Y0133838D01*
X0257092Y0133838D02*
X0257092Y0138442D01*
X0255557Y0136907D01*
X0254022Y0137674D02*
X0253255Y0138442D01*
X0250953Y0138442D01*
X0250953Y0133838D01*
X0253255Y0133838D01*
X0254022Y0134605D01*
X0254022Y0137674D01*
X0249418Y0138442D02*
X0246349Y0138442D01*
X0246349Y0133838D01*
X0249418Y0133838D01*
X0247884Y0136140D02*
X0246349Y0136140D01*
X0244815Y0133838D02*
X0241745Y0133838D01*
X0241745Y0138442D01*
X0244977Y0159405D02*
X0244977Y0164009D01*
X0247279Y0164009D01*
X0248046Y0163241D01*
X0248046Y0161707D01*
X0247279Y0160939D01*
X0244977Y0160939D01*
X0246511Y0160939D02*
X0248046Y0159405D01*
X0249581Y0160172D02*
X0250348Y0159405D01*
X0251883Y0159405D01*
X0252650Y0160172D01*
X0252650Y0160939D01*
X0251883Y0161707D01*
X0249581Y0161707D01*
X0249581Y0160172D01*
X0249581Y0161707D02*
X0251115Y0163241D01*
X0252650Y0164009D01*
X0234847Y0163639D02*
X0234079Y0162872D01*
X0234847Y0162105D01*
X0234847Y0161337D01*
X0234079Y0160570D01*
X0232545Y0160570D01*
X0231777Y0161337D01*
X0230243Y0160570D02*
X0227174Y0160570D01*
X0228708Y0160570D02*
X0228708Y0165174D01*
X0227174Y0163639D01*
X0225639Y0164407D02*
X0224872Y0165174D01*
X0223337Y0165174D01*
X0222570Y0164407D01*
X0222570Y0161337D01*
X0223337Y0160570D01*
X0224872Y0160570D01*
X0225639Y0161337D01*
X0231777Y0164407D02*
X0232545Y0165174D01*
X0234079Y0165174D01*
X0234847Y0164407D01*
X0234847Y0163639D01*
X0234079Y0162872D02*
X0233312Y0162872D01*
X0235220Y0181200D02*
X0236754Y0181200D01*
X0237522Y0181967D01*
X0239056Y0181200D02*
X0242126Y0181200D01*
X0240591Y0181200D02*
X0240591Y0185804D01*
X0239056Y0184269D01*
X0237522Y0185037D02*
X0236754Y0185804D01*
X0235220Y0185804D01*
X0234452Y0185037D01*
X0234452Y0181967D01*
X0235220Y0181200D01*
X0237070Y0188026D02*
X0237070Y0190328D01*
X0237838Y0191095D01*
X0239372Y0191095D01*
X0240140Y0190328D01*
X0240140Y0188026D01*
X0241674Y0188026D02*
X0237070Y0188026D01*
X0240140Y0189561D02*
X0241674Y0191095D01*
X0241674Y0192630D02*
X0241674Y0195699D01*
X0241674Y0194165D02*
X0237070Y0194165D01*
X0238605Y0192630D01*
X0238605Y0197234D02*
X0237070Y0198768D01*
X0241674Y0198768D01*
X0241674Y0197234D02*
X0241674Y0200303D01*
X0241352Y0210995D02*
X0236748Y0210995D01*
X0236748Y0213297D01*
X0237515Y0214065D01*
X0239050Y0214065D01*
X0239817Y0213297D01*
X0239817Y0210995D01*
X0239817Y0212530D02*
X0241352Y0214065D01*
X0241352Y0215599D02*
X0241352Y0218668D01*
X0241352Y0217134D02*
X0236748Y0217134D01*
X0238282Y0215599D01*
X0237515Y0220203D02*
X0236748Y0220970D01*
X0236748Y0222505D01*
X0237515Y0223272D01*
X0240584Y0220203D01*
X0241352Y0220970D01*
X0241352Y0222505D01*
X0240584Y0223272D01*
X0237515Y0223272D01*
X0237515Y0220203D02*
X0240584Y0220203D01*
X0240604Y0227043D02*
X0243674Y0230112D01*
X0243674Y0230879D01*
X0242906Y0231646D01*
X0241372Y0231646D01*
X0240604Y0230879D01*
X0239070Y0230879D02*
X0239070Y0229344D01*
X0238302Y0228577D01*
X0236000Y0228577D01*
X0236000Y0227043D02*
X0236000Y0231646D01*
X0238302Y0231646D01*
X0239070Y0230879D01*
X0237535Y0228577D02*
X0239070Y0227043D01*
X0240604Y0227043D02*
X0243674Y0227043D01*
X0259229Y0230586D02*
X0259229Y0235190D01*
X0261531Y0235190D01*
X0262298Y0234422D01*
X0262298Y0232888D01*
X0261531Y0232120D01*
X0259229Y0232120D01*
X0260763Y0232120D02*
X0262298Y0230586D01*
X0263833Y0231353D02*
X0264600Y0230586D01*
X0266135Y0230586D01*
X0266902Y0231353D01*
X0266902Y0232120D01*
X0266135Y0232888D01*
X0265367Y0232888D01*
X0266135Y0232888D02*
X0266902Y0233655D01*
X0266902Y0234422D01*
X0266135Y0235190D01*
X0264600Y0235190D01*
X0263833Y0234422D01*
X0269326Y0235001D02*
X0269326Y0230397D01*
X0269326Y0231931D02*
X0271628Y0231931D01*
X0272396Y0232699D01*
X0272396Y0234233D01*
X0271628Y0235001D01*
X0269326Y0235001D01*
X0270861Y0231931D02*
X0272396Y0230397D01*
X0273930Y0232699D02*
X0277000Y0232699D01*
X0276232Y0235001D02*
X0273930Y0232699D01*
X0276232Y0230397D02*
X0276232Y0235001D01*
X0246729Y0185804D02*
X0245195Y0185037D01*
X0243660Y0183502D01*
X0245962Y0183502D01*
X0246729Y0182735D01*
X0246729Y0181967D01*
X0245962Y0181200D01*
X0244427Y0181200D01*
X0243660Y0181967D01*
X0243660Y0183502D01*
X0228029Y0185233D02*
X0224959Y0182164D01*
X0224959Y0181397D01*
X0223425Y0181397D02*
X0220355Y0181397D01*
X0221890Y0181397D02*
X0221890Y0186001D01*
X0220355Y0184466D01*
X0218821Y0185233D02*
X0218053Y0186001D01*
X0216519Y0186001D01*
X0215752Y0185233D01*
X0215752Y0182164D01*
X0216519Y0181397D01*
X0218053Y0181397D01*
X0218821Y0182164D01*
X0224959Y0186001D02*
X0228029Y0186001D01*
X0228029Y0185233D01*
X0210627Y0170588D02*
X0209860Y0171355D01*
X0208325Y0171355D01*
X0207558Y0170588D01*
X0210627Y0170588D02*
X0210627Y0169820D01*
X0207558Y0166751D01*
X0210627Y0166751D01*
X0206023Y0166751D02*
X0202954Y0166751D01*
X0204488Y0166751D02*
X0204488Y0171355D01*
X0202954Y0169820D01*
X0201419Y0170588D02*
X0200652Y0171355D01*
X0199117Y0171355D01*
X0198350Y0170588D01*
X0198350Y0167518D01*
X0199117Y0166751D01*
X0200652Y0166751D01*
X0201419Y0167518D01*
X0190844Y0194468D02*
X0191611Y0195235D01*
X0191611Y0196770D01*
X0190844Y0197537D01*
X0191611Y0199072D02*
X0191611Y0202141D01*
X0191611Y0200606D02*
X0187007Y0200606D01*
X0188542Y0199072D01*
X0187775Y0197537D02*
X0187007Y0196770D01*
X0187007Y0195235D01*
X0187775Y0194468D01*
X0190844Y0194468D01*
X0190844Y0203676D02*
X0191611Y0204443D01*
X0191611Y0205978D01*
X0190844Y0206745D01*
X0189309Y0206745D01*
X0188542Y0205978D01*
X0188542Y0205210D01*
X0189309Y0203676D01*
X0187007Y0203676D01*
X0187007Y0206745D01*
X0188365Y0213877D02*
X0191435Y0213877D01*
X0192202Y0214644D01*
X0192202Y0216179D01*
X0191435Y0216946D01*
X0192202Y0218481D02*
X0192202Y0221550D01*
X0192202Y0220016D02*
X0187598Y0220016D01*
X0189133Y0218481D01*
X0188365Y0216946D02*
X0187598Y0216179D01*
X0187598Y0214644D01*
X0188365Y0213877D01*
X0189900Y0223085D02*
X0189900Y0226154D01*
X0192202Y0225387D02*
X0187598Y0225387D01*
X0189900Y0223085D01*
X0207720Y0228542D02*
X0208487Y0227775D01*
X0210022Y0227775D01*
X0210789Y0228542D01*
X0212324Y0228542D02*
X0213091Y0227775D01*
X0214626Y0227775D01*
X0215393Y0228542D01*
X0215393Y0231611D01*
X0214626Y0232379D01*
X0213091Y0232379D01*
X0212324Y0231611D01*
X0212324Y0230844D01*
X0213091Y0230077D01*
X0215393Y0230077D01*
X0210789Y0231611D02*
X0210022Y0232379D01*
X0208487Y0232379D01*
X0207720Y0231611D01*
X0207720Y0228542D01*
X0210850Y0256318D02*
X0210082Y0257085D01*
X0210082Y0260155D01*
X0210850Y0260922D01*
X0212384Y0260922D01*
X0213152Y0260155D01*
X0214686Y0259387D02*
X0216221Y0260922D01*
X0216221Y0256318D01*
X0217755Y0256318D02*
X0214686Y0256318D01*
X0213152Y0257085D02*
X0212384Y0256318D01*
X0210850Y0256318D01*
X0219290Y0257085D02*
X0219290Y0260155D01*
X0220057Y0260922D01*
X0221592Y0260922D01*
X0222359Y0260155D01*
X0219290Y0257085D01*
X0220057Y0256318D01*
X0221592Y0256318D01*
X0222359Y0257085D01*
X0222359Y0260155D01*
D17*
X0230945Y0215055D02*
X0210276Y0215055D01*
X0210276Y0194189D01*
X0230945Y0194189D01*
X0230945Y0215055D01*
D18*
X0227520Y0211709D02*
X0227522Y0211727D01*
X0227528Y0211743D01*
X0227537Y0211758D01*
X0227550Y0211771D01*
X0227565Y0211780D01*
X0227581Y0211786D01*
X0227599Y0211788D01*
X0227617Y0211786D01*
X0227633Y0211780D01*
X0227648Y0211771D01*
X0227661Y0211758D01*
X0227670Y0211743D01*
X0227676Y0211727D01*
X0227678Y0211709D01*
X0227676Y0211691D01*
X0227670Y0211675D01*
X0227661Y0211660D01*
X0227648Y0211647D01*
X0227633Y0211638D01*
X0227617Y0211632D01*
X0227599Y0211630D01*
X0227581Y0211632D01*
X0227565Y0211638D01*
X0227550Y0211647D01*
X0227537Y0211660D01*
X0227528Y0211675D01*
X0227522Y0211691D01*
X0227520Y0211709D01*
D19*
X0180599Y0248149D02*
X0183381Y0252304D01*
X0182694Y0255772D01*
X0186162Y0256459D01*
X0188944Y0260614D01*
X0188257Y0264082D01*
X0184102Y0266863D01*
X0180634Y0266177D01*
X0177852Y0262022D01*
X0178539Y0258554D01*
X0175071Y0257867D01*
X0172289Y0253712D01*
X0172976Y0250244D01*
X0177131Y0247462D01*
X0180599Y0248149D01*
X0201755Y0263099D02*
X0193851Y0275848D01*
X0194658Y0279290D01*
X0198908Y0281925D01*
X0202350Y0281117D01*
X0210254Y0268369D01*
X0213696Y0267562D01*
X0217946Y0270196D01*
X0218753Y0273639D01*
X0210849Y0286387D01*
X0211656Y0289829D01*
X0215906Y0292464D01*
X0219348Y0291656D01*
X0227252Y0278908D01*
X0226445Y0275466D01*
X0222195Y0272831D01*
X0218753Y0273639D01*
X0209447Y0264927D02*
X0205197Y0262292D01*
X0203157Y0284559D02*
X0207407Y0287194D01*
X0210849Y0286387D01*
X0229646Y0290902D02*
X0229646Y0295902D01*
X0232146Y0298402D01*
X0237146Y0298402D01*
X0239646Y0295902D01*
X0242146Y0298402D01*
X0247146Y0298402D01*
X0249646Y0295902D01*
X0252146Y0298402D01*
X0257146Y0298402D01*
X0259646Y0295902D01*
X0262146Y0298402D01*
X0267146Y0298402D01*
X0269646Y0295902D01*
X0272146Y0298402D01*
X0277146Y0298402D01*
X0279646Y0295902D01*
X0282146Y0298402D01*
X0287146Y0298402D01*
X0289646Y0295902D01*
X0289646Y0290902D01*
X0287146Y0288402D01*
X0282146Y0288402D01*
X0279646Y0290902D01*
X0277146Y0288402D01*
X0272146Y0288402D01*
X0269646Y0290902D01*
X0267146Y0288402D01*
X0262146Y0288402D01*
X0259646Y0290902D01*
X0257146Y0288402D01*
X0252146Y0288402D01*
X0249646Y0290902D01*
X0247146Y0288402D01*
X0242146Y0288402D01*
X0239646Y0290902D01*
X0237146Y0288402D01*
X0232146Y0288402D01*
X0229646Y0290902D01*
X0272599Y0216354D02*
X0272599Y0215173D01*
X0272599Y0216354D02*
X0273780Y0216354D01*
X0306851Y0216354D02*
X0308032Y0216354D01*
X0308032Y0215173D01*
X0338296Y0202783D02*
X0357296Y0202783D01*
X0354796Y0199783D02*
X0356296Y0198283D01*
X0354796Y0196783D01*
X0356296Y0198283D02*
X0352796Y0198283D01*
X0357296Y0193783D02*
X0338296Y0193783D01*
X0308032Y0182102D02*
X0306851Y0180921D01*
X0289292Y0165094D02*
X0284567Y0165094D01*
X0277087Y0159976D02*
X0277087Y0157614D01*
X0284567Y0152496D02*
X0289292Y0152496D01*
X0296772Y0157614D02*
X0296772Y0159976D01*
X0273780Y0180921D02*
X0272599Y0180921D01*
X0272599Y0182102D01*
X0320126Y0129921D02*
X0323729Y0133388D01*
X0327264Y0133321D01*
X0330731Y0129718D01*
X0330663Y0126183D01*
X0327060Y0122716D01*
X0323526Y0122784D01*
X0323458Y0119249D01*
X0319855Y0115782D01*
X0316320Y0115850D01*
X0312853Y0119452D01*
X0312921Y0122987D01*
X0316524Y0126454D01*
X0320059Y0126386D01*
X0320126Y0129921D01*
X0294490Y0108079D02*
X0294777Y0103087D01*
X0292426Y0100448D01*
X0287434Y0100160D01*
X0284794Y0102512D01*
X0282442Y0099872D01*
X0277450Y0099584D01*
X0274811Y0101936D01*
X0272459Y0099296D01*
X0267467Y0099009D01*
X0264827Y0101361D01*
X0262475Y0098721D01*
X0257484Y0098433D01*
X0254844Y0100785D01*
X0252492Y0098145D01*
X0247500Y0097857D01*
X0244860Y0100209D01*
X0242508Y0097570D01*
X0237517Y0097282D01*
X0234877Y0099634D01*
X0234589Y0104625D01*
X0236941Y0107265D01*
X0241933Y0107553D01*
X0244573Y0105201D01*
X0246924Y0107841D01*
X0251916Y0108129D01*
X0254556Y0105777D01*
X0256908Y0108416D01*
X0261900Y0108704D01*
X0264539Y0106352D01*
X0266891Y0108992D01*
X0271883Y0109280D01*
X0274523Y0106928D01*
X0276875Y0109568D01*
X0281866Y0109855D01*
X0284506Y0107504D01*
X0286858Y0110143D01*
X0291850Y0110431D01*
X0294490Y0108079D01*
X0230152Y0118345D02*
X0224817Y0107455D01*
X0218489Y0106171D02*
X0209721Y0110467D01*
X0206857Y0116254D02*
X0212191Y0127143D01*
X0218520Y0128427D02*
X0227394Y0124080D01*
X0213504Y0117299D02*
X0213506Y0117440D01*
X0213512Y0117581D01*
X0213522Y0117721D01*
X0213536Y0117861D01*
X0213554Y0118001D01*
X0213575Y0118140D01*
X0213601Y0118279D01*
X0213630Y0118417D01*
X0213664Y0118553D01*
X0213701Y0118689D01*
X0213742Y0118824D01*
X0213787Y0118958D01*
X0213836Y0119090D01*
X0213888Y0119221D01*
X0213944Y0119350D01*
X0214004Y0119477D01*
X0214067Y0119603D01*
X0214133Y0119727D01*
X0214204Y0119850D01*
X0214277Y0119970D01*
X0214354Y0120088D01*
X0214434Y0120204D01*
X0214518Y0120317D01*
X0214604Y0120428D01*
X0214694Y0120537D01*
X0214787Y0120643D01*
X0214882Y0120746D01*
X0214981Y0120847D01*
X0215082Y0120945D01*
X0215186Y0121040D01*
X0215293Y0121132D01*
X0215402Y0121221D01*
X0215514Y0121306D01*
X0215628Y0121389D01*
X0215744Y0121469D01*
X0215863Y0121545D01*
X0215984Y0121617D01*
X0216106Y0121687D01*
X0216231Y0121752D01*
X0216357Y0121815D01*
X0216485Y0121873D01*
X0216615Y0121928D01*
X0216746Y0121980D01*
X0216879Y0122027D01*
X0217013Y0122071D01*
X0217148Y0122112D01*
X0217284Y0122148D01*
X0217421Y0122180D01*
X0217559Y0122209D01*
X0217697Y0122234D01*
X0217837Y0122254D01*
X0217977Y0122271D01*
X0218117Y0122284D01*
X0218258Y0122293D01*
X0218398Y0122298D01*
X0218539Y0122299D01*
X0218680Y0122296D01*
X0218821Y0122289D01*
X0218961Y0122278D01*
X0219101Y0122263D01*
X0219241Y0122244D01*
X0219380Y0122222D01*
X0219518Y0122195D01*
X0219656Y0122165D01*
X0219792Y0122130D01*
X0219928Y0122092D01*
X0220062Y0122050D01*
X0220196Y0122004D01*
X0220328Y0121955D01*
X0220458Y0121901D01*
X0220587Y0121844D01*
X0220714Y0121784D01*
X0220840Y0121720D01*
X0220963Y0121652D01*
X0221085Y0121581D01*
X0221205Y0121507D01*
X0221322Y0121429D01*
X0221437Y0121348D01*
X0221550Y0121264D01*
X0221661Y0121177D01*
X0221769Y0121086D01*
X0221874Y0120993D01*
X0221977Y0120896D01*
X0222077Y0120797D01*
X0222174Y0120695D01*
X0222268Y0120590D01*
X0222359Y0120483D01*
X0222447Y0120373D01*
X0222532Y0120261D01*
X0222614Y0120146D01*
X0222693Y0120029D01*
X0222768Y0119910D01*
X0222840Y0119789D01*
X0222908Y0119666D01*
X0222973Y0119541D01*
X0223035Y0119414D01*
X0223092Y0119285D01*
X0223147Y0119155D01*
X0223197Y0119024D01*
X0223244Y0118891D01*
X0223287Y0118757D01*
X0223326Y0118621D01*
X0223361Y0118485D01*
X0223393Y0118348D01*
X0223420Y0118210D01*
X0223444Y0118071D01*
X0223464Y0117931D01*
X0223480Y0117791D01*
X0223492Y0117651D01*
X0223500Y0117510D01*
X0223504Y0117369D01*
X0223504Y0117229D01*
X0223500Y0117088D01*
X0223492Y0116947D01*
X0223480Y0116807D01*
X0223464Y0116667D01*
X0223444Y0116527D01*
X0223420Y0116388D01*
X0223393Y0116250D01*
X0223361Y0116113D01*
X0223326Y0115977D01*
X0223287Y0115841D01*
X0223244Y0115707D01*
X0223197Y0115574D01*
X0223147Y0115443D01*
X0223092Y0115313D01*
X0223035Y0115184D01*
X0222973Y0115057D01*
X0222908Y0114932D01*
X0222840Y0114809D01*
X0222768Y0114688D01*
X0222693Y0114569D01*
X0222614Y0114452D01*
X0222532Y0114337D01*
X0222447Y0114225D01*
X0222359Y0114115D01*
X0222268Y0114008D01*
X0222174Y0113903D01*
X0222077Y0113801D01*
X0221977Y0113702D01*
X0221874Y0113605D01*
X0221769Y0113512D01*
X0221661Y0113421D01*
X0221550Y0113334D01*
X0221437Y0113250D01*
X0221322Y0113169D01*
X0221205Y0113091D01*
X0221085Y0113017D01*
X0220963Y0112946D01*
X0220840Y0112878D01*
X0220714Y0112814D01*
X0220587Y0112754D01*
X0220458Y0112697D01*
X0220328Y0112643D01*
X0220196Y0112594D01*
X0220062Y0112548D01*
X0219928Y0112506D01*
X0219792Y0112468D01*
X0219656Y0112433D01*
X0219518Y0112403D01*
X0219380Y0112376D01*
X0219241Y0112354D01*
X0219101Y0112335D01*
X0218961Y0112320D01*
X0218821Y0112309D01*
X0218680Y0112302D01*
X0218539Y0112299D01*
X0218398Y0112300D01*
X0218258Y0112305D01*
X0218117Y0112314D01*
X0217977Y0112327D01*
X0217837Y0112344D01*
X0217697Y0112364D01*
X0217559Y0112389D01*
X0217421Y0112418D01*
X0217284Y0112450D01*
X0217148Y0112486D01*
X0217013Y0112527D01*
X0216879Y0112571D01*
X0216746Y0112618D01*
X0216615Y0112670D01*
X0216485Y0112725D01*
X0216357Y0112783D01*
X0216231Y0112846D01*
X0216106Y0112911D01*
X0215984Y0112981D01*
X0215863Y0113053D01*
X0215744Y0113129D01*
X0215628Y0113209D01*
X0215514Y0113292D01*
X0215402Y0113377D01*
X0215293Y0113466D01*
X0215186Y0113558D01*
X0215082Y0113653D01*
X0214981Y0113751D01*
X0214882Y0113852D01*
X0214787Y0113955D01*
X0214694Y0114061D01*
X0214604Y0114170D01*
X0214518Y0114281D01*
X0214434Y0114394D01*
X0214354Y0114510D01*
X0214277Y0114628D01*
X0214204Y0114748D01*
X0214133Y0114871D01*
X0214067Y0114995D01*
X0214004Y0115121D01*
X0213944Y0115248D01*
X0213888Y0115377D01*
X0213836Y0115508D01*
X0213787Y0115640D01*
X0213742Y0115774D01*
X0213701Y0115909D01*
X0213664Y0116045D01*
X0213630Y0116181D01*
X0213601Y0116319D01*
X0213575Y0116458D01*
X0213554Y0116597D01*
X0213536Y0116737D01*
X0213522Y0116877D01*
X0213512Y0117017D01*
X0213506Y0117158D01*
X0213504Y0117299D01*
X0198824Y0128553D02*
X0195270Y0125036D01*
X0191735Y0125055D01*
X0188218Y0128609D01*
X0188236Y0132144D01*
X0184701Y0132163D01*
X0181184Y0135717D01*
X0181202Y0139252D01*
X0184756Y0142769D01*
X0188292Y0142751D01*
X0191809Y0139197D01*
X0191790Y0135661D01*
X0195326Y0135643D01*
X0198843Y0132089D01*
X0198824Y0128553D01*
X0173706Y0154007D02*
X0169149Y0151950D01*
X0165842Y0153199D01*
X0163785Y0157756D01*
X0165034Y0161064D01*
X0161727Y0162313D01*
X0159669Y0166870D01*
X0160919Y0170178D01*
X0165476Y0172235D01*
X0168783Y0170986D01*
X0170841Y0166429D01*
X0169591Y0163121D01*
X0172899Y0161872D01*
X0174956Y0157314D01*
X0173706Y0154007D01*
X0318266Y0271843D02*
X0318667Y0275356D01*
X0322580Y0278469D01*
X0326093Y0278068D01*
X0329205Y0274155D01*
X0328805Y0270643D01*
X0332318Y0270242D01*
X0335430Y0266329D01*
X0335030Y0262816D01*
X0331117Y0259704D01*
X0327604Y0260104D01*
X0324492Y0264017D01*
X0324892Y0267530D01*
X0321379Y0267930D01*
X0318266Y0271843D01*
D20*
X0329567Y0145449D03*
X0250040Y0143441D03*
D21*
X0250040Y0145803D03*
X0250040Y0141079D03*
X0329567Y0143087D03*
X0329567Y0147811D03*
D22*
X0277682Y0167526D02*
X0276681Y0167526D01*
X0277181Y0167526D02*
X0277181Y0169028D01*
X0276681Y0168527D01*
X0276209Y0168777D02*
X0276209Y0169028D01*
X0276209Y0168777D02*
X0275708Y0168277D01*
X0275708Y0167526D01*
X0275708Y0168277D02*
X0275208Y0168777D01*
X0275208Y0169028D01*
X0227536Y0116301D02*
X0227096Y0115403D01*
X0226638Y0116742D01*
X0226413Y0116852D01*
X0226078Y0116737D01*
X0225858Y0116288D01*
X0225973Y0115953D01*
X0225765Y0115529D02*
X0225430Y0115414D01*
X0225210Y0114965D01*
X0225324Y0114630D01*
X0225549Y0114520D01*
X0225884Y0114635D01*
X0226104Y0115084D01*
X0226439Y0115199D01*
X0226663Y0115089D01*
X0226778Y0114754D01*
X0226558Y0114304D01*
X0226223Y0114190D01*
X0242504Y0251188D02*
X0242353Y0251338D01*
X0242353Y0251938D01*
X0242504Y0252089D01*
X0242804Y0252089D01*
X0242954Y0251938D01*
X0242954Y0251638D02*
X0242654Y0251638D01*
X0242954Y0251638D02*
X0242954Y0251338D01*
X0242804Y0251188D01*
X0242504Y0251188D01*
X0243535Y0251338D02*
X0243685Y0251188D01*
X0243985Y0251188D01*
X0244135Y0251338D01*
X0244135Y0251488D01*
X0243985Y0251638D01*
X0243685Y0251638D01*
X0243535Y0251788D01*
X0243535Y0251938D01*
X0243685Y0252089D01*
X0243985Y0252089D01*
X0244135Y0251938D01*
X0259243Y0251938D02*
X0259243Y0251338D01*
X0259393Y0251188D01*
X0259694Y0251188D01*
X0259844Y0251338D01*
X0259844Y0251638D01*
X0259543Y0251638D01*
X0259243Y0251938D02*
X0259393Y0252089D01*
X0259694Y0252089D01*
X0259844Y0251938D01*
X0260424Y0251938D02*
X0260424Y0251788D01*
X0260574Y0251638D01*
X0260875Y0251638D01*
X0261025Y0251488D01*
X0261025Y0251338D01*
X0260875Y0251188D01*
X0260574Y0251188D01*
X0260424Y0251338D01*
X0260424Y0251938D02*
X0260574Y0252089D01*
X0260875Y0252089D01*
X0261025Y0251938D01*
X0274952Y0251742D02*
X0274952Y0251141D01*
X0275102Y0250991D01*
X0275402Y0250991D01*
X0275552Y0251141D01*
X0275552Y0251441D01*
X0275252Y0251441D01*
X0274952Y0251742D02*
X0275102Y0251892D01*
X0275402Y0251892D01*
X0275552Y0251742D01*
X0276133Y0251742D02*
X0276133Y0251591D01*
X0276283Y0251441D01*
X0276583Y0251441D01*
X0276734Y0251291D01*
X0276734Y0251141D01*
X0276583Y0250991D01*
X0276283Y0250991D01*
X0276133Y0251141D01*
X0276133Y0251742D02*
X0276283Y0251892D01*
X0276583Y0251892D01*
X0276734Y0251742D01*
X0291448Y0251545D02*
X0291448Y0250944D01*
X0291598Y0250794D01*
X0291898Y0250794D01*
X0292048Y0250944D01*
X0292048Y0251244D01*
X0291748Y0251244D01*
X0291448Y0251545D02*
X0291598Y0251695D01*
X0291898Y0251695D01*
X0292048Y0251545D01*
X0292629Y0251545D02*
X0292629Y0251395D01*
X0292779Y0251244D01*
X0293079Y0251244D01*
X0293230Y0251094D01*
X0293230Y0250944D01*
X0293079Y0250794D01*
X0292779Y0250794D01*
X0292629Y0250944D01*
X0292629Y0251545D02*
X0292779Y0251695D01*
X0293079Y0251695D01*
X0293230Y0251545D01*
D23*
X0294528Y0267024D02*
X0290394Y0267024D01*
X0290394Y0284346D01*
X0294528Y0284346D01*
X0294528Y0267024D01*
X0277780Y0267099D02*
X0277811Y0284421D01*
X0273677Y0284429D01*
X0273647Y0267106D01*
X0277780Y0267099D01*
X0261654Y0266787D02*
X0257520Y0266787D01*
X0257520Y0284110D01*
X0261654Y0284110D01*
X0261654Y0266787D01*
X0245906Y0266669D02*
X0245906Y0283992D01*
X0241772Y0283992D01*
X0241772Y0266669D01*
X0245906Y0266669D01*
D24*
X0178792Y0164504D03*
D25*
X0178752Y0164584D03*
X0179792Y0164824D03*
X0187552Y0174984D03*
X0189792Y0180024D03*
X0197392Y0180024D03*
X0197392Y0180184D03*
X0197392Y0180264D03*
X0197392Y0180584D03*
X0197392Y0180664D03*
X0197392Y0180824D03*
X0197392Y0180984D03*
X0197392Y0179864D03*
X0197392Y0179784D03*
X0198592Y0180024D03*
X0198592Y0180824D03*
X0199632Y0180824D03*
X0200352Y0180824D03*
X0200352Y0180984D03*
X0200352Y0180664D03*
X0200352Y0180584D03*
X0200352Y0180264D03*
X0200352Y0180184D03*
X0200352Y0180024D03*
X0200352Y0179864D03*
X0200352Y0179784D03*
X0201152Y0179864D03*
X0201232Y0179784D03*
X0201152Y0180664D03*
X0201152Y0180824D03*
X0201792Y0180824D03*
X0203152Y0180824D03*
X0203152Y0180984D03*
X0203152Y0180664D03*
X0203152Y0180264D03*
X0203152Y0180184D03*
X0203152Y0180024D03*
X0202992Y0176664D03*
X0202992Y0175224D03*
X0185152Y0193384D03*
D26*
X0185152Y0193464D03*
X0180112Y0190584D03*
X0179632Y0191224D03*
X0187632Y0174824D03*
X0188112Y0174424D03*
X0179472Y0164584D03*
X0203072Y0175064D03*
D27*
X0199552Y0180984D03*
X0187952Y0183624D03*
X0181152Y0187784D03*
X0181152Y0187864D03*
X0179552Y0191624D03*
X0181552Y0197064D03*
X0180032Y0164984D03*
X0178752Y0164664D03*
D28*
X0179592Y0164664D03*
X0182792Y0168824D03*
X0179592Y0191384D03*
D29*
X0179512Y0191944D03*
X0193912Y0188744D03*
X0201512Y0188504D03*
X0201672Y0188104D03*
X0201912Y0187304D03*
X0201512Y0184504D03*
X0178712Y0164744D03*
D30*
X0179712Y0164744D03*
X0198512Y0180344D03*
X0198512Y0180504D03*
X0198512Y0180744D03*
X0199712Y0180744D03*
X0199712Y0180504D03*
X0199712Y0180344D03*
X0201072Y0180104D03*
X0201712Y0180344D03*
X0201712Y0180504D03*
X0191712Y0186744D03*
X0180272Y0190744D03*
D31*
X0180872Y0190264D03*
X0180872Y0189784D03*
X0180872Y0189624D03*
X0181512Y0187224D03*
X0185512Y0186824D03*
X0189272Y0182024D03*
X0189272Y0181864D03*
X0189512Y0178184D03*
X0189512Y0178024D03*
X0194472Y0183464D03*
X0195672Y0185224D03*
X0195512Y0185864D03*
X0195672Y0187784D03*
X0195912Y0188184D03*
X0194472Y0189464D03*
X0199272Y0188184D03*
X0199512Y0187624D03*
X0200872Y0189384D03*
X0197672Y0181224D03*
X0197672Y0181064D03*
X0197672Y0180424D03*
X0202712Y0175784D03*
X0182312Y0168664D03*
X0178712Y0164824D03*
D32*
X0178672Y0164904D03*
X0187472Y0181544D03*
X0196112Y0184504D03*
X0197472Y0183704D03*
X0198912Y0184504D03*
X0200112Y0182904D03*
X0195072Y0189944D03*
D33*
X0198632Y0180904D03*
X0199512Y0179944D03*
X0201752Y0180744D03*
X0201832Y0180904D03*
X0201912Y0179944D03*
X0202952Y0175304D03*
X0189752Y0179704D03*
X0189832Y0180104D03*
X0179592Y0191544D03*
X0179912Y0164904D03*
D34*
X0178672Y0164984D03*
X0185072Y0192984D03*
D35*
X0179352Y0193064D03*
X0189432Y0183784D03*
X0189432Y0183624D03*
X0191832Y0184984D03*
X0191832Y0185064D03*
X0195752Y0182584D03*
X0188952Y0175064D03*
X0178632Y0165064D03*
D36*
X0180152Y0165064D03*
X0189672Y0179064D03*
X0189672Y0179224D03*
X0199112Y0181224D03*
X0202872Y0176424D03*
X0202872Y0175464D03*
X0181032Y0188264D03*
X0181032Y0188424D03*
X0179512Y0191784D03*
D37*
X0189432Y0183944D03*
X0191832Y0184744D03*
X0195992Y0182504D03*
X0178632Y0165144D03*
D38*
X0180272Y0165144D03*
X0189632Y0178904D03*
X0193632Y0184744D03*
X0193552Y0184904D03*
X0193472Y0185144D03*
X0193312Y0185704D03*
X0193312Y0185944D03*
X0193312Y0186104D03*
X0193312Y0186344D03*
X0193312Y0186504D03*
X0193312Y0186744D03*
X0193312Y0186904D03*
X0193312Y0187144D03*
X0193472Y0187704D03*
X0193552Y0187944D03*
X0193712Y0188344D03*
X0191712Y0186344D03*
X0201632Y0184744D03*
X0201712Y0184904D03*
X0201872Y0185544D03*
X0201952Y0185704D03*
X0201952Y0185944D03*
X0201952Y0186104D03*
X0201952Y0186744D03*
X0201952Y0186904D03*
X0201952Y0187144D03*
X0201872Y0187544D03*
X0202832Y0176344D03*
X0202832Y0175544D03*
X0181632Y0196904D03*
D39*
X0182032Y0195864D03*
X0179232Y0193784D03*
X0178592Y0165224D03*
D40*
X0180392Y0165224D03*
X0189592Y0178584D03*
X0189592Y0178664D03*
X0190952Y0179624D03*
X0193752Y0184424D03*
X0193592Y0184824D03*
X0191752Y0186184D03*
X0193432Y0187624D03*
X0193752Y0188424D03*
X0193832Y0188584D03*
X0193992Y0188824D03*
X0201432Y0188584D03*
X0201592Y0188264D03*
X0201752Y0187864D03*
X0201832Y0187624D03*
X0201752Y0185064D03*
X0201752Y0184984D03*
X0201592Y0184664D03*
X0201592Y0184584D03*
X0201352Y0184184D03*
X0202792Y0176264D03*
X0202792Y0175624D03*
X0181352Y0187384D03*
X0180952Y0188984D03*
X0180952Y0189064D03*
D41*
X0181392Y0192104D03*
X0179232Y0193944D03*
X0189232Y0184104D03*
X0178592Y0165304D03*
D42*
X0180472Y0165304D03*
X0189512Y0177944D03*
X0189512Y0178104D03*
X0189112Y0181304D03*
X0189272Y0181944D03*
X0195672Y0185144D03*
X0199272Y0184904D03*
X0199512Y0187544D03*
X0199272Y0188104D03*
X0200712Y0189544D03*
X0197672Y0181144D03*
X0197672Y0180504D03*
X0197672Y0180344D03*
X0202712Y0176104D03*
X0185112Y0193144D03*
X0180872Y0189704D03*
X0180872Y0189544D03*
D43*
X0179192Y0194264D03*
X0184952Y0192584D03*
X0188792Y0182984D03*
X0182632Y0166824D03*
X0178552Y0165384D03*
D44*
X0180592Y0165384D03*
X0187392Y0175464D03*
X0188992Y0181064D03*
X0198992Y0184584D03*
X0200592Y0189624D03*
D45*
X0197592Y0189064D03*
X0193752Y0179384D03*
X0193832Y0179224D03*
X0188792Y0183064D03*
X0186952Y0176664D03*
X0182792Y0185064D03*
X0182792Y0185224D03*
X0182232Y0195384D03*
X0178552Y0165464D03*
D46*
X0180712Y0165464D03*
X0188632Y0174824D03*
X0189432Y0177384D03*
X0189432Y0177464D03*
X0189432Y0177624D03*
X0191112Y0179464D03*
X0189272Y0182184D03*
X0189272Y0182264D03*
X0191752Y0185784D03*
X0194952Y0183064D03*
X0195032Y0182984D03*
X0200232Y0182984D03*
X0200312Y0183064D03*
X0200712Y0181064D03*
X0202232Y0179864D03*
X0199032Y0188424D03*
X0200312Y0189864D03*
X0194952Y0189864D03*
X0182632Y0187864D03*
X0179432Y0192424D03*
X0181752Y0196584D03*
D47*
X0179112Y0194744D03*
X0182632Y0186104D03*
X0183032Y0184504D03*
X0191912Y0183544D03*
X0183112Y0167144D03*
X0178472Y0165544D03*
D48*
X0180832Y0165544D03*
X0188752Y0174904D03*
X0189392Y0177144D03*
X0189392Y0177304D03*
X0188832Y0180904D03*
X0189232Y0182344D03*
X0191792Y0185544D03*
X0195152Y0182904D03*
X0199392Y0183944D03*
X0198992Y0188504D03*
X0196192Y0188504D03*
X0185552Y0186744D03*
X0181632Y0187144D03*
X0181792Y0196504D03*
D49*
X0179032Y0194984D03*
X0181832Y0192664D03*
X0182632Y0186424D03*
X0183112Y0184424D03*
X0191912Y0183224D03*
X0194072Y0178264D03*
X0194072Y0178184D03*
X0183432Y0167384D03*
X0178472Y0165624D03*
X0197592Y0188984D03*
D50*
X0200112Y0190024D03*
X0199072Y0179864D03*
X0187312Y0175624D03*
X0180912Y0165624D03*
X0185072Y0193064D03*
D51*
X0182032Y0192904D03*
X0182432Y0194904D03*
X0182672Y0186744D03*
X0191952Y0182904D03*
X0194112Y0177944D03*
X0193712Y0177304D03*
X0197632Y0188904D03*
X0178432Y0165704D03*
D52*
X0181032Y0165704D03*
X0188472Y0173544D03*
X0191192Y0177944D03*
X0191192Y0179304D03*
X0195432Y0182744D03*
X0199832Y0182744D03*
X0199992Y0190104D03*
X0195272Y0190104D03*
X0185592Y0184904D03*
X0184072Y0187304D03*
X0182632Y0187944D03*
X0197112Y0172344D03*
D53*
X0193872Y0177384D03*
X0194112Y0177784D03*
X0191952Y0182664D03*
X0186752Y0177224D03*
X0183392Y0184184D03*
X0182672Y0186984D03*
X0182112Y0192984D03*
X0178992Y0195464D03*
X0184032Y0167784D03*
X0178432Y0165784D03*
D54*
X0181152Y0165784D03*
X0189392Y0176984D03*
X0191232Y0178024D03*
X0191232Y0178184D03*
X0191232Y0178984D03*
X0191232Y0179064D03*
X0191792Y0185384D03*
X0185552Y0186664D03*
X0184192Y0187384D03*
X0183952Y0187224D03*
X0180832Y0191464D03*
X0179392Y0192824D03*
X0199632Y0183784D03*
D55*
X0197632Y0190824D03*
X0182512Y0194664D03*
X0178912Y0195784D03*
X0184352Y0168024D03*
X0178432Y0165864D03*
D56*
X0181272Y0165864D03*
X0187272Y0175784D03*
X0188872Y0174984D03*
X0191272Y0178264D03*
X0191272Y0178424D03*
X0191272Y0178584D03*
X0191272Y0178664D03*
X0191272Y0178824D03*
X0188712Y0180824D03*
X0182632Y0188184D03*
X0182632Y0188264D03*
X0182632Y0188424D03*
X0182632Y0188584D03*
X0182632Y0188664D03*
X0182632Y0188824D03*
X0182632Y0188984D03*
X0182632Y0189064D03*
X0182632Y0189224D03*
X0182632Y0189384D03*
X0182632Y0189464D03*
X0182632Y0189624D03*
X0182632Y0189784D03*
X0182632Y0189864D03*
X0182632Y0190024D03*
X0182632Y0190184D03*
X0182632Y0190264D03*
X0179352Y0192984D03*
X0196472Y0188664D03*
X0198712Y0188664D03*
X0199672Y0190264D03*
X0199672Y0182664D03*
D57*
X0191992Y0182104D03*
X0186632Y0177544D03*
X0178392Y0165944D03*
X0182392Y0193304D03*
X0178872Y0196104D03*
D58*
X0189392Y0183544D03*
X0191792Y0185144D03*
X0181392Y0165944D03*
D59*
X0178392Y0166024D03*
D60*
X0181512Y0166024D03*
X0199512Y0182584D03*
X0181912Y0196184D03*
D61*
X0182752Y0194104D03*
X0192032Y0181544D03*
X0178352Y0166104D03*
D62*
X0181632Y0166104D03*
X0181872Y0168504D03*
X0191792Y0184904D03*
X0181952Y0196104D03*
X0179312Y0193304D03*
D63*
X0182752Y0193784D03*
X0178752Y0196984D03*
X0188432Y0184824D03*
X0197632Y0182264D03*
X0199472Y0178184D03*
X0197632Y0190664D03*
X0185472Y0168824D03*
X0178352Y0166184D03*
D64*
X0181752Y0166184D03*
X0187192Y0176024D03*
X0191832Y0184824D03*
X0195992Y0190424D03*
X0185032Y0192824D03*
X0181992Y0196024D03*
X0199432Y0178664D03*
X0196952Y0172424D03*
D65*
X0189512Y0172984D03*
X0185832Y0169064D03*
X0178312Y0166264D03*
X0186392Y0178184D03*
X0192072Y0180984D03*
X0178712Y0197224D03*
X0178552Y0197624D03*
D66*
X0179312Y0193464D03*
X0181152Y0191864D03*
X0197632Y0189224D03*
X0197472Y0183784D03*
X0197632Y0181864D03*
X0181872Y0166264D03*
D67*
X0178312Y0166344D03*
X0199432Y0178104D03*
D68*
X0181992Y0166344D03*
D69*
X0178272Y0166424D03*
X0186432Y0169464D03*
X0191072Y0176584D03*
X0192112Y0180424D03*
X0188752Y0186984D03*
X0188752Y0187064D03*
X0184432Y0183384D03*
X0184432Y0183224D03*
X0184512Y0182824D03*
X0184592Y0182664D03*
D70*
X0189352Y0184024D03*
X0191832Y0184584D03*
X0191832Y0184664D03*
X0200312Y0183464D03*
X0187112Y0176184D03*
X0182072Y0166424D03*
X0179272Y0193624D03*
D71*
X0184432Y0183544D03*
X0184672Y0182504D03*
X0178272Y0166504D03*
D72*
X0182192Y0166504D03*
X0184992Y0192744D03*
X0179232Y0193704D03*
D73*
X0184472Y0183864D03*
X0188632Y0187384D03*
X0178232Y0166584D03*
D74*
X0181592Y0168424D03*
X0182312Y0166584D03*
X0187112Y0176264D03*
X0188952Y0182824D03*
X0182072Y0195784D03*
D75*
X0186632Y0189384D03*
X0195752Y0173064D03*
X0178232Y0166664D03*
D76*
X0182432Y0166664D03*
X0188752Y0173384D03*
X0184992Y0192664D03*
X0179232Y0193864D03*
D77*
X0186752Y0189144D03*
X0178912Y0167544D03*
X0178192Y0166744D03*
D78*
X0182552Y0166744D03*
X0188872Y0182904D03*
D79*
X0178192Y0166824D03*
D80*
X0178152Y0166904D03*
X0185992Y0179544D03*
X0186952Y0188744D03*
D81*
X0179152Y0194344D03*
X0197632Y0181944D03*
X0182752Y0166904D03*
D82*
X0178152Y0166984D03*
X0190152Y0172664D03*
X0199432Y0177784D03*
X0187752Y0185864D03*
X0187752Y0186024D03*
X0187832Y0186264D03*
X0187912Y0186584D03*
X0187032Y0188584D03*
D83*
X0182712Y0185624D03*
X0182712Y0185464D03*
X0182712Y0185384D03*
X0182872Y0184984D03*
X0191912Y0183624D03*
X0193912Y0178984D03*
X0182872Y0166984D03*
X0179112Y0194584D03*
X0177272Y0198184D03*
D84*
X0187112Y0188424D03*
X0178072Y0167064D03*
D85*
X0182992Y0167064D03*
X0182992Y0184664D03*
D86*
X0178072Y0167144D03*
D87*
X0178032Y0167224D03*
D88*
X0183192Y0167224D03*
X0193992Y0178584D03*
X0193992Y0178664D03*
X0188792Y0183384D03*
D89*
X0187272Y0188104D03*
X0178152Y0167304D03*
D90*
X0183312Y0167304D03*
X0179072Y0194904D03*
X0177472Y0198104D03*
D91*
X0187872Y0186424D03*
X0178432Y0167384D03*
D92*
X0178672Y0167464D03*
X0187712Y0185384D03*
X0186912Y0188824D03*
D93*
X0182352Y0195064D03*
X0191952Y0183064D03*
X0193232Y0177064D03*
X0186832Y0176984D03*
X0183552Y0167464D03*
D94*
X0183672Y0167544D03*
X0194072Y0178104D03*
X0179032Y0195144D03*
D95*
X0186592Y0189464D03*
X0186192Y0178824D03*
X0191392Y0176824D03*
X0179152Y0167624D03*
D96*
X0183792Y0167624D03*
X0178992Y0195384D03*
D97*
X0179392Y0167704D03*
D98*
X0183912Y0167704D03*
X0182712Y0186904D03*
D99*
X0184752Y0191624D03*
X0192112Y0180664D03*
X0179632Y0167784D03*
D100*
X0179872Y0167864D03*
X0185712Y0168984D03*
X0192112Y0181064D03*
D101*
X0191992Y0182584D03*
X0193992Y0177464D03*
X0184152Y0167864D03*
X0197592Y0188824D03*
X0182152Y0193064D03*
X0178952Y0195624D03*
D102*
X0180152Y0167944D03*
X0185032Y0168504D03*
D103*
X0184232Y0167944D03*
X0180632Y0168104D03*
X0191992Y0182504D03*
X0199432Y0178344D03*
X0178952Y0195704D03*
X0177832Y0197944D03*
D104*
X0177992Y0197864D03*
X0178872Y0196184D03*
X0182632Y0194424D03*
X0190312Y0176024D03*
X0184712Y0168264D03*
X0180392Y0168024D03*
D105*
X0184472Y0168104D03*
X0190152Y0175944D03*
D106*
X0192952Y0176984D03*
X0194072Y0178024D03*
X0193272Y0180024D03*
X0199432Y0178424D03*
X0183272Y0184264D03*
X0182632Y0186664D03*
X0179032Y0195224D03*
X0180872Y0168184D03*
D107*
X0184592Y0168184D03*
X0192032Y0182184D03*
X0192032Y0182264D03*
D108*
X0191912Y0183464D03*
X0193432Y0179864D03*
X0193512Y0179784D03*
X0196632Y0172584D03*
X0181112Y0168264D03*
X0183032Y0184584D03*
X0182632Y0186024D03*
X0182632Y0186184D03*
X0181752Y0192584D03*
X0182312Y0195224D03*
X0179112Y0194664D03*
D109*
X0181592Y0192344D03*
X0181352Y0168344D03*
D110*
X0184792Y0168344D03*
X0190392Y0176104D03*
D111*
X0192032Y0181784D03*
X0192032Y0181864D03*
X0197632Y0182184D03*
X0184912Y0168424D03*
X0182672Y0194264D03*
X0178832Y0196424D03*
D112*
X0181832Y0196424D03*
X0179432Y0192664D03*
X0182632Y0188024D03*
X0189192Y0182424D03*
X0191192Y0179224D03*
X0191192Y0177864D03*
X0189352Y0177064D03*
X0195272Y0182824D03*
X0196232Y0184424D03*
X0198792Y0184424D03*
X0199512Y0183864D03*
X0200392Y0183224D03*
X0199992Y0182824D03*
X0198872Y0188584D03*
X0199832Y0190184D03*
X0196312Y0188584D03*
X0195432Y0190184D03*
X0191752Y0185464D03*
X0182072Y0168584D03*
D113*
X0185152Y0168584D03*
X0190512Y0176184D03*
X0186512Y0177864D03*
X0196192Y0172824D03*
X0178832Y0196664D03*
D114*
X0192072Y0181464D03*
X0192072Y0181384D03*
X0185272Y0168664D03*
D115*
X0182552Y0168744D03*
X0187512Y0175144D03*
X0189672Y0179144D03*
X0189672Y0179304D03*
X0185512Y0184744D03*
X0185512Y0186904D03*
X0182632Y0187704D03*
X0181272Y0187544D03*
X0181112Y0187944D03*
X0181032Y0188344D03*
X0181032Y0188504D03*
X0185112Y0193304D03*
X0199112Y0179704D03*
D116*
X0188392Y0184504D03*
X0178792Y0196744D03*
X0185352Y0168744D03*
D117*
X0185592Y0168904D03*
D118*
X0185952Y0169144D03*
X0196032Y0172904D03*
X0197632Y0182344D03*
X0184832Y0180904D03*
X0184752Y0191704D03*
D119*
X0186232Y0190184D03*
X0188072Y0184184D03*
X0186072Y0169224D03*
D120*
X0186192Y0169304D03*
D121*
X0186312Y0169384D03*
X0186312Y0178424D03*
X0184472Y0182984D03*
X0184472Y0183064D03*
X0188712Y0186664D03*
X0188712Y0186824D03*
X0186312Y0190024D03*
D122*
X0192152Y0180344D03*
X0186552Y0169544D03*
D123*
X0186712Y0169624D03*
X0186232Y0178664D03*
X0192152Y0180184D03*
X0184712Y0191464D03*
D124*
X0186552Y0189544D03*
X0191272Y0176744D03*
X0186872Y0169704D03*
D125*
X0187072Y0169784D03*
D126*
X0187232Y0169864D03*
X0185232Y0181864D03*
X0187712Y0185064D03*
X0186832Y0188984D03*
X0199472Y0177864D03*
D127*
X0195632Y0173144D03*
X0187392Y0169944D03*
X0185952Y0179304D03*
D128*
X0185992Y0179624D03*
X0185992Y0179784D03*
X0185992Y0179864D03*
X0187592Y0170024D03*
D129*
X0187792Y0170104D03*
X0187152Y0188344D03*
D130*
X0187232Y0188184D03*
X0187952Y0170184D03*
D131*
X0188152Y0170264D03*
D132*
X0188352Y0170344D03*
D133*
X0188512Y0170424D03*
X0199152Y0176984D03*
X0184512Y0190584D03*
D134*
X0184472Y0190504D03*
X0187432Y0187544D03*
X0188712Y0170504D03*
D135*
X0188912Y0170584D03*
D136*
X0189072Y0170664D03*
D137*
X0189272Y0170744D03*
D138*
X0189472Y0170824D03*
X0197712Y0176184D03*
D139*
X0189632Y0170904D03*
D140*
X0189832Y0170984D03*
D141*
X0190032Y0171064D03*
X0191072Y0172184D03*
D142*
X0190192Y0171144D03*
D143*
X0190392Y0171224D03*
D144*
X0190552Y0171304D03*
X0196152Y0175304D03*
D145*
X0195752Y0175064D03*
X0190712Y0171384D03*
D146*
X0190912Y0171464D03*
D147*
X0191072Y0171544D03*
X0195152Y0174744D03*
D148*
X0194872Y0174584D03*
X0191272Y0171624D03*
D149*
X0191472Y0171704D03*
D150*
X0191672Y0171784D03*
X0194312Y0174264D03*
D151*
X0191712Y0171864D03*
D152*
X0191552Y0171944D03*
D153*
X0191392Y0172024D03*
D154*
X0191232Y0172104D03*
D155*
X0197352Y0172184D03*
X0202632Y0180984D03*
X0191672Y0186824D03*
X0180152Y0190664D03*
X0181512Y0197224D03*
X0175832Y0198824D03*
D156*
X0197432Y0176024D03*
X0190952Y0172264D03*
D157*
X0188312Y0173624D03*
X0197272Y0172264D03*
X0193912Y0184184D03*
X0193672Y0184584D03*
X0193672Y0184664D03*
X0193512Y0185064D03*
X0193512Y0187864D03*
X0193672Y0188264D03*
X0201272Y0188824D03*
X0201512Y0188424D03*
X0201912Y0185624D03*
X0201672Y0184824D03*
X0201512Y0184424D03*
X0185112Y0193224D03*
X0181672Y0196824D03*
X0179512Y0192024D03*
X0180472Y0191064D03*
D158*
X0190792Y0172344D03*
X0197992Y0176344D03*
D159*
X0190632Y0172424D03*
X0184472Y0190424D03*
D160*
X0190472Y0172504D03*
D161*
X0196792Y0172504D03*
X0197592Y0189144D03*
X0179192Y0194104D03*
D162*
X0184552Y0190824D03*
X0190312Y0172584D03*
D163*
X0189072Y0173224D03*
X0189952Y0175784D03*
X0194112Y0177864D03*
X0197632Y0182024D03*
X0191952Y0182984D03*
X0182672Y0186824D03*
X0177632Y0198024D03*
X0196512Y0172664D03*
D164*
X0190032Y0172744D03*
X0186032Y0179144D03*
X0184672Y0184104D03*
X0187712Y0185144D03*
D165*
X0184832Y0192104D03*
X0182592Y0194504D03*
X0189232Y0173144D03*
X0196352Y0172744D03*
D166*
X0189872Y0172824D03*
X0184912Y0182264D03*
X0184672Y0191384D03*
D167*
X0184712Y0191544D03*
X0186312Y0178504D03*
X0189672Y0172904D03*
D168*
X0195872Y0172984D03*
X0199472Y0178024D03*
X0188752Y0187224D03*
X0186432Y0189784D03*
X0184432Y0183624D03*
X0184752Y0182424D03*
X0186272Y0178584D03*
D169*
X0186552Y0177784D03*
X0189352Y0173064D03*
X0182632Y0193624D03*
X0178792Y0196584D03*
D170*
X0186032Y0180184D03*
X0195472Y0173224D03*
D171*
X0193952Y0178744D03*
X0193952Y0178904D03*
X0193552Y0179704D03*
X0189632Y0175544D03*
X0188912Y0173304D03*
X0186912Y0176744D03*
X0188752Y0183144D03*
X0182912Y0184744D03*
X0182672Y0185704D03*
X0182672Y0185944D03*
X0181712Y0192504D03*
X0182272Y0195304D03*
X0197472Y0183944D03*
D172*
X0195312Y0173304D03*
X0187312Y0187944D03*
D173*
X0195152Y0173384D03*
D174*
X0188592Y0173464D03*
X0189072Y0182664D03*
X0189472Y0183864D03*
X0197632Y0191064D03*
X0200352Y0183384D03*
X0179312Y0193224D03*
X0176752Y0198424D03*
D175*
X0195032Y0173464D03*
D176*
X0194872Y0173544D03*
D177*
X0194712Y0173624D03*
D178*
X0188152Y0173704D03*
X0191672Y0186904D03*
X0202632Y0179944D03*
X0203032Y0175144D03*
D179*
X0196552Y0175544D03*
X0194552Y0173704D03*
D180*
X0194392Y0173784D03*
X0195992Y0175224D03*
D181*
X0195272Y0174824D03*
X0194232Y0173864D03*
D182*
X0194112Y0173944D03*
D183*
X0193992Y0174024D03*
X0194152Y0174184D03*
D184*
X0194032Y0174104D03*
D185*
X0194432Y0174344D03*
D186*
X0194592Y0174424D03*
D187*
X0188192Y0174504D03*
X0189792Y0179944D03*
X0197392Y0179944D03*
X0197392Y0180104D03*
X0197392Y0179704D03*
X0197392Y0180744D03*
X0197392Y0180904D03*
X0198592Y0180104D03*
X0199632Y0180104D03*
X0200352Y0180104D03*
X0200352Y0179944D03*
X0200352Y0179704D03*
X0201152Y0179944D03*
X0201232Y0179704D03*
X0201792Y0180104D03*
X0201152Y0180744D03*
X0201152Y0180904D03*
X0200352Y0180904D03*
X0200352Y0180744D03*
X0199632Y0180904D03*
X0203152Y0180904D03*
X0203152Y0180744D03*
X0203152Y0180344D03*
X0203152Y0180104D03*
X0203152Y0179944D03*
X0181552Y0197144D03*
D188*
X0194712Y0174504D03*
D189*
X0188312Y0174584D03*
X0187512Y0175064D03*
X0189752Y0179784D03*
X0189752Y0179864D03*
X0191672Y0186584D03*
X0198712Y0180984D03*
X0199592Y0180024D03*
X0200952Y0180264D03*
X0201032Y0180184D03*
X0201112Y0180984D03*
X0201912Y0180984D03*
X0201832Y0180024D03*
X0202952Y0176584D03*
X0180312Y0190824D03*
X0179592Y0191464D03*
D190*
X0179552Y0191864D03*
X0180432Y0190984D03*
X0181312Y0187464D03*
X0191712Y0186264D03*
X0193312Y0186264D03*
X0193312Y0186184D03*
X0193312Y0186024D03*
X0193312Y0185864D03*
X0193312Y0185784D03*
X0193472Y0185224D03*
X0193552Y0184984D03*
X0193312Y0186424D03*
X0193312Y0186584D03*
X0193312Y0186664D03*
X0193312Y0186824D03*
X0193312Y0186984D03*
X0193312Y0187064D03*
X0193312Y0187224D03*
X0193472Y0187784D03*
X0193552Y0188024D03*
X0193632Y0188184D03*
X0201632Y0188184D03*
X0201712Y0188024D03*
X0201872Y0187464D03*
X0201872Y0187384D03*
X0201952Y0187224D03*
X0201952Y0187064D03*
X0201952Y0186984D03*
X0201952Y0186824D03*
X0201952Y0186664D03*
X0201952Y0186584D03*
X0201952Y0186264D03*
X0201952Y0186184D03*
X0201952Y0186024D03*
X0201952Y0185864D03*
X0201952Y0185784D03*
X0201872Y0185464D03*
X0201872Y0185384D03*
X0189632Y0178984D03*
X0189632Y0178824D03*
X0187472Y0175224D03*
X0188432Y0174664D03*
D191*
X0194992Y0174664D03*
D192*
X0188512Y0174744D03*
X0189552Y0178344D03*
X0189232Y0181704D03*
X0187952Y0183544D03*
X0194112Y0183944D03*
X0194272Y0183704D03*
X0195632Y0185304D03*
X0195552Y0185544D03*
X0195552Y0185704D03*
X0195472Y0185944D03*
X0195472Y0186104D03*
X0195472Y0186344D03*
X0195472Y0186504D03*
X0195472Y0186744D03*
X0195472Y0186904D03*
X0195552Y0187144D03*
X0195552Y0187304D03*
X0195632Y0187544D03*
X0195632Y0187704D03*
X0194032Y0188904D03*
X0194192Y0189144D03*
X0194352Y0189304D03*
X0199392Y0187944D03*
X0199472Y0187704D03*
X0199552Y0187304D03*
X0199632Y0186904D03*
X0199632Y0186744D03*
X0199632Y0186504D03*
X0199632Y0186344D03*
X0199632Y0186104D03*
X0199632Y0185944D03*
X0199552Y0185704D03*
X0199552Y0185544D03*
X0199472Y0185304D03*
X0199392Y0185144D03*
X0201152Y0183944D03*
X0201312Y0184104D03*
X0200992Y0183704D03*
X0202272Y0181144D03*
X0202752Y0175704D03*
X0201232Y0188904D03*
X0201072Y0189144D03*
X0200912Y0189304D03*
X0181392Y0187304D03*
X0180912Y0189304D03*
X0180912Y0190344D03*
X0180592Y0191144D03*
X0179472Y0192104D03*
X0181712Y0196744D03*
D193*
X0179592Y0191304D03*
X0187592Y0174904D03*
D194*
X0195472Y0174904D03*
D195*
X0195592Y0174984D03*
D196*
X0203112Y0174984D03*
X0203112Y0176824D03*
X0202872Y0177224D03*
X0202712Y0180024D03*
X0191672Y0186984D03*
X0191672Y0187064D03*
X0179672Y0191064D03*
D197*
X0189112Y0175144D03*
X0199272Y0182504D03*
D198*
X0195872Y0175144D03*
D199*
X0189192Y0175224D03*
D200*
X0187432Y0175304D03*
X0189592Y0178504D03*
X0189592Y0178744D03*
X0190952Y0177544D03*
X0189192Y0181544D03*
X0191752Y0186104D03*
X0193432Y0185304D03*
X0193752Y0184504D03*
X0193832Y0184344D03*
X0193992Y0184104D03*
X0193592Y0188104D03*
X0193832Y0188504D03*
X0201352Y0188744D03*
X0201592Y0188344D03*
X0201752Y0187944D03*
X0201832Y0185304D03*
X0201432Y0184344D03*
X0180952Y0188904D03*
X0180952Y0189144D03*
D201*
X0182112Y0195704D03*
X0187072Y0176344D03*
X0189312Y0175304D03*
D202*
X0187392Y0175384D03*
X0189552Y0178264D03*
X0189552Y0178424D03*
X0189072Y0181224D03*
X0189152Y0181384D03*
X0189152Y0181464D03*
X0189232Y0181624D03*
X0189232Y0181784D03*
X0191712Y0186024D03*
X0193872Y0184264D03*
X0194032Y0184024D03*
X0194112Y0183864D03*
X0194192Y0183784D03*
X0194352Y0183624D03*
X0195712Y0185064D03*
X0195552Y0185624D03*
X0195552Y0185784D03*
X0195472Y0186024D03*
X0195472Y0186184D03*
X0195472Y0186264D03*
X0195472Y0186424D03*
X0195472Y0186584D03*
X0195472Y0186664D03*
X0195472Y0186824D03*
X0195472Y0186984D03*
X0195472Y0187064D03*
X0195552Y0187224D03*
X0195552Y0187384D03*
X0195552Y0187464D03*
X0195632Y0187624D03*
X0195712Y0187864D03*
X0195792Y0188024D03*
X0194112Y0188984D03*
X0194112Y0189064D03*
X0194272Y0189224D03*
X0193872Y0188664D03*
X0199552Y0187464D03*
X0199552Y0187384D03*
X0199552Y0187224D03*
X0199632Y0187064D03*
X0199632Y0186984D03*
X0199632Y0186824D03*
X0199632Y0186664D03*
X0199632Y0186584D03*
X0199632Y0186424D03*
X0199632Y0186264D03*
X0199632Y0186184D03*
X0199632Y0186024D03*
X0199552Y0185864D03*
X0199552Y0185784D03*
X0199552Y0185624D03*
X0199472Y0185464D03*
X0199472Y0185384D03*
X0199312Y0184984D03*
X0201072Y0183784D03*
X0201152Y0183864D03*
X0201232Y0184024D03*
X0201392Y0184264D03*
X0200592Y0181224D03*
X0202272Y0179784D03*
X0202752Y0176184D03*
X0201392Y0188664D03*
X0201152Y0188984D03*
X0201152Y0189064D03*
X0200992Y0189224D03*
X0180912Y0189224D03*
X0180912Y0189384D03*
X0180912Y0189464D03*
X0179472Y0192184D03*
X0176192Y0198664D03*
D203*
X0189392Y0175384D03*
D204*
X0196272Y0175384D03*
D205*
X0189712Y0179384D03*
X0189712Y0179464D03*
X0189712Y0179624D03*
X0191712Y0186424D03*
X0181072Y0188024D03*
X0181072Y0188184D03*
X0202272Y0181224D03*
X0202912Y0175384D03*
D206*
X0189552Y0175464D03*
X0186992Y0176584D03*
X0191872Y0183784D03*
X0197632Y0190984D03*
X0181632Y0192424D03*
X0182192Y0195464D03*
X0179152Y0194424D03*
D207*
X0196432Y0175464D03*
D208*
X0191112Y0177704D03*
X0189432Y0177544D03*
X0187352Y0175544D03*
X0191752Y0185704D03*
X0200232Y0189944D03*
X0202632Y0175944D03*
X0180712Y0191304D03*
X0179432Y0192504D03*
D209*
X0179072Y0194824D03*
X0184912Y0192424D03*
X0182672Y0186264D03*
X0186912Y0176824D03*
X0189712Y0175624D03*
D210*
X0196712Y0175624D03*
D211*
X0187312Y0175704D03*
X0180912Y0191544D03*
X0181872Y0196344D03*
D212*
X0184912Y0192344D03*
X0189872Y0175704D03*
D213*
X0196832Y0175704D03*
D214*
X0197032Y0175784D03*
D215*
X0189152Y0182584D03*
X0184352Y0187464D03*
X0181872Y0196264D03*
X0187232Y0175864D03*
D216*
X0190072Y0175864D03*
X0194072Y0177624D03*
X0182712Y0187064D03*
X0184872Y0192184D03*
D217*
X0197152Y0175864D03*
D218*
X0199072Y0179784D03*
X0202272Y0181064D03*
X0203472Y0181064D03*
X0203472Y0181224D03*
X0203472Y0179864D03*
X0203472Y0179784D03*
X0202672Y0176024D03*
X0202672Y0175864D03*
X0199072Y0184664D03*
X0196032Y0184584D03*
X0195952Y0184664D03*
X0194752Y0183224D03*
X0188912Y0180984D03*
X0187552Y0181464D03*
X0185552Y0184824D03*
X0180832Y0189864D03*
X0180832Y0190024D03*
X0179472Y0192264D03*
X0181712Y0196664D03*
X0194672Y0189624D03*
X0194832Y0189784D03*
X0196112Y0188424D03*
X0195952Y0188264D03*
X0200432Y0189784D03*
X0189472Y0177864D03*
X0189472Y0177784D03*
D219*
X0187192Y0175944D03*
X0189432Y0183704D03*
X0195752Y0190344D03*
X0185032Y0192904D03*
X0181032Y0191704D03*
X0179352Y0193144D03*
D220*
X0197312Y0175944D03*
D221*
X0187152Y0176104D03*
X0182032Y0195944D03*
D222*
X0197592Y0176104D03*
D223*
X0190632Y0176264D03*
X0188392Y0184424D03*
X0188392Y0184584D03*
X0188392Y0184664D03*
X0184792Y0191864D03*
X0182792Y0194024D03*
X0178792Y0196824D03*
D224*
X0197872Y0176264D03*
D225*
X0190752Y0176344D03*
X0186432Y0178104D03*
X0184592Y0181544D03*
X0178752Y0197144D03*
D226*
X0177112Y0198264D03*
X0182152Y0195624D03*
X0181432Y0192184D03*
X0187032Y0176424D03*
X0199432Y0178584D03*
X0197432Y0183864D03*
D227*
X0197632Y0190584D03*
X0186192Y0190264D03*
X0190832Y0176424D03*
D228*
X0198112Y0176424D03*
D229*
X0186992Y0176504D03*
X0182192Y0195544D03*
D230*
X0184552Y0182744D03*
X0190952Y0176504D03*
X0192152Y0180504D03*
D231*
X0198272Y0176504D03*
D232*
X0198672Y0179944D03*
X0202272Y0179704D03*
X0202912Y0176504D03*
X0189712Y0179544D03*
X0191712Y0186504D03*
X0181072Y0188104D03*
D233*
X0198392Y0176584D03*
D234*
X0191192Y0176664D03*
D235*
X0198592Y0176664D03*
D236*
X0198712Y0176744D03*
D237*
X0203072Y0176744D03*
X0179632Y0191144D03*
X0181472Y0197304D03*
D238*
X0198872Y0176824D03*
D239*
X0194072Y0178344D03*
X0193352Y0179944D03*
X0186872Y0176904D03*
X0183192Y0184344D03*
X0182632Y0186344D03*
X0182632Y0186504D03*
X0181912Y0192744D03*
D240*
X0185112Y0182104D03*
X0191512Y0176904D03*
D241*
X0198992Y0176904D03*
D242*
X0193592Y0177224D03*
X0186792Y0177064D03*
X0181992Y0192824D03*
X0182392Y0194984D03*
D243*
X0199272Y0177064D03*
D244*
X0191992Y0182744D03*
X0186792Y0177144D03*
D245*
X0191952Y0183144D03*
X0193392Y0177144D03*
X0197632Y0190904D03*
D246*
X0199432Y0177144D03*
D247*
X0199152Y0181064D03*
X0191152Y0179384D03*
X0191152Y0177784D03*
X0189392Y0177224D03*
X0191792Y0185624D03*
X0195152Y0190024D03*
X0180752Y0191384D03*
X0179392Y0192584D03*
D248*
X0186712Y0177304D03*
D249*
X0186712Y0177384D03*
X0182312Y0193224D03*
X0182552Y0194584D03*
X0178952Y0195864D03*
D250*
X0178912Y0196024D03*
X0186672Y0177464D03*
D251*
X0194112Y0177544D03*
X0197632Y0182104D03*
X0182272Y0193144D03*
D252*
X0182432Y0193384D03*
X0184832Y0192024D03*
X0192032Y0182024D03*
X0186592Y0177624D03*
X0197632Y0184264D03*
X0197952Y0184024D03*
D253*
X0199192Y0184824D03*
X0199352Y0185064D03*
X0199432Y0185224D03*
X0199432Y0187784D03*
X0199432Y0187864D03*
X0199352Y0188024D03*
X0199192Y0188264D03*
X0200792Y0189464D03*
X0194392Y0189384D03*
X0195592Y0185464D03*
X0195592Y0185384D03*
X0195752Y0184984D03*
X0195832Y0184824D03*
X0194552Y0183384D03*
X0191752Y0185864D03*
X0191032Y0177624D03*
X0199432Y0178824D03*
X0200632Y0180424D03*
X0203432Y0180424D03*
X0203432Y0180584D03*
X0182632Y0187784D03*
X0180632Y0191224D03*
D254*
X0182592Y0193544D03*
X0186592Y0177704D03*
D255*
X0189472Y0177704D03*
X0189232Y0182104D03*
X0194672Y0183304D03*
X0194832Y0183144D03*
X0195872Y0184744D03*
X0199152Y0184744D03*
X0200432Y0183144D03*
X0200672Y0181144D03*
X0200672Y0180504D03*
X0199152Y0181144D03*
X0203472Y0181144D03*
X0203472Y0179704D03*
X0199152Y0188344D03*
X0200512Y0189704D03*
X0196032Y0188344D03*
X0194752Y0189704D03*
X0180832Y0189944D03*
X0180832Y0190104D03*
X0179472Y0192344D03*
D256*
X0178992Y0195544D03*
X0182512Y0194744D03*
X0193072Y0180104D03*
X0194112Y0177704D03*
D257*
X0192112Y0181304D03*
X0188432Y0184744D03*
X0188432Y0184904D03*
X0184672Y0181144D03*
X0186512Y0177944D03*
X0182832Y0193944D03*
X0178752Y0196904D03*
X0178352Y0197704D03*
D258*
X0199432Y0177944D03*
D259*
X0192072Y0181224D03*
X0188232Y0184264D03*
X0184632Y0181464D03*
X0184632Y0181384D03*
X0184632Y0181224D03*
X0184712Y0181064D03*
X0186472Y0178024D03*
D260*
X0191232Y0178104D03*
X0191232Y0179144D03*
X0191792Y0185304D03*
X0179392Y0192744D03*
D261*
X0186392Y0178264D03*
D262*
X0199432Y0178264D03*
X0182472Y0193464D03*
X0178872Y0196264D03*
D263*
X0178672Y0197544D03*
X0186272Y0190104D03*
X0192112Y0180744D03*
X0186352Y0178344D03*
X0197632Y0190504D03*
D264*
X0199752Y0183704D03*
X0199432Y0178744D03*
X0191272Y0178744D03*
X0191272Y0178904D03*
X0191272Y0178504D03*
X0191272Y0178344D03*
X0182632Y0188104D03*
X0182632Y0188344D03*
X0182632Y0188504D03*
X0182632Y0188744D03*
X0182632Y0188904D03*
X0182632Y0189144D03*
X0182632Y0189304D03*
X0182632Y0189544D03*
X0182632Y0189704D03*
X0182632Y0189944D03*
X0182632Y0190104D03*
X0182632Y0190344D03*
X0179352Y0192904D03*
X0176552Y0198504D03*
D265*
X0191952Y0183384D03*
X0194032Y0178424D03*
D266*
X0194032Y0178504D03*
X0191952Y0183304D03*
X0182352Y0195144D03*
D267*
X0184952Y0192504D03*
X0182792Y0185304D03*
X0182792Y0185144D03*
X0193752Y0179304D03*
X0193832Y0179144D03*
X0199432Y0178504D03*
D268*
X0186192Y0178744D03*
X0184832Y0182344D03*
D269*
X0182912Y0184824D03*
X0182672Y0185784D03*
X0182672Y0185864D03*
X0188752Y0183224D03*
X0193632Y0179624D03*
X0193712Y0179464D03*
X0193872Y0179064D03*
X0193952Y0178824D03*
D270*
X0186112Y0178904D03*
X0186672Y0189304D03*
X0184672Y0191304D03*
D271*
X0179552Y0191704D03*
X0176032Y0198744D03*
X0199392Y0178904D03*
D272*
X0186072Y0178984D03*
X0186712Y0189224D03*
D273*
X0181432Y0197384D03*
X0199432Y0178984D03*
D274*
X0186072Y0179064D03*
X0185272Y0181624D03*
X0185272Y0181784D03*
D275*
X0185992Y0179224D03*
D276*
X0185992Y0179384D03*
X0185992Y0179464D03*
X0187672Y0185464D03*
D277*
X0191752Y0185944D03*
X0194392Y0183544D03*
X0195752Y0187944D03*
X0195832Y0188104D03*
X0199592Y0187144D03*
X0200632Y0180344D03*
X0203432Y0180504D03*
X0191032Y0179544D03*
X0189032Y0181144D03*
D278*
X0191912Y0183704D03*
X0193672Y0179544D03*
X0182872Y0184904D03*
X0182712Y0185544D03*
X0179112Y0194504D03*
D279*
X0185992Y0179704D03*
D280*
X0185992Y0179944D03*
X0185992Y0180104D03*
D281*
X0185992Y0180024D03*
D282*
X0191712Y0186664D03*
X0198512Y0180664D03*
X0198512Y0180584D03*
X0198512Y0180424D03*
X0198512Y0180264D03*
X0198512Y0180184D03*
X0199712Y0180184D03*
X0199712Y0180264D03*
X0199712Y0180424D03*
X0199712Y0180584D03*
X0199712Y0180664D03*
X0201072Y0180584D03*
X0201072Y0180024D03*
X0201712Y0180184D03*
X0201712Y0180264D03*
X0201712Y0180424D03*
X0201712Y0180584D03*
X0201712Y0180664D03*
D283*
X0185992Y0180424D03*
X0185992Y0180264D03*
X0187192Y0188264D03*
D284*
X0186392Y0189864D03*
X0184392Y0183464D03*
X0184632Y0182584D03*
X0192152Y0180264D03*
D285*
X0185992Y0180344D03*
X0184552Y0190904D03*
D286*
X0186032Y0180504D03*
D287*
X0185992Y0180584D03*
X0185992Y0180664D03*
D288*
X0192152Y0180584D03*
D289*
X0186032Y0180744D03*
D290*
X0184992Y0180824D03*
D291*
X0192112Y0180824D03*
X0178672Y0197384D03*
X0178672Y0197464D03*
D292*
X0192112Y0180904D03*
D293*
X0202712Y0180904D03*
D294*
X0184752Y0180984D03*
X0182832Y0193864D03*
X0178752Y0197064D03*
D295*
X0192112Y0181144D03*
D296*
X0184632Y0181304D03*
D297*
X0187592Y0181384D03*
X0181192Y0187624D03*
X0181592Y0196984D03*
X0201992Y0186424D03*
D298*
X0192072Y0181624D03*
X0182712Y0194184D03*
D299*
X0185272Y0181704D03*
D300*
X0192072Y0181704D03*
D301*
X0185192Y0181944D03*
D302*
X0192032Y0181944D03*
D303*
X0185152Y0182024D03*
D304*
X0184992Y0182184D03*
X0184592Y0184024D03*
D305*
X0191992Y0182344D03*
X0197592Y0188744D03*
D306*
X0191992Y0182424D03*
D307*
X0191872Y0184024D03*
X0196432Y0182424D03*
X0200272Y0183624D03*
X0181472Y0192264D03*
X0179152Y0194184D03*
D308*
X0191912Y0183864D03*
X0198872Y0182424D03*
D309*
X0200392Y0183304D03*
X0196392Y0184344D03*
X0189192Y0182504D03*
D310*
X0195592Y0182664D03*
X0195592Y0190264D03*
D311*
X0189032Y0182744D03*
X0181272Y0191944D03*
X0179272Y0193544D03*
D312*
X0191992Y0182824D03*
D313*
X0188752Y0187144D03*
X0186352Y0189944D03*
X0184432Y0183304D03*
X0184432Y0183144D03*
X0184512Y0182904D03*
D314*
X0188792Y0183304D03*
D315*
X0187992Y0183464D03*
X0180792Y0190184D03*
X0176392Y0198584D03*
D316*
X0180992Y0191624D03*
X0189392Y0183464D03*
X0191792Y0185224D03*
D317*
X0191832Y0184344D03*
X0200312Y0183544D03*
D318*
X0188712Y0187304D03*
X0186472Y0189704D03*
X0184472Y0183704D03*
D319*
X0184432Y0183784D03*
D320*
X0184512Y0183944D03*
D321*
X0191912Y0183944D03*
D322*
X0191872Y0184104D03*
D323*
X0197832Y0184104D03*
X0197672Y0190744D03*
X0178872Y0196344D03*
D324*
X0191872Y0184264D03*
X0191872Y0184184D03*
D325*
X0197712Y0184184D03*
D326*
X0188312Y0184344D03*
X0182712Y0193704D03*
D327*
X0183712Y0187144D03*
X0198672Y0184344D03*
D328*
X0191872Y0184424D03*
X0181312Y0192024D03*
D329*
X0176912Y0198344D03*
X0191872Y0184504D03*
D330*
X0195792Y0184904D03*
X0194592Y0189544D03*
D331*
X0187752Y0184984D03*
X0186792Y0189064D03*
X0184632Y0191224D03*
D332*
X0180992Y0188744D03*
X0193392Y0187544D03*
X0193392Y0187304D03*
X0193392Y0185544D03*
X0201792Y0185144D03*
X0201792Y0187704D03*
D333*
X0187672Y0185224D03*
D334*
X0193392Y0185384D03*
X0193392Y0185464D03*
X0193392Y0185624D03*
X0193392Y0187384D03*
X0193392Y0187464D03*
X0201792Y0187784D03*
X0201792Y0185224D03*
X0180992Y0188584D03*
X0180992Y0188664D03*
X0180992Y0188824D03*
D335*
X0187712Y0185304D03*
D336*
X0187712Y0185544D03*
X0187712Y0185704D03*
D337*
X0187712Y0185784D03*
X0187712Y0185624D03*
D338*
X0187752Y0185944D03*
X0187832Y0186344D03*
X0187912Y0186504D03*
D339*
X0187792Y0186104D03*
D340*
X0187792Y0186184D03*
X0184592Y0190984D03*
D341*
X0180392Y0190904D03*
X0181192Y0187704D03*
X0201992Y0186504D03*
X0201992Y0186344D03*
D342*
X0182672Y0186584D03*
X0179072Y0195064D03*
D343*
X0188712Y0186904D03*
X0188712Y0186744D03*
D344*
X0188552Y0187464D03*
D345*
X0187432Y0187624D03*
D346*
X0187392Y0187704D03*
D347*
X0187392Y0187784D03*
D348*
X0187352Y0187864D03*
D349*
X0187312Y0188024D03*
D350*
X0187072Y0188504D03*
D351*
X0186992Y0188664D03*
X0184592Y0191064D03*
D352*
X0184632Y0191144D03*
X0186872Y0188904D03*
D353*
X0197592Y0189304D03*
D354*
X0186512Y0189624D03*
D355*
X0186152Y0190344D03*
X0178712Y0197304D03*
D356*
X0199512Y0190344D03*
D357*
X0199272Y0190424D03*
X0181112Y0191784D03*
X0179272Y0193384D03*
D358*
X0184512Y0190664D03*
D359*
X0184552Y0190744D03*
D360*
X0184792Y0191784D03*
D361*
X0184832Y0191944D03*
X0178832Y0196504D03*
D362*
X0182472Y0194824D03*
X0184872Y0192264D03*
D363*
X0179192Y0194024D03*
D364*
X0182672Y0194344D03*
D365*
X0178992Y0195304D03*
D366*
X0178912Y0195944D03*
D367*
X0178192Y0197784D03*
M02*
