G75*
%MOIN*%
%OFA0B0*%
%FSLAX25Y25*%
%IPPOS*%
%LPD*%
%AMOC8*
5,1,8,0,0,1.08239X$1,22.5*
%
%ADD10R,0.08200X0.08200*%
%ADD11C,0.01640*%
%ADD12C,0.08200*%
%ADD13C,0.03900*%
%ADD14C,0.03975*%
D10*
G36*
X0210332Y0266535D02*
X0203363Y0262214D01*
X0199042Y0269183D01*
X0206011Y0273504D01*
X0210332Y0266535D01*
G37*
D11*
X0215869Y0272882D02*
X0216689Y0273702D01*
X0216068Y0271056D01*
X0213760Y0269625D01*
X0211114Y0270246D01*
X0209683Y0272554D01*
X0210304Y0275200D01*
X0212612Y0276631D01*
X0215258Y0276010D01*
X0216689Y0273702D01*
X0215375Y0273486D01*
X0214987Y0271834D01*
X0213544Y0270939D01*
X0211892Y0271327D01*
X0210997Y0272770D01*
X0211385Y0274422D01*
X0212828Y0275317D01*
X0214480Y0274929D01*
X0215375Y0273486D01*
X0214061Y0273271D01*
X0213906Y0272610D01*
X0213329Y0272253D01*
X0212668Y0272408D01*
X0212311Y0272985D01*
X0212466Y0273646D01*
X0213043Y0274003D01*
X0213704Y0273848D01*
X0214061Y0273271D01*
X0224368Y0278152D02*
X0225188Y0278972D01*
X0224567Y0276326D01*
X0222259Y0274895D01*
X0219613Y0275516D01*
X0218182Y0277824D01*
X0218803Y0280470D01*
X0221111Y0281901D01*
X0223757Y0281280D01*
X0225188Y0278972D01*
X0223874Y0278756D01*
X0223486Y0277104D01*
X0222043Y0276209D01*
X0220391Y0276597D01*
X0219496Y0278040D01*
X0219884Y0279692D01*
X0221327Y0280587D01*
X0222979Y0280199D01*
X0223874Y0278756D01*
X0222560Y0278541D01*
X0222405Y0277880D01*
X0221828Y0277523D01*
X0221167Y0277678D01*
X0220810Y0278255D01*
X0220965Y0278916D01*
X0221542Y0279273D01*
X0222203Y0279118D01*
X0222560Y0278541D01*
X0219099Y0286651D02*
X0219919Y0287471D01*
X0219298Y0284825D01*
X0216990Y0283394D01*
X0214344Y0284015D01*
X0212913Y0286323D01*
X0213534Y0288969D01*
X0215842Y0290400D01*
X0218488Y0289779D01*
X0219919Y0287471D01*
X0218605Y0287255D01*
X0218217Y0285603D01*
X0216774Y0284708D01*
X0215122Y0285096D01*
X0214227Y0286539D01*
X0214615Y0288191D01*
X0216058Y0289086D01*
X0217710Y0288698D01*
X0218605Y0287255D01*
X0217291Y0287040D01*
X0217136Y0286379D01*
X0216559Y0286022D01*
X0215898Y0286177D01*
X0215541Y0286754D01*
X0215696Y0287415D01*
X0216273Y0287772D01*
X0216934Y0287617D01*
X0217291Y0287040D01*
X0210600Y0281381D02*
X0211420Y0282201D01*
X0210799Y0279555D01*
X0208491Y0278124D01*
X0205845Y0278745D01*
X0204414Y0281053D01*
X0205035Y0283699D01*
X0207343Y0285130D01*
X0209989Y0284509D01*
X0211420Y0282201D01*
X0210106Y0281985D01*
X0209718Y0280333D01*
X0208275Y0279438D01*
X0206623Y0279826D01*
X0205728Y0281269D01*
X0206116Y0282921D01*
X0207559Y0283816D01*
X0209211Y0283428D01*
X0210106Y0281985D01*
X0208792Y0281770D01*
X0208637Y0281109D01*
X0208060Y0280752D01*
X0207399Y0280907D01*
X0207042Y0281484D01*
X0207197Y0282145D01*
X0207774Y0282502D01*
X0208435Y0282347D01*
X0208792Y0281770D01*
X0202101Y0276112D02*
X0202921Y0276932D01*
X0202300Y0274286D01*
X0199992Y0272855D01*
X0197346Y0273476D01*
X0195915Y0275784D01*
X0196536Y0278430D01*
X0198844Y0279861D01*
X0201490Y0279240D01*
X0202921Y0276932D01*
X0201607Y0276716D01*
X0201219Y0275064D01*
X0199776Y0274169D01*
X0198124Y0274557D01*
X0197229Y0276000D01*
X0197617Y0277652D01*
X0199060Y0278547D01*
X0200712Y0278159D01*
X0201607Y0276716D01*
X0200293Y0276501D01*
X0200138Y0275840D01*
X0199561Y0275483D01*
X0198900Y0275638D01*
X0198543Y0276215D01*
X0198698Y0276876D01*
X0199275Y0277233D01*
X0199936Y0277078D01*
X0200293Y0276501D01*
D12*
X0169370Y0157535D03*
X0165255Y0166649D03*
X0186496Y0137457D03*
X0193530Y0130349D03*
X0239725Y0102417D03*
X0249708Y0102993D03*
X0259692Y0103569D03*
X0269675Y0104144D03*
X0279658Y0104720D03*
X0289642Y0105296D03*
X0318189Y0121118D03*
X0325395Y0128052D03*
X0329961Y0265173D03*
X0323736Y0272999D03*
X0284646Y0293402D03*
X0274646Y0293402D03*
X0264646Y0293402D03*
X0254646Y0293402D03*
X0244646Y0293402D03*
X0234646Y0293402D03*
X0183398Y0261318D03*
X0177835Y0253008D03*
X0169475Y0223927D03*
X0168032Y0214031D03*
X0166588Y0204136D03*
D13*
X0214375Y0222755D03*
X0221763Y0228735D03*
X0225632Y0225921D03*
X0224928Y0216775D03*
X0232667Y0207277D03*
X0252015Y0225921D03*
X0254829Y0232956D03*
X0241814Y0236122D03*
X0227039Y0245269D03*
X0231964Y0254415D03*
X0249059Y0269989D03*
X0251663Y0260395D03*
X0267845Y0245972D03*
X0277342Y0246676D03*
X0282619Y0233308D03*
X0291765Y0235771D03*
X0295986Y0235771D03*
X0304429Y0235771D03*
X0295635Y0223459D03*
X0320259Y0230846D03*
X0297239Y0266727D03*
X0286334Y0266769D03*
X0280508Y0280446D03*
X0303374Y0281501D03*
X0241814Y0285019D03*
X0257643Y0207629D03*
X0260457Y0195669D03*
X0265382Y0190744D03*
X0262568Y0181950D03*
X0259754Y0166823D03*
X0269603Y0166823D03*
X0275584Y0172804D03*
X0282267Y0173859D03*
X0282619Y0169638D03*
X0295283Y0173859D03*
X0300559Y0168582D03*
X0300559Y0155567D03*
X0307243Y0148883D03*
X0310057Y0146069D03*
X0322369Y0164009D03*
X0272066Y0131294D03*
X0265382Y0137978D03*
X0233723Y0137978D03*
D14*
X0319174Y0181315D03*
X0319370Y0187024D03*
X0325276Y0186827D03*
X0325079Y0181118D03*
X0330985Y0181118D03*
X0331181Y0186630D03*
X0319174Y0198638D03*
X0322520Y0223047D03*
X0330197Y0223047D03*
M02*
