G75*
%MOIN*%
%OFA0B0*%
%FSLAX25Y25*%
%IPPOS*%
%LPD*%
%AMOC8*
5,1,8,0,0,1.08239X$1,22.5*
%
%ADD10R,0.07400X0.07400*%
%ADD11C,0.01480*%
%ADD12C,0.07400*%
%ADD13C,0.01600*%
%ADD14C,0.00600*%
%ADD15C,0.03100*%
%ADD16C,0.03175*%
%ADD17C,0.01800*%
D10*
G36*
X0209781Y0266665D02*
X0203493Y0262765D01*
X0199593Y0269053D01*
X0205881Y0272953D01*
X0209781Y0266665D01*
G37*
D11*
X0215607Y0272905D02*
X0216347Y0273645D01*
X0215787Y0271259D01*
X0213703Y0269967D01*
X0211317Y0270527D01*
X0210025Y0272611D01*
X0210585Y0274997D01*
X0212669Y0276289D01*
X0215055Y0275729D01*
X0216347Y0273645D01*
X0215161Y0273451D01*
X0214811Y0271960D01*
X0213509Y0271153D01*
X0212018Y0271503D01*
X0211211Y0272805D01*
X0211561Y0274296D01*
X0212863Y0275103D01*
X0214354Y0274753D01*
X0215161Y0273451D01*
X0213976Y0273257D01*
X0213836Y0272661D01*
X0213315Y0272338D01*
X0212719Y0272478D01*
X0212396Y0272999D01*
X0212536Y0273595D01*
X0213057Y0273918D01*
X0213653Y0273778D01*
X0213976Y0273257D01*
X0224106Y0278175D02*
X0224846Y0278915D01*
X0224286Y0276529D01*
X0222202Y0275237D01*
X0219816Y0275797D01*
X0218524Y0277881D01*
X0219084Y0280267D01*
X0221168Y0281559D01*
X0223554Y0280999D01*
X0224846Y0278915D01*
X0223660Y0278721D01*
X0223310Y0277230D01*
X0222008Y0276423D01*
X0220517Y0276773D01*
X0219710Y0278075D01*
X0220060Y0279566D01*
X0221362Y0280373D01*
X0222853Y0280023D01*
X0223660Y0278721D01*
X0222475Y0278527D01*
X0222335Y0277931D01*
X0221814Y0277608D01*
X0221218Y0277748D01*
X0220895Y0278269D01*
X0221035Y0278865D01*
X0221556Y0279188D01*
X0222152Y0279048D01*
X0222475Y0278527D01*
X0218837Y0286674D02*
X0219577Y0287414D01*
X0219017Y0285028D01*
X0216933Y0283736D01*
X0214547Y0284296D01*
X0213255Y0286380D01*
X0213815Y0288766D01*
X0215899Y0290058D01*
X0218285Y0289498D01*
X0219577Y0287414D01*
X0218391Y0287220D01*
X0218041Y0285729D01*
X0216739Y0284922D01*
X0215248Y0285272D01*
X0214441Y0286574D01*
X0214791Y0288065D01*
X0216093Y0288872D01*
X0217584Y0288522D01*
X0218391Y0287220D01*
X0217206Y0287026D01*
X0217066Y0286430D01*
X0216545Y0286107D01*
X0215949Y0286247D01*
X0215626Y0286768D01*
X0215766Y0287364D01*
X0216287Y0287687D01*
X0216883Y0287547D01*
X0217206Y0287026D01*
X0210338Y0281404D02*
X0211078Y0282144D01*
X0210518Y0279758D01*
X0208434Y0278466D01*
X0206048Y0279026D01*
X0204756Y0281110D01*
X0205316Y0283496D01*
X0207400Y0284788D01*
X0209786Y0284228D01*
X0211078Y0282144D01*
X0209892Y0281950D01*
X0209542Y0280459D01*
X0208240Y0279652D01*
X0206749Y0280002D01*
X0205942Y0281304D01*
X0206292Y0282795D01*
X0207594Y0283602D01*
X0209085Y0283252D01*
X0209892Y0281950D01*
X0208707Y0281756D01*
X0208567Y0281160D01*
X0208046Y0280837D01*
X0207450Y0280977D01*
X0207127Y0281498D01*
X0207267Y0282094D01*
X0207788Y0282417D01*
X0208384Y0282277D01*
X0208707Y0281756D01*
X0201839Y0276135D02*
X0202579Y0276875D01*
X0202019Y0274489D01*
X0199935Y0273197D01*
X0197549Y0273757D01*
X0196257Y0275841D01*
X0196817Y0278227D01*
X0198901Y0279519D01*
X0201287Y0278959D01*
X0202579Y0276875D01*
X0201393Y0276681D01*
X0201043Y0275190D01*
X0199741Y0274383D01*
X0198250Y0274733D01*
X0197443Y0276035D01*
X0197793Y0277526D01*
X0199095Y0278333D01*
X0200586Y0277983D01*
X0201393Y0276681D01*
X0200208Y0276487D01*
X0200068Y0275891D01*
X0199547Y0275568D01*
X0198951Y0275708D01*
X0198628Y0276229D01*
X0198768Y0276825D01*
X0199289Y0277148D01*
X0199885Y0277008D01*
X0200208Y0276487D01*
D12*
X0169370Y0157535D03*
X0165255Y0166649D03*
X0186496Y0137457D03*
X0193530Y0130349D03*
X0239725Y0102417D03*
X0249708Y0102993D03*
X0259692Y0103569D03*
X0269675Y0104144D03*
X0279658Y0104720D03*
X0289642Y0105296D03*
X0318189Y0121118D03*
X0325395Y0128052D03*
X0329961Y0265173D03*
X0323736Y0272999D03*
X0284646Y0293402D03*
X0274646Y0293402D03*
X0264646Y0293402D03*
X0254646Y0293402D03*
X0244646Y0293402D03*
X0234646Y0293402D03*
X0183398Y0261318D03*
X0177835Y0253008D03*
X0169475Y0223927D03*
X0168032Y0214031D03*
X0166588Y0204136D03*
D13*
X0314449Y0203630D02*
X0335709Y0203630D01*
X0335709Y0202032D02*
X0314449Y0202032D01*
X0314449Y0200433D02*
X0335709Y0200433D01*
X0335709Y0198835D02*
X0314449Y0198835D01*
X0314449Y0197236D02*
X0335709Y0197236D01*
X0335709Y0195638D02*
X0314449Y0195638D01*
X0314449Y0194039D02*
X0335709Y0194039D01*
X0335709Y0192441D02*
X0314449Y0192441D01*
X0314449Y0190842D02*
X0335709Y0190842D01*
X0335709Y0189244D02*
X0314449Y0189244D01*
X0314449Y0187645D02*
X0335709Y0187645D01*
X0335709Y0186047D02*
X0314449Y0186047D01*
X0314449Y0184448D02*
X0335709Y0184448D01*
X0335709Y0182850D02*
X0314449Y0182850D01*
X0314449Y0181251D02*
X0335709Y0181251D01*
X0335709Y0179653D02*
X0314449Y0179653D01*
X0314449Y0178054D02*
X0335709Y0178054D01*
X0335709Y0176455D02*
X0314449Y0176455D01*
X0314449Y0175409D02*
X0314449Y0216216D01*
X0324523Y0226290D01*
X0335709Y0226394D01*
X0335709Y0175606D01*
X0314449Y0175409D01*
X0314449Y0205229D02*
X0335709Y0205229D01*
X0335709Y0206827D02*
X0314449Y0206827D01*
X0314449Y0208426D02*
X0335709Y0208426D01*
X0335709Y0210024D02*
X0314449Y0210024D01*
X0314449Y0211623D02*
X0335709Y0211623D01*
X0335709Y0213221D02*
X0314449Y0213221D01*
X0314449Y0214820D02*
X0335709Y0214820D01*
X0335709Y0216418D02*
X0314651Y0216418D01*
X0316250Y0218017D02*
X0335709Y0218017D01*
X0335709Y0219615D02*
X0317848Y0219615D01*
X0319447Y0221214D02*
X0335709Y0221214D01*
X0335709Y0222812D02*
X0321045Y0222812D01*
X0322644Y0224411D02*
X0335709Y0224411D01*
X0335709Y0226009D02*
X0324242Y0226009D01*
D14*
X0324489Y0228953D02*
X0303426Y0207890D01*
X0303426Y0174031D01*
X0313448Y0164009D01*
X0322369Y0164009D01*
X0307243Y0148883D02*
X0303374Y0148883D01*
X0288247Y0164009D01*
X0284378Y0164009D01*
X0275584Y0172804D01*
X0278398Y0173859D02*
X0254829Y0197428D01*
X0254829Y0232956D01*
X0257643Y0234012D02*
X0255533Y0236122D01*
X0241814Y0236122D01*
X0228798Y0245269D02*
X0255199Y0271669D01*
X0292796Y0271669D01*
X0294776Y0269689D01*
X0294776Y0269386D01*
X0297239Y0266923D01*
X0297239Y0266727D01*
X0292469Y0278687D02*
X0278046Y0293109D01*
X0274880Y0293109D01*
X0274646Y0293402D01*
X0272769Y0298386D02*
X0286489Y0298386D01*
X0303374Y0281501D01*
X0292469Y0278687D02*
X0325183Y0278687D01*
X0335033Y0268837D01*
X0335033Y0262857D01*
X0330460Y0258284D01*
X0310409Y0258284D01*
X0285433Y0233308D01*
X0282619Y0233308D01*
X0281564Y0230494D02*
X0277342Y0234715D01*
X0277342Y0246676D01*
X0270659Y0247027D02*
X0268900Y0248786D01*
X0241814Y0248786D01*
X0221763Y0228735D01*
X0221763Y0225921D01*
X0229502Y0218182D01*
X0230909Y0218182D01*
X0259754Y0189337D01*
X0259754Y0166823D01*
X0269603Y0166823D01*
X0278398Y0173859D02*
X0282267Y0173859D01*
X0282619Y0169638D02*
X0286489Y0169638D01*
X0300559Y0155567D01*
X0298449Y0146069D02*
X0262568Y0181950D01*
X0265382Y0190744D02*
X0260457Y0195669D01*
X0257643Y0207629D02*
X0257643Y0234012D01*
X0252015Y0225921D02*
X0225632Y0225921D01*
X0224928Y0216775D02*
X0230205Y0216775D01*
X0232667Y0214313D01*
X0232667Y0207277D01*
X0214375Y0222755D02*
X0209451Y0217830D01*
X0209451Y0194262D01*
X0233723Y0169989D01*
X0233723Y0137978D01*
X0265382Y0137978D02*
X0272066Y0131294D01*
X0298449Y0146069D02*
X0310057Y0146069D01*
X0300559Y0168582D02*
X0300559Y0207629D01*
X0320962Y0228032D01*
X0321314Y0228032D01*
X0323073Y0229791D01*
X0323073Y0231901D01*
X0321314Y0233660D01*
X0306188Y0233660D01*
X0303022Y0230494D01*
X0281564Y0230494D01*
X0286489Y0223459D02*
X0270659Y0239288D01*
X0270659Y0247027D01*
X0291765Y0235771D02*
X0294579Y0238585D01*
X0318500Y0238585D01*
X0324489Y0232596D01*
X0324489Y0228953D01*
X0320259Y0230846D02*
X0305484Y0230846D01*
X0298097Y0223459D01*
X0295635Y0223459D01*
X0286489Y0223459D01*
X0295283Y0223107D02*
X0295635Y0223459D01*
X0295283Y0223107D02*
X0295283Y0173859D01*
X0295986Y0235771D02*
X0304429Y0235771D01*
X0260457Y0282205D02*
X0269603Y0291351D01*
X0269603Y0295220D01*
X0272769Y0298386D01*
X0260457Y0282205D02*
X0230557Y0282205D01*
X0227039Y0278687D01*
X0221763Y0278687D01*
X0221685Y0278398D01*
X0218597Y0282205D02*
X0218245Y0282205D01*
X0217541Y0281501D01*
X0208043Y0281501D01*
X0207917Y0281627D01*
X0218597Y0282205D02*
X0219300Y0282908D01*
X0219652Y0282908D01*
X0220004Y0283260D01*
X0220355Y0283260D01*
X0222114Y0285019D01*
X0241814Y0285019D01*
X0231964Y0254415D02*
X0187289Y0254415D01*
X0180605Y0247731D01*
X0175680Y0247731D01*
X0172515Y0250897D01*
X0172515Y0257932D01*
X0182364Y0267782D01*
X0204526Y0267782D01*
X0204687Y0267859D01*
X0227039Y0245269D02*
X0228798Y0245269D01*
D15*
X0227039Y0245269D03*
X0231964Y0254415D03*
X0241814Y0236122D03*
X0254829Y0232956D03*
X0252015Y0225921D03*
X0257643Y0207629D03*
X0260457Y0195669D03*
X0265382Y0190744D03*
X0262568Y0181950D03*
X0259754Y0166823D03*
X0269603Y0166823D03*
X0275584Y0172804D03*
X0282267Y0173859D03*
X0282619Y0169638D03*
X0295283Y0173859D03*
X0300559Y0168582D03*
X0300559Y0155567D03*
X0307243Y0148883D03*
X0310057Y0146069D03*
X0322369Y0164009D03*
X0272066Y0131294D03*
X0265382Y0137978D03*
X0233723Y0137978D03*
X0232667Y0207277D03*
X0224928Y0216775D03*
X0225632Y0225921D03*
X0221763Y0228735D03*
X0214375Y0222755D03*
X0251663Y0260395D03*
X0249059Y0269989D03*
X0241814Y0285019D03*
X0280508Y0280446D03*
X0286334Y0266769D03*
X0297239Y0266727D03*
X0303374Y0281501D03*
X0277342Y0246676D03*
X0267845Y0245972D03*
X0282619Y0233308D03*
X0291765Y0235771D03*
X0295986Y0235771D03*
X0304429Y0235771D03*
X0295635Y0223459D03*
X0320259Y0230846D03*
D16*
X0322520Y0223047D03*
X0330197Y0223047D03*
X0319174Y0198638D03*
X0319370Y0187024D03*
X0319174Y0181315D03*
X0325079Y0181118D03*
X0325276Y0186827D03*
X0331181Y0186630D03*
X0330985Y0181118D03*
D17*
X0322526Y0130921D02*
X0290237Y0130921D01*
X0283544Y0124228D01*
X0202048Y0124228D01*
X0195927Y0130349D01*
X0193530Y0130349D01*
X0186496Y0137457D02*
X0186496Y0142339D01*
X0183544Y0145291D01*
X0183544Y0196848D01*
X0253464Y0266769D01*
X0286334Y0266769D01*
X0294931Y0273058D02*
X0323425Y0273058D01*
X0323736Y0272999D01*
X0329961Y0265173D02*
X0329756Y0264968D01*
X0325183Y0260395D01*
X0251663Y0260395D01*
X0249059Y0269989D02*
X0225025Y0269989D01*
X0211561Y0256525D01*
X0186234Y0256525D01*
X0183068Y0253359D01*
X0178143Y0253359D01*
X0177835Y0253008D01*
X0183771Y0260746D02*
X0183419Y0261098D01*
X0183398Y0261318D01*
X0183771Y0260746D02*
X0212265Y0260746D01*
X0231612Y0280094D01*
X0279805Y0280094D01*
X0280508Y0280446D01*
X0287544Y0280446D01*
X0294931Y0273058D01*
X0267845Y0245972D02*
X0267845Y0193206D01*
X0330812Y0130239D01*
X0330812Y0126018D01*
X0326239Y0121445D01*
X0318500Y0121445D01*
X0318189Y0121118D01*
X0325395Y0128052D02*
X0322526Y0130921D01*
M02*
