G75*
%MOIN*%
%OFA0B0*%
%FSLAX25Y25*%
%IPPOS*%
%LPD*%
%AMOC8*
5,1,8,0,0,1.08239X$1,22.5*
%
%ADD10R,0.01378X0.03150*%
%ADD11R,0.05118X0.05906*%
%ADD12R,0.05906X0.05118*%
%ADD13R,0.00787X0.03346*%
%ADD14R,0.03346X0.00787*%
%ADD15R,0.07400X0.07400*%
%ADD16C,0.01480*%
%ADD17C,0.07400*%
%ADD18R,0.04724X0.04724*%
%ADD19R,0.03000X0.06000*%
%ADD20R,0.04000X0.10000*%
%ADD21R,0.02362X0.03937*%
%ADD22R,0.04724X0.02165*%
%ADD23R,0.03937X0.05906*%
%ADD24R,0.11417X0.08071*%
%ADD25R,0.03937X0.02362*%
%ADD26R,0.06150X0.01102*%
%ADD27R,0.01102X0.06150*%
%ADD28R,0.25400X0.25400*%
%ADD29R,0.07480X0.04331*%
%ADD30C,0.00600*%
%ADD31C,0.01600*%
%ADD32C,0.01800*%
%ADD33C,0.03100*%
%ADD34C,0.03175*%
D10*
X0323662Y0194661D03*
X0326221Y0194661D03*
X0328780Y0194661D03*
X0328780Y0200961D03*
X0326221Y0200961D03*
X0323662Y0200961D03*
D11*
X0296536Y0241354D03*
X0289843Y0241354D03*
X0278819Y0241354D03*
X0272126Y0241354D03*
X0261103Y0241551D03*
X0254410Y0241551D03*
X0243780Y0241551D03*
X0237087Y0241551D03*
X0220000Y0237929D03*
X0212520Y0237929D03*
X0212520Y0248953D03*
X0220000Y0248953D03*
X0217796Y0174622D03*
X0225276Y0174622D03*
X0236496Y0174622D03*
X0243977Y0174622D03*
X0247244Y0153638D03*
X0253937Y0153638D03*
X0234331Y0153835D03*
X0226851Y0153835D03*
X0226654Y0143638D03*
X0234134Y0143638D03*
X0208465Y0159583D03*
X0200985Y0159583D03*
X0276851Y0145685D03*
X0284331Y0145685D03*
X0294567Y0145685D03*
X0302048Y0145685D03*
X0326890Y0154819D03*
X0333583Y0154819D03*
D12*
X0305906Y0155961D03*
X0305906Y0163441D03*
X0265118Y0127457D03*
X0265118Y0119976D03*
X0247441Y0192339D03*
X0247441Y0199031D03*
X0247520Y0210449D03*
X0247520Y0217142D03*
X0199370Y0214740D03*
X0199370Y0222220D03*
X0199174Y0203008D03*
X0199174Y0195528D03*
X0313347Y0235685D03*
X0313347Y0243165D03*
X0323426Y0242496D03*
X0323426Y0235803D03*
X0320748Y0216354D03*
X0320748Y0208874D03*
X0330197Y0208874D03*
X0330197Y0216354D03*
D13*
X0225433Y0212398D03*
X0223465Y0212398D03*
X0221496Y0212398D03*
X0219528Y0212398D03*
X0217559Y0212398D03*
X0215591Y0212398D03*
X0215591Y0196846D03*
X0217559Y0196846D03*
X0219528Y0196846D03*
X0221496Y0196846D03*
X0223465Y0196846D03*
X0225433Y0196846D03*
D14*
X0228288Y0199701D03*
X0228288Y0201669D03*
X0228288Y0203638D03*
X0228288Y0205606D03*
X0228288Y0207575D03*
X0228288Y0209543D03*
X0212737Y0209543D03*
X0212737Y0207575D03*
X0212737Y0205606D03*
X0212737Y0203638D03*
X0212737Y0201669D03*
X0212737Y0199701D03*
D15*
G36*
X0209781Y0266665D02*
X0203493Y0262765D01*
X0199593Y0269053D01*
X0205881Y0272953D01*
X0209781Y0266665D01*
G37*
D16*
X0215607Y0272905D02*
X0216347Y0273645D01*
X0215787Y0271259D01*
X0213703Y0269967D01*
X0211317Y0270527D01*
X0210025Y0272611D01*
X0210585Y0274997D01*
X0212669Y0276289D01*
X0215055Y0275729D01*
X0216347Y0273645D01*
X0215161Y0273451D01*
X0214811Y0271960D01*
X0213509Y0271153D01*
X0212018Y0271503D01*
X0211211Y0272805D01*
X0211561Y0274296D01*
X0212863Y0275103D01*
X0214354Y0274753D01*
X0215161Y0273451D01*
X0213976Y0273257D01*
X0213836Y0272661D01*
X0213315Y0272338D01*
X0212719Y0272478D01*
X0212396Y0272999D01*
X0212536Y0273595D01*
X0213057Y0273918D01*
X0213653Y0273778D01*
X0213976Y0273257D01*
X0224106Y0278175D02*
X0224846Y0278915D01*
X0224286Y0276529D01*
X0222202Y0275237D01*
X0219816Y0275797D01*
X0218524Y0277881D01*
X0219084Y0280267D01*
X0221168Y0281559D01*
X0223554Y0280999D01*
X0224846Y0278915D01*
X0223660Y0278721D01*
X0223310Y0277230D01*
X0222008Y0276423D01*
X0220517Y0276773D01*
X0219710Y0278075D01*
X0220060Y0279566D01*
X0221362Y0280373D01*
X0222853Y0280023D01*
X0223660Y0278721D01*
X0222475Y0278527D01*
X0222335Y0277931D01*
X0221814Y0277608D01*
X0221218Y0277748D01*
X0220895Y0278269D01*
X0221035Y0278865D01*
X0221556Y0279188D01*
X0222152Y0279048D01*
X0222475Y0278527D01*
X0218837Y0286674D02*
X0219577Y0287414D01*
X0219017Y0285028D01*
X0216933Y0283736D01*
X0214547Y0284296D01*
X0213255Y0286380D01*
X0213815Y0288766D01*
X0215899Y0290058D01*
X0218285Y0289498D01*
X0219577Y0287414D01*
X0218391Y0287220D01*
X0218041Y0285729D01*
X0216739Y0284922D01*
X0215248Y0285272D01*
X0214441Y0286574D01*
X0214791Y0288065D01*
X0216093Y0288872D01*
X0217584Y0288522D01*
X0218391Y0287220D01*
X0217206Y0287026D01*
X0217066Y0286430D01*
X0216545Y0286107D01*
X0215949Y0286247D01*
X0215626Y0286768D01*
X0215766Y0287364D01*
X0216287Y0287687D01*
X0216883Y0287547D01*
X0217206Y0287026D01*
X0210338Y0281404D02*
X0211078Y0282144D01*
X0210518Y0279758D01*
X0208434Y0278466D01*
X0206048Y0279026D01*
X0204756Y0281110D01*
X0205316Y0283496D01*
X0207400Y0284788D01*
X0209786Y0284228D01*
X0211078Y0282144D01*
X0209892Y0281950D01*
X0209542Y0280459D01*
X0208240Y0279652D01*
X0206749Y0280002D01*
X0205942Y0281304D01*
X0206292Y0282795D01*
X0207594Y0283602D01*
X0209085Y0283252D01*
X0209892Y0281950D01*
X0208707Y0281756D01*
X0208567Y0281160D01*
X0208046Y0280837D01*
X0207450Y0280977D01*
X0207127Y0281498D01*
X0207267Y0282094D01*
X0207788Y0282417D01*
X0208384Y0282277D01*
X0208707Y0281756D01*
X0201839Y0276135D02*
X0202579Y0276875D01*
X0202019Y0274489D01*
X0199935Y0273197D01*
X0197549Y0273757D01*
X0196257Y0275841D01*
X0196817Y0278227D01*
X0198901Y0279519D01*
X0201287Y0278959D01*
X0202579Y0276875D01*
X0201393Y0276681D01*
X0201043Y0275190D01*
X0199741Y0274383D01*
X0198250Y0274733D01*
X0197443Y0276035D01*
X0197793Y0277526D01*
X0199095Y0278333D01*
X0200586Y0277983D01*
X0201393Y0276681D01*
X0200208Y0276487D01*
X0200068Y0275891D01*
X0199547Y0275568D01*
X0198951Y0275708D01*
X0198628Y0276229D01*
X0198768Y0276825D01*
X0199289Y0277148D01*
X0199885Y0277008D01*
X0200208Y0276487D01*
D17*
X0183398Y0261318D03*
X0177835Y0253008D03*
X0169475Y0223927D03*
X0168032Y0214031D03*
X0166588Y0204136D03*
X0165255Y0166649D03*
X0169370Y0157535D03*
X0186496Y0137457D03*
X0193530Y0130349D03*
X0239725Y0102417D03*
X0249708Y0102993D03*
X0259692Y0103569D03*
X0269675Y0104144D03*
X0279658Y0104720D03*
X0289642Y0105296D03*
X0318189Y0121118D03*
X0325395Y0128052D03*
X0329961Y0265173D03*
X0323736Y0272999D03*
X0284646Y0293402D03*
X0274646Y0293402D03*
X0264646Y0293402D03*
X0254646Y0293402D03*
X0244646Y0293402D03*
X0234646Y0293402D03*
D18*
X0326024Y0145449D03*
X0334292Y0145449D03*
X0254764Y0143441D03*
X0246496Y0143441D03*
D19*
G36*
X0229666Y0119627D02*
X0226973Y0120946D01*
X0229612Y0126333D01*
X0232305Y0125014D01*
X0229666Y0119627D01*
G37*
G36*
X0216195Y0126226D02*
X0213502Y0127545D01*
X0216141Y0132932D01*
X0218834Y0131613D01*
X0216195Y0126226D01*
G37*
G36*
X0207397Y0108265D02*
X0204704Y0109584D01*
X0207343Y0114971D01*
X0210036Y0113652D01*
X0207397Y0108265D01*
G37*
G36*
X0220867Y0101666D02*
X0218174Y0102985D01*
X0220813Y0108372D01*
X0223506Y0107053D01*
X0220867Y0101666D01*
G37*
D20*
X0334796Y0198283D03*
X0360796Y0198283D03*
D21*
X0292363Y0270567D03*
X0292363Y0280803D03*
X0259489Y0280567D03*
X0259489Y0270331D03*
X0243740Y0270213D03*
X0243740Y0280449D03*
D22*
X0210552Y0148953D03*
X0210552Y0141472D03*
X0200315Y0141472D03*
X0200315Y0145213D03*
X0200315Y0148953D03*
D23*
X0239449Y0252516D03*
X0246929Y0252516D03*
X0256339Y0252516D03*
X0263819Y0252516D03*
X0272048Y0252319D03*
X0279528Y0252319D03*
X0288544Y0252122D03*
X0296024Y0252122D03*
D24*
X0292284Y0260094D03*
X0275788Y0260291D03*
X0260079Y0260488D03*
X0243189Y0260488D03*
D25*
G36*
X0274437Y0268681D02*
X0274444Y0272616D01*
X0276805Y0272611D01*
X0276798Y0268676D01*
X0274437Y0268681D01*
G37*
G36*
X0274455Y0278917D02*
X0274462Y0282852D01*
X0276823Y0282847D01*
X0276816Y0278912D01*
X0274455Y0278917D01*
G37*
D26*
X0271099Y0213402D03*
X0271099Y0211433D03*
X0271099Y0209465D03*
X0271099Y0207496D03*
X0271099Y0205528D03*
X0271099Y0203559D03*
X0271099Y0201591D03*
X0271099Y0199622D03*
X0271099Y0197654D03*
X0271099Y0195685D03*
X0271099Y0193717D03*
X0271099Y0191748D03*
X0271099Y0189780D03*
X0271099Y0187811D03*
X0271099Y0185843D03*
X0271099Y0183874D03*
X0309532Y0183874D03*
X0309532Y0185843D03*
X0309532Y0187811D03*
X0309532Y0189780D03*
X0309532Y0191748D03*
X0309532Y0193717D03*
X0309532Y0195685D03*
X0309532Y0197654D03*
X0309532Y0199622D03*
X0309532Y0201591D03*
X0309532Y0203559D03*
X0309532Y0205528D03*
X0309532Y0207496D03*
X0309532Y0209465D03*
X0309532Y0211433D03*
X0309532Y0213402D03*
D27*
X0305079Y0217854D03*
X0303111Y0217854D03*
X0301142Y0217854D03*
X0299174Y0217854D03*
X0297205Y0217854D03*
X0295237Y0217854D03*
X0293268Y0217854D03*
X0291300Y0217854D03*
X0289331Y0217854D03*
X0287363Y0217854D03*
X0285394Y0217854D03*
X0283426Y0217854D03*
X0281457Y0217854D03*
X0279489Y0217854D03*
X0277520Y0217854D03*
X0275552Y0217854D03*
X0275552Y0179421D03*
X0277520Y0179421D03*
X0279489Y0179421D03*
X0281457Y0179421D03*
X0283426Y0179421D03*
X0285394Y0179421D03*
X0287363Y0179421D03*
X0289331Y0179421D03*
X0291300Y0179421D03*
X0293268Y0179421D03*
X0295237Y0179421D03*
X0297205Y0179421D03*
X0299174Y0179421D03*
X0301142Y0179421D03*
X0303111Y0179421D03*
X0305079Y0179421D03*
D28*
X0290315Y0198638D03*
D29*
X0294213Y0163323D03*
X0294213Y0154268D03*
X0279646Y0154268D03*
X0279646Y0163323D03*
D30*
X0283674Y0166823D02*
X0269603Y0166823D01*
X0275584Y0172804D02*
X0275584Y0179135D01*
X0275552Y0179421D01*
X0277520Y0179421D02*
X0277694Y0179135D01*
X0277694Y0174562D01*
X0282619Y0169638D01*
X0285433Y0168582D02*
X0283674Y0166823D01*
X0285433Y0168582D02*
X0285433Y0179135D01*
X0285394Y0179421D01*
X0287192Y0179487D02*
X0287363Y0179421D01*
X0287192Y0179487D02*
X0287192Y0183708D01*
X0292469Y0183708D01*
X0292645Y0183533D01*
X0292820Y0183708D01*
X0298449Y0183708D01*
X0299152Y0183005D01*
X0299152Y0179487D01*
X0299174Y0179421D01*
X0299152Y0179135D01*
X0299152Y0175969D01*
X0300208Y0174914D01*
X0301615Y0174914D01*
X0310057Y0166472D01*
X0310057Y0160140D01*
X0306188Y0156270D01*
X0305906Y0155961D01*
X0305836Y0155919D01*
X0305836Y0151345D01*
X0302318Y0147828D01*
X0302318Y0145717D01*
X0302048Y0145685D01*
X0301966Y0145365D01*
X0298097Y0141496D01*
X0291413Y0141496D01*
X0291237Y0141672D01*
X0289654Y0140089D01*
X0289654Y0105615D01*
X0289642Y0105296D01*
X0289303Y0105263D01*
X0287192Y0105263D01*
X0279101Y0097173D01*
X0237944Y0097173D01*
X0221763Y0113354D01*
X0221763Y0130943D01*
X0221587Y0131119D01*
X0234075Y0143606D01*
X0234134Y0143638D01*
X0234426Y0143606D01*
X0246387Y0143606D01*
X0246496Y0143441D01*
X0254477Y0143606D02*
X0254764Y0143441D01*
X0254477Y0143606D02*
X0254477Y0153104D01*
X0254126Y0153456D01*
X0253937Y0153638D01*
X0247244Y0153638D02*
X0246738Y0153808D01*
X0259754Y0166823D01*
X0259402Y0166823D01*
X0259402Y0195669D01*
X0260457Y0195669D01*
X0259402Y0195669D02*
X0251663Y0195669D01*
X0251487Y0195845D01*
X0251663Y0196020D01*
X0251663Y0213609D01*
X0250960Y0214313D01*
X0250608Y0214313D01*
X0247794Y0217127D01*
X0247520Y0217142D01*
X0251663Y0217479D02*
X0251663Y0220293D01*
X0236185Y0235771D01*
X0233371Y0235771D01*
X0231964Y0237178D01*
X0231964Y0254415D01*
X0229853Y0252656D02*
X0229150Y0253359D01*
X0229150Y0276224D01*
X0241462Y0288536D01*
X0256588Y0288536D01*
X0259754Y0291702D01*
X0259754Y0295572D01*
X0262568Y0298386D01*
X0276639Y0298386D01*
X0279805Y0295220D01*
X0279805Y0288185D01*
X0301615Y0266375D01*
X0301615Y0235419D01*
X0289303Y0223107D01*
X0289303Y0218182D01*
X0289331Y0217854D01*
X0287544Y0218182D02*
X0287363Y0217854D01*
X0287544Y0218182D02*
X0287544Y0224866D01*
X0291765Y0229087D01*
X0293172Y0229087D01*
X0300208Y0236122D01*
X0300208Y0263561D01*
X0297239Y0266530D01*
X0297239Y0266727D01*
X0303374Y0261450D02*
X0322369Y0242454D01*
X0323426Y0242496D01*
X0323425Y0242454D01*
X0322721Y0242454D01*
X0317444Y0237178D01*
X0317444Y0220293D01*
X0313927Y0216775D01*
X0313927Y0206574D01*
X0312871Y0205518D01*
X0309705Y0205518D01*
X0309532Y0205528D01*
X0309705Y0203759D02*
X0309532Y0203559D01*
X0309705Y0203408D01*
X0309705Y0201649D01*
X0309532Y0201591D01*
X0309354Y0201297D01*
X0305836Y0201297D01*
X0305132Y0200594D01*
X0305132Y0198835D01*
X0290358Y0198835D01*
X0290315Y0198638D01*
X0281564Y0189689D01*
X0287192Y0184060D01*
X0287192Y0183708D01*
X0289331Y0179421D02*
X0289303Y0179135D01*
X0289303Y0164009D01*
X0279805Y0154511D01*
X0279646Y0154268D01*
X0279453Y0154160D01*
X0276991Y0151697D01*
X0276991Y0145717D01*
X0276851Y0145685D01*
X0284331Y0145685D02*
X0284378Y0145365D01*
X0287544Y0145365D01*
X0291237Y0141672D01*
X0294227Y0145717D02*
X0294567Y0145685D01*
X0294227Y0145717D02*
X0294227Y0146772D01*
X0289303Y0151697D01*
X0289303Y0158733D01*
X0293876Y0163306D01*
X0294213Y0163323D01*
X0293876Y0163657D01*
X0291413Y0166120D01*
X0291413Y0179135D01*
X0291300Y0179421D01*
X0293172Y0179487D02*
X0293268Y0179421D01*
X0293172Y0179487D02*
X0293172Y0183005D01*
X0292645Y0183533D01*
X0295237Y0179421D02*
X0295283Y0179135D01*
X0295283Y0173859D01*
X0297393Y0175618D02*
X0297393Y0179135D01*
X0297205Y0179421D01*
X0297393Y0175618D02*
X0305836Y0167175D01*
X0305836Y0163657D01*
X0305906Y0163441D01*
X0300559Y0168582D02*
X0300559Y0155567D01*
X0307243Y0148883D02*
X0322369Y0164009D01*
X0326890Y0154819D02*
X0326590Y0154511D01*
X0318500Y0154511D01*
X0310057Y0146069D01*
X0311113Y0143255D02*
X0304429Y0143255D01*
X0302318Y0145365D01*
X0302048Y0145685D01*
X0311113Y0143255D02*
X0313223Y0145365D01*
X0325887Y0145365D01*
X0326024Y0145449D01*
X0333978Y0145717D02*
X0333978Y0154160D01*
X0333626Y0154511D01*
X0333583Y0154819D01*
X0333978Y0145717D02*
X0334292Y0145449D01*
X0326063Y0190370D02*
X0318977Y0190370D01*
X0313662Y0195685D01*
X0309532Y0195685D01*
X0309354Y0195669D01*
X0306188Y0195669D01*
X0305132Y0196724D01*
X0305132Y0198835D01*
X0309532Y0199622D02*
X0314252Y0199622D01*
X0316418Y0201787D01*
X0323307Y0201787D01*
X0323307Y0201062D01*
X0323425Y0200945D01*
X0323662Y0200961D01*
X0325887Y0201297D02*
X0326221Y0200961D01*
X0325887Y0201297D02*
X0325887Y0203759D01*
X0320962Y0208684D01*
X0320748Y0208874D01*
X0315334Y0210795D02*
X0319907Y0215368D01*
X0320610Y0215368D01*
X0320748Y0216354D01*
X0315334Y0210795D02*
X0315334Y0205870D01*
X0313223Y0203759D01*
X0309705Y0203759D01*
X0309705Y0199890D02*
X0309532Y0199622D01*
X0309532Y0197654D02*
X0313859Y0197654D01*
X0316221Y0195291D01*
X0323098Y0195291D01*
X0323425Y0194965D01*
X0323662Y0194661D01*
X0326063Y0194504D02*
X0326063Y0190370D01*
X0326063Y0194504D02*
X0326221Y0194661D01*
X0309705Y0197428D02*
X0309532Y0197654D01*
X0298449Y0213609D02*
X0292117Y0213609D01*
X0291941Y0213785D01*
X0291765Y0213609D01*
X0290358Y0213609D01*
X0290358Y0198835D01*
X0290315Y0198638D02*
X0290006Y0198483D01*
X0281212Y0189689D01*
X0271362Y0189689D01*
X0271099Y0189780D01*
X0271011Y0191447D02*
X0271099Y0191748D01*
X0266386Y0191748D01*
X0265382Y0190744D01*
X0264327Y0193558D02*
X0262568Y0191799D01*
X0262568Y0181950D01*
X0265382Y0185467D02*
X0265382Y0137978D01*
X0266789Y0140441D02*
X0269252Y0137978D01*
X0269252Y0116872D01*
X0261161Y0108781D01*
X0255533Y0108781D01*
X0249904Y0103153D01*
X0249708Y0102993D01*
X0240055Y0102449D02*
X0239725Y0102417D01*
X0240055Y0102449D02*
X0257291Y0119686D01*
X0265030Y0119686D01*
X0265118Y0119976D01*
X0265030Y0127425D02*
X0265118Y0127457D01*
X0265030Y0127425D02*
X0234075Y0127425D01*
X0233899Y0127249D01*
X0233723Y0127425D01*
X0233723Y0137978D01*
X0226654Y0143638D02*
X0226336Y0143606D01*
X0224225Y0141496D01*
X0210858Y0141496D01*
X0210552Y0141472D01*
X0210330Y0136395D02*
X0216134Y0130591D01*
X0216134Y0129887D01*
X0216168Y0129579D01*
X0216134Y0130943D01*
X0221411Y0130943D01*
X0221587Y0131119D01*
X0229853Y0123204D02*
X0229639Y0122980D01*
X0229853Y0123204D02*
X0233899Y0127249D01*
X0229502Y0149235D02*
X0210858Y0149235D01*
X0210552Y0148953D01*
X0206988Y0150290D02*
X0206988Y0153808D01*
X0225280Y0153808D01*
X0226851Y0153835D01*
X0226687Y0153808D01*
X0225280Y0153808D01*
X0225280Y0174562D01*
X0225276Y0174622D01*
X0225280Y0174914D01*
X0229150Y0178784D01*
X0240055Y0178784D01*
X0243924Y0174914D01*
X0243977Y0174622D01*
X0236496Y0174622D02*
X0236185Y0174562D01*
X0236185Y0155919D01*
X0234426Y0154160D01*
X0234331Y0153835D01*
X0236185Y0155567D01*
X0237944Y0153808D01*
X0246738Y0153808D01*
X0247090Y0153808D01*
X0247244Y0153638D01*
X0234331Y0153835D02*
X0234075Y0153808D01*
X0229502Y0149235D01*
X0206988Y0150290D02*
X0202063Y0145365D01*
X0200656Y0145365D01*
X0200315Y0145213D01*
X0202415Y0145365D01*
X0206988Y0153808D02*
X0206988Y0158029D01*
X0208395Y0159436D01*
X0208465Y0159583D01*
X0208395Y0159788D01*
X0208395Y0179135D01*
X0195028Y0192503D01*
X0195028Y0217830D01*
X0199249Y0222052D01*
X0199370Y0222220D01*
X0199601Y0222052D01*
X0208395Y0222052D01*
X0215591Y0214856D01*
X0215591Y0212398D01*
X0215431Y0212554D01*
X0215591Y0212398D02*
X0215782Y0212554D01*
X0217541Y0212554D01*
X0217559Y0212398D01*
X0217893Y0212554D01*
X0219300Y0212554D01*
X0219528Y0212398D01*
X0219652Y0212554D01*
X0221411Y0212554D01*
X0221496Y0212398D01*
X0221763Y0212554D01*
X0223170Y0212554D01*
X0223465Y0212398D01*
X0223521Y0212554D01*
X0223521Y0214313D01*
X0224928Y0215720D01*
X0224928Y0216775D01*
X0228446Y0220293D01*
X0228446Y0226976D01*
X0220004Y0235419D01*
X0220004Y0237881D01*
X0220000Y0237929D01*
X0220004Y0238233D01*
X0220004Y0248786D01*
X0220000Y0248953D01*
X0220004Y0249138D01*
X0227039Y0256173D01*
X0227039Y0287129D01*
X0216486Y0287129D01*
X0216416Y0286897D01*
X0221411Y0278335D02*
X0218597Y0275521D01*
X0218597Y0264264D01*
X0208747Y0254415D01*
X0208747Y0234364D01*
X0214375Y0228735D01*
X0214375Y0222755D01*
X0213320Y0219941D02*
X0207340Y0225921D01*
X0207340Y0255118D01*
X0212968Y0260746D01*
X0212968Y0273058D01*
X0213186Y0273128D01*
X0221411Y0278335D02*
X0221685Y0278398D01*
X0227039Y0287129D02*
X0228446Y0287129D01*
X0234426Y0293109D01*
X0234646Y0293402D01*
X0241814Y0285019D02*
X0235315Y0278520D01*
X0235315Y0253165D01*
X0234102Y0251952D01*
X0233371Y0251952D01*
X0233371Y0237881D01*
X0234075Y0237178D01*
X0236889Y0237178D01*
X0253070Y0220996D01*
X0253070Y0218182D01*
X0267493Y0203759D01*
X0271011Y0203759D01*
X0271099Y0203559D01*
X0271011Y0201649D02*
X0271099Y0201591D01*
X0271011Y0201649D02*
X0267493Y0201649D01*
X0251663Y0217479D01*
X0254477Y0218886D02*
X0254477Y0223459D01*
X0252015Y0225921D01*
X0256236Y0224162D02*
X0256236Y0230142D01*
X0256060Y0230318D01*
X0255884Y0230142D01*
X0253774Y0230142D01*
X0243924Y0239992D01*
X0243924Y0241399D01*
X0243780Y0241551D01*
X0243780Y0248642D01*
X0247442Y0252304D01*
X0246929Y0252516D01*
X0239703Y0252304D02*
X0237087Y0249688D01*
X0237087Y0241551D01*
X0237240Y0241399D01*
X0237240Y0240695D01*
X0241814Y0236122D01*
X0243780Y0241551D02*
X0243924Y0241751D01*
X0237240Y0241751D02*
X0237087Y0241551D01*
X0229853Y0237178D02*
X0229853Y0252656D01*
X0227039Y0245269D02*
X0227039Y0237881D01*
X0231964Y0232956D01*
X0231964Y0210443D01*
X0231064Y0209543D01*
X0228288Y0209543D01*
X0228446Y0209740D01*
X0228288Y0207575D02*
X0232370Y0207575D01*
X0232667Y0207277D01*
X0235482Y0206222D02*
X0232898Y0203638D01*
X0228288Y0203638D01*
X0228446Y0203759D01*
X0228288Y0205606D02*
X0228446Y0205870D01*
X0228446Y0207277D01*
X0228288Y0207575D01*
X0228288Y0201669D02*
X0238668Y0201669D01*
X0247442Y0210443D01*
X0247520Y0210449D01*
X0257643Y0207629D02*
X0267493Y0197779D01*
X0271011Y0197779D01*
X0271099Y0197654D01*
X0271099Y0193717D02*
X0271011Y0193558D01*
X0264327Y0193558D01*
X0267493Y0187578D02*
X0265382Y0185467D01*
X0266789Y0184764D02*
X0266789Y0140441D01*
X0272066Y0131294D02*
X0272066Y0116168D01*
X0259754Y0103856D01*
X0259692Y0103569D01*
X0281564Y0173859D02*
X0282267Y0173859D01*
X0281564Y0173859D02*
X0279453Y0175969D01*
X0279453Y0179135D01*
X0279489Y0179421D01*
X0271099Y0185843D02*
X0271011Y0185819D01*
X0267845Y0185819D01*
X0266789Y0184764D01*
X0267493Y0187578D02*
X0271011Y0187578D01*
X0271099Y0187811D01*
X0271099Y0191748D02*
X0271362Y0191799D01*
X0274528Y0191799D01*
X0275584Y0192855D01*
X0275584Y0210443D01*
X0274880Y0211147D01*
X0271362Y0211147D01*
X0271099Y0211433D01*
X0271011Y0209740D02*
X0271099Y0209465D01*
X0267768Y0209465D01*
X0266789Y0210443D01*
X0266789Y0212554D01*
X0267317Y0213081D01*
X0256236Y0224162D01*
X0254477Y0218886D02*
X0267845Y0205518D01*
X0271011Y0205518D01*
X0271099Y0205528D01*
X0271011Y0213257D02*
X0267493Y0213257D01*
X0267317Y0213081D01*
X0271011Y0213257D02*
X0271099Y0213402D01*
X0271362Y0213609D01*
X0290358Y0213609D01*
X0291413Y0214313D02*
X0291941Y0213785D01*
X0291413Y0214313D02*
X0291413Y0217830D01*
X0291300Y0217854D01*
X0291413Y0218182D01*
X0291413Y0223107D01*
X0304253Y0235947D01*
X0304429Y0235771D01*
X0304253Y0235947D02*
X0311464Y0243158D01*
X0313223Y0243158D01*
X0313347Y0243165D01*
X0313347Y0235685D02*
X0313223Y0235419D01*
X0311464Y0235419D01*
X0297393Y0221348D01*
X0297393Y0218182D01*
X0297205Y0217854D01*
X0297042Y0217830D01*
X0295283Y0217830D01*
X0295237Y0217854D01*
X0293524Y0218182D02*
X0293268Y0217854D01*
X0293524Y0218182D02*
X0293524Y0221348D01*
X0295635Y0223459D01*
X0299174Y0217854D02*
X0299152Y0217830D01*
X0299152Y0214313D01*
X0298449Y0213609D01*
X0285394Y0217854D02*
X0285433Y0218182D01*
X0285433Y0263209D01*
X0283323Y0265319D01*
X0283323Y0281501D01*
X0276287Y0288536D01*
X0269252Y0288536D01*
X0264679Y0293109D01*
X0264646Y0293402D01*
X0303374Y0281501D02*
X0303374Y0261450D01*
X0296338Y0251952D02*
X0296024Y0252122D01*
X0296338Y0251952D02*
X0296338Y0241399D01*
X0296536Y0241354D01*
X0296338Y0241047D01*
X0296338Y0236122D01*
X0295986Y0235771D01*
X0291765Y0235771D02*
X0291765Y0239288D01*
X0290006Y0241047D01*
X0289843Y0241354D01*
X0289654Y0241399D01*
X0289654Y0250897D01*
X0288599Y0251952D01*
X0288544Y0252122D01*
X0279805Y0252304D02*
X0279805Y0248083D01*
X0282619Y0245269D01*
X0282619Y0237881D01*
X0281915Y0237178D01*
X0275584Y0237178D01*
X0272418Y0240344D01*
X0272418Y0241047D01*
X0272126Y0241354D01*
X0272066Y0241399D01*
X0263623Y0241399D01*
X0261103Y0241551D01*
X0260809Y0241399D01*
X0260809Y0235067D01*
X0256060Y0230318D01*
X0254829Y0232956D02*
X0254829Y0241047D01*
X0254477Y0241399D01*
X0254410Y0241551D01*
X0254477Y0241751D01*
X0254477Y0250897D01*
X0255884Y0252304D01*
X0256339Y0252516D01*
X0263623Y0252304D02*
X0263819Y0252516D01*
X0263623Y0252304D02*
X0263623Y0241399D01*
X0261161Y0241399D01*
X0261103Y0241551D01*
X0272048Y0252319D02*
X0272066Y0252304D01*
X0277518Y0246851D01*
X0277342Y0246676D01*
X0277518Y0246851D02*
X0278750Y0245620D01*
X0278750Y0241399D01*
X0278819Y0241354D01*
X0282619Y0233308D02*
X0283323Y0232605D01*
X0283323Y0218182D01*
X0283426Y0217854D01*
X0251487Y0195845D02*
X0248145Y0192503D01*
X0247442Y0192503D01*
X0247441Y0192339D01*
X0247090Y0192503D01*
X0226096Y0192503D01*
X0225473Y0193126D01*
X0225473Y0196565D01*
X0225632Y0196724D01*
X0225433Y0196846D01*
X0225280Y0196724D01*
X0223521Y0196724D01*
X0223465Y0196846D01*
X0223170Y0196724D01*
X0221763Y0196724D01*
X0221496Y0196846D01*
X0221411Y0196724D01*
X0219652Y0196724D01*
X0219528Y0196846D01*
X0219300Y0196724D01*
X0219567Y0196724D01*
X0219567Y0178953D01*
X0219300Y0178953D01*
X0219300Y0176321D01*
X0217893Y0174914D01*
X0217796Y0174622D01*
X0199174Y0195528D02*
X0199249Y0195669D01*
X0209187Y0205606D01*
X0212737Y0205606D01*
X0212616Y0205518D01*
X0212737Y0207575D02*
X0203768Y0207575D01*
X0199249Y0203056D01*
X0199174Y0203008D01*
X0204567Y0209543D02*
X0212737Y0209543D01*
X0204567Y0209543D02*
X0199370Y0214740D01*
X0213320Y0219941D02*
X0215431Y0219941D01*
X0221411Y0225921D01*
X0225632Y0225921D01*
X0221763Y0228735D02*
X0212616Y0237881D01*
X0212520Y0237929D01*
X0212616Y0238233D01*
X0212616Y0248786D01*
X0212520Y0248953D01*
X0229853Y0237178D02*
X0235482Y0231549D01*
X0235482Y0206222D01*
X0228288Y0199701D02*
X0246576Y0199701D01*
X0247090Y0199186D01*
X0247441Y0199031D01*
X0239703Y0252304D02*
X0239449Y0252516D01*
X0279528Y0252319D02*
X0279805Y0252304D01*
X0320259Y0230846D02*
X0323425Y0234012D01*
X0323425Y0235771D01*
X0323426Y0235803D01*
D31*
X0169370Y0157535D02*
X0169370Y0156118D01*
X0314449Y0175409D02*
X0314449Y0194366D01*
X0315431Y0193384D01*
X0321366Y0193384D01*
X0321366Y0192421D01*
X0322307Y0191480D01*
X0324715Y0191480D01*
X0324837Y0191409D01*
X0325295Y0191287D01*
X0326221Y0191287D01*
X0327147Y0191287D01*
X0327605Y0191409D01*
X0327726Y0191480D01*
X0330135Y0191480D01*
X0331076Y0192421D01*
X0331076Y0196902D01*
X0330167Y0197811D01*
X0330794Y0198438D01*
X0331180Y0198438D01*
X0331189Y0198430D01*
X0331189Y0192618D01*
X0332130Y0191676D01*
X0335709Y0191676D01*
X0335709Y0175606D01*
X0314449Y0175409D01*
X0314449Y0176455D02*
X0335709Y0176455D01*
X0335709Y0178054D02*
X0314449Y0178054D01*
X0314449Y0179653D02*
X0335709Y0179653D01*
X0335709Y0181251D02*
X0314449Y0181251D01*
X0314449Y0182850D02*
X0335709Y0182850D01*
X0335709Y0184448D02*
X0314449Y0184448D01*
X0314449Y0186047D02*
X0335709Y0186047D01*
X0335709Y0187645D02*
X0314449Y0187645D01*
X0314449Y0189244D02*
X0335709Y0189244D01*
X0335709Y0190842D02*
X0314449Y0190842D01*
X0314449Y0192441D02*
X0321366Y0192441D01*
X0321662Y0197198D02*
X0317011Y0197198D01*
X0315768Y0198441D01*
X0316159Y0198832D01*
X0317208Y0199880D01*
X0321366Y0199880D01*
X0321366Y0198720D01*
X0322275Y0197811D01*
X0321662Y0197198D01*
X0321700Y0197236D02*
X0316973Y0197236D01*
X0316162Y0198835D02*
X0321366Y0198835D01*
X0321859Y0203694D02*
X0315628Y0203694D01*
X0314449Y0202516D01*
X0314449Y0204399D01*
X0314778Y0204728D01*
X0315834Y0205784D01*
X0315834Y0215985D01*
X0316683Y0216834D01*
X0320269Y0216834D01*
X0320269Y0220713D01*
X0319352Y0220713D01*
X0319352Y0226242D01*
X0335709Y0226394D01*
X0335709Y0204891D01*
X0333998Y0204891D01*
X0334757Y0205649D01*
X0334757Y0212099D01*
X0334378Y0212478D01*
X0334590Y0212690D01*
X0334827Y0213100D01*
X0334950Y0213558D01*
X0334950Y0215875D01*
X0330677Y0215875D01*
X0330677Y0216834D01*
X0334950Y0216834D01*
X0334950Y0219150D01*
X0334827Y0219608D01*
X0334590Y0220019D01*
X0334255Y0220354D01*
X0333845Y0220591D01*
X0333387Y0220713D01*
X0330677Y0220713D01*
X0330677Y0216834D01*
X0329718Y0216834D01*
X0329718Y0220713D01*
X0327007Y0220713D01*
X0326550Y0220591D01*
X0326139Y0220354D01*
X0325804Y0220019D01*
X0325567Y0219608D01*
X0325473Y0219256D01*
X0325378Y0219608D01*
X0325141Y0220019D01*
X0324806Y0220354D01*
X0324396Y0220591D01*
X0323938Y0220713D01*
X0321228Y0220713D01*
X0321228Y0216834D01*
X0320269Y0216834D01*
X0320269Y0215875D01*
X0315996Y0215875D01*
X0315996Y0213558D01*
X0316118Y0213100D01*
X0316355Y0212690D01*
X0316568Y0212478D01*
X0316189Y0212099D01*
X0316189Y0205649D01*
X0317130Y0204708D01*
X0322241Y0204708D01*
X0322807Y0204143D01*
X0322307Y0204143D01*
X0321859Y0203694D01*
X0316609Y0205229D02*
X0315279Y0205229D01*
X0315563Y0203630D02*
X0314449Y0203630D01*
X0315834Y0206827D02*
X0316189Y0206827D01*
X0316189Y0208426D02*
X0315834Y0208426D01*
X0315834Y0210024D02*
X0316189Y0210024D01*
X0316189Y0211623D02*
X0315834Y0211623D01*
X0315834Y0213221D02*
X0316086Y0213221D01*
X0315996Y0214820D02*
X0315834Y0214820D01*
X0316267Y0216418D02*
X0320269Y0216418D01*
X0320269Y0215875D02*
X0320269Y0213040D01*
X0321228Y0213040D01*
X0321228Y0215875D01*
X0321228Y0216834D01*
X0325501Y0216834D01*
X0329718Y0216834D01*
X0329718Y0215875D01*
X0321228Y0215875D01*
X0320269Y0215875D01*
X0320269Y0214820D02*
X0321228Y0214820D01*
X0321228Y0216418D02*
X0329718Y0216418D01*
X0330677Y0216418D02*
X0335709Y0216418D01*
X0335709Y0214820D02*
X0334950Y0214820D01*
X0334860Y0213221D02*
X0335709Y0213221D01*
X0335709Y0211623D02*
X0334757Y0211623D01*
X0334757Y0210024D02*
X0335709Y0210024D01*
X0335709Y0208426D02*
X0334757Y0208426D01*
X0334757Y0206827D02*
X0335709Y0206827D01*
X0335709Y0205229D02*
X0334336Y0205229D01*
X0331189Y0197236D02*
X0330742Y0197236D01*
X0331076Y0195638D02*
X0331189Y0195638D01*
X0331189Y0194039D02*
X0331076Y0194039D01*
X0331076Y0192441D02*
X0331366Y0192441D01*
X0326221Y0192441D02*
X0326221Y0192441D01*
X0326221Y0191287D02*
X0326221Y0194661D01*
X0326221Y0194661D01*
X0326221Y0191287D01*
X0326221Y0194039D02*
X0326221Y0194039D01*
X0314776Y0194039D02*
X0314449Y0194039D01*
X0320269Y0213221D02*
X0321228Y0213221D01*
X0321228Y0218017D02*
X0320269Y0218017D01*
X0320269Y0219615D02*
X0321228Y0219615D01*
X0319352Y0221214D02*
X0335709Y0221214D01*
X0335709Y0222812D02*
X0319352Y0222812D01*
X0319352Y0224411D02*
X0335709Y0224411D01*
X0335709Y0226009D02*
X0319352Y0226009D01*
X0325374Y0219615D02*
X0325571Y0219615D01*
X0329718Y0219615D02*
X0330677Y0219615D01*
X0330677Y0218017D02*
X0329718Y0218017D01*
X0334950Y0218017D02*
X0335709Y0218017D01*
X0335709Y0219615D02*
X0334823Y0219615D01*
D32*
X0330197Y0208874D02*
X0330108Y0208684D01*
X0330108Y0200945D01*
X0329053Y0200945D01*
X0328780Y0200961D01*
X0330108Y0200945D02*
X0332219Y0200945D01*
X0334681Y0198483D01*
X0334796Y0198283D01*
X0292284Y0260094D02*
X0292469Y0260395D01*
X0292469Y0270244D01*
X0288993Y0266769D01*
X0286334Y0266769D01*
X0292469Y0270244D02*
X0292363Y0270567D01*
X0292363Y0280803D02*
X0292469Y0281149D01*
X0298097Y0281149D01*
X0301966Y0285019D01*
X0311464Y0285019D01*
X0323425Y0273058D01*
X0323736Y0272999D01*
X0280508Y0280446D02*
X0276287Y0280446D01*
X0275639Y0280882D01*
X0275584Y0280797D01*
X0260106Y0280797D01*
X0259489Y0280567D01*
X0259402Y0280446D01*
X0243924Y0280446D01*
X0243740Y0280449D01*
X0243740Y0270213D02*
X0243924Y0269893D01*
X0243583Y0269551D01*
X0243583Y0263402D01*
X0243189Y0263008D01*
X0243189Y0260488D01*
X0244628Y0260395D01*
X0251663Y0260395D01*
X0259402Y0260746D02*
X0260079Y0260488D01*
X0260079Y0265213D01*
X0259331Y0265961D01*
X0258937Y0266354D01*
X0252638Y0266354D01*
X0251562Y0267430D01*
X0249059Y0269989D01*
X0259331Y0270173D02*
X0259331Y0265961D01*
X0259331Y0270173D02*
X0259489Y0270331D01*
X0272418Y0260043D02*
X0267845Y0255470D01*
X0267845Y0245972D01*
X0272418Y0260043D02*
X0274880Y0260043D01*
X0275788Y0260291D01*
X0275584Y0260395D01*
X0275584Y0270596D01*
X0275621Y0270646D01*
X0243924Y0260746D02*
X0243189Y0260488D01*
X0183419Y0261098D02*
X0183419Y0250545D01*
X0169700Y0236826D01*
X0169700Y0224162D01*
X0169475Y0223927D01*
X0169700Y0223107D01*
X0169700Y0220644D01*
X0192917Y0197428D01*
X0192917Y0167527D01*
X0200304Y0160140D01*
X0200985Y0159583D01*
X0200656Y0159436D01*
X0200656Y0149587D01*
X0200315Y0148953D01*
X0195473Y0148953D01*
X0194567Y0148047D01*
X0194567Y0142142D01*
X0195355Y0141354D01*
X0200197Y0141354D01*
X0200315Y0141472D01*
X0200079Y0141236D01*
X0200079Y0135449D01*
X0194979Y0130349D01*
X0193530Y0130349D01*
X0193091Y0120390D02*
X0194324Y0120390D01*
X0208176Y0134241D01*
X0207979Y0134241D01*
X0205394Y0136827D01*
X0205394Y0143913D01*
X0204213Y0145094D01*
X0202686Y0145094D01*
X0202415Y0145365D01*
X0210330Y0136395D02*
X0208176Y0134241D01*
X0193091Y0120390D02*
X0178032Y0135449D01*
X0178032Y0147457D01*
X0169370Y0156118D01*
X0165255Y0166649D02*
X0165255Y0174247D01*
X0175670Y0184661D01*
X0175670Y0206394D01*
X0168032Y0214031D01*
X0183419Y0261098D02*
X0183398Y0261318D01*
D33*
X0214375Y0222755D03*
X0221763Y0228735D03*
X0225632Y0225921D03*
X0224928Y0216775D03*
X0232667Y0207277D03*
X0252015Y0225921D03*
X0254829Y0232956D03*
X0241814Y0236122D03*
X0227039Y0245269D03*
X0231964Y0254415D03*
X0249059Y0269989D03*
X0251663Y0260395D03*
X0267845Y0245972D03*
X0277342Y0246676D03*
X0282619Y0233308D03*
X0291765Y0235771D03*
X0295986Y0235771D03*
X0304429Y0235771D03*
X0295635Y0223459D03*
X0320259Y0230846D03*
X0297239Y0266727D03*
X0286334Y0266769D03*
X0280508Y0280446D03*
X0303374Y0281501D03*
X0241814Y0285019D03*
X0257643Y0207629D03*
X0260457Y0195669D03*
X0265382Y0190744D03*
X0262568Y0181950D03*
X0259754Y0166823D03*
X0269603Y0166823D03*
X0275584Y0172804D03*
X0282267Y0173859D03*
X0282619Y0169638D03*
X0295283Y0173859D03*
X0300559Y0168582D03*
X0300559Y0155567D03*
X0307243Y0148883D03*
X0310057Y0146069D03*
X0322369Y0164009D03*
X0272066Y0131294D03*
X0265382Y0137978D03*
X0233723Y0137978D03*
D34*
X0319174Y0181315D03*
X0319370Y0187024D03*
X0325276Y0186827D03*
X0325079Y0181118D03*
X0330985Y0181118D03*
X0331181Y0186630D03*
X0319174Y0198638D03*
X0322520Y0223047D03*
X0330197Y0223047D03*
M02*
