%
M48
M72
T01C0.0150
T02C0.0157
T03C0.0400
%
T01
X22493Y21678
X22563Y22592
X22176Y22874
X21438Y22276
X23267Y20728
X25201Y22592
X25483Y23296
X24181Y23612
X22704Y24527
X23196Y25441
X24906Y26999
X25166Y26039
X26784Y24597
X27734Y24668
X28262Y23331
X29177Y23577
X29599Y23577
X30443Y23577
X29563Y22346
X32026Y23085
X29724Y26673
X28633Y26677
X28051Y28045
X30337Y28150
X24181Y28502
X25764Y20763
X26046Y19567
X26538Y19074
X26257Y18195
X25975Y16682
X26960Y16682
X27558Y17280
X28227Y17386
X28262Y16964
X29528Y17386
X30056Y16858
X30056Y15557
X30724Y14888
X31006Y14607
X32237Y16401
X27207Y13129
X26538Y13798
X23372Y13798
T02
X31917Y18131
X31937Y18702
X32528Y18683
X32508Y18112
X33098Y18112
X33118Y18663
X31917Y19864
X32252Y22305
X33020Y22305
T03
X16937Y15754
X16526Y16665
X18650Y13746
X19353Y13035
X23972Y10242
X24971Y10299
X25969Y10357
X26967Y10414
X27966Y10472
X28964Y10530
X31819Y12112
X32539Y12805
X32996Y26517
X32374Y27300
X28465Y29340
X27465Y29340
X26465Y29340
X25465Y29340
X24465Y29340
X23465Y29340
X21642Y28690
X22169Y27840
X21319Y27313
X20792Y28163
X19942Y27636
X20469Y26786
X18340Y26132
X17783Y25301
X16948Y22393
X16803Y21403
X16659Y20414
M30
